<?xml version="1.0" encoding="utf-8"?>
<!-- Generator: Adobe Illustrator 24.0.0, SVG Export Plug-In . SVG Version: 6.00 Build 0)  -->
<svg version="1.1" xmlns="http://www.w3.org/2000/svg" xmlns:xlink="http://www.w3.org/1999/xlink" x="0px" y="0px"
	 viewBox="0 0 2000 2000" style="enable-background:new 0 0 2000 2000;" xml:space="preserve">
<style type="text/css">
	.st0{display:none;}
	.st1{display:inline;}
	.st2{fill:url(#SVGID_1_);}
	.st3{fill:url(#SVGID_2_);}
	.st4{fill:url(#SVGID_3_);}
	.st5{fill:url(#SVGID_4_);}
	.st6{fill:url(#SVGID_5_);}
	.st7{fill:#19496A;}
	.st8{fill:url(#SVGID_6_);}
	.st9{fill:url(#SVGID_7_);}
	.st10{fill:#DD1268;}
	.st11{fill:url(#SVGID_8_);}
	.st12{fill:url(#SVGID_9_);}
	.st13{fill:#C99A2C;}
	.st14{fill:url(#SVGID_10_);}
	.st15{fill:#3F7F45;}
	.st16{fill:#2297D5;}
	.st17{fill:url(#SVGID_11_);}
	.st18{fill:url(#SVGID_12_);}
	.st19{fill:url(#SVGID_13_);}
	.st20{fill:url(#SVGID_14_);}
	.st21{fill:#61B334;}
	.st22{fill:url(#SVGID_15_);}
	.st23{fill:url(#SVGID_16_);}
	.st24{fill:url(#SVGID_17_);}
	.st25{fill:url(#SVGID_18_);}
	.st26{fill:#0D699F;}
	.st27{fill:url(#SVGID_19_);}
	.st28{fill:url(#SVGID_20_);}
	.st29{fill:url(#SVGID_21_);}
	.st30{fill:url(#SVGID_22_);}
	.st31{fill:url(#SVGID_23_);}
	.st32{fill:url(#SVGID_24_);}
	.st33{fill:url(#SVGID_25_);}
	.st34{fill:url(#SVGID_26_);}
	.st35{fill:url(#SVGID_27_);}
	.st36{fill:url(#SVGID_28_);}
	.st37{fill:url(#SVGID_29_);}
	.st38{fill:url(#SVGID_30_);}
	.st39{fill:url(#SVGID_31_);}
	.st40{fill:url(#SVGID_32_);}
	.st41{fill:#F59C2D;}
	.st42{fill:url(#SVGID_33_);}
	.st43{fill:url(#SVGID_34_);}
	.st44{fill:url(#SVGID_35_);}
	.st45{fill:url(#SVGID_36_);}
	.st46{fill:url(#SVGID_37_);}
	.st47{fill:#4C9F38;}
	.st48{fill:url(#SVGID_38_);}
	.st49{fill:url(#SVGID_39_);}
	.st50{fill:#C51A2E;}
	.st51{fill:url(#SVGID_40_);}
	.st52{fill:url(#SVGID_41_);}
	.st53{fill:#2CBCE0;}
	.st54{fill:url(#SVGID_42_);}
	.st55{fill:url(#SVGID_43_);}
	.st56{fill:url(#SVGID_44_);}
	.st57{fill:#ED6A30;}
	.st58{fill:url(#SVGID_45_);}
	.st59{fill:url(#SVGID_46_);}
	.st60{fill:url(#SVGID_47_);}
	.st61{fill:url(#SVGID_48_);}
	.st62{fill:url(#SVGID_49_);}
	.st63{fill:url(#SVGID_50_);}
	.st64{fill:url(#SVGID_51_);}
	.st65{fill:#E5B735;}
	.st66{fill:url(#SVGID_52_);}
	.st67{fill:url(#SVGID_53_);}
	.st68{fill:url(#SVGID_54_);}
	.st69{fill:#E61A3C;}
	.st70{fill:url(#SVGID_55_);}
	.st71{fill:url(#SVGID_56_);}
	.st72{fill:url(#SVGID_57_);}
	.st73{fill:url(#SVGID_58_);}
	.st74{fill:url(#SVGID_59_);}
	.st75{fill:url(#SVGID_60_);}
	.st76{fill:url(#SVGID_61_);}
	.st77{fill:url(#SVGID_62_);}
	.st78{fill:#E8422F;}
	.st79{fill:#FBC219;}
	.st80{fill:url(#SVGID_63_);}
	.st81{fill:url(#SVGID_64_);}
	.st82{fill:url(#SVGID_65_);}
	.st83{fill:url(#SVGID_66_);}
	.st84{fill:url(#SVGID_67_);}
	.st85{fill:#A21A43;}
	.st86{fill:url(#SVGID_68_);}
	.st87{fill:url(#SVGID_69_);}
	.st88{fill:#FFFFFF;}
	.st89{fill:url(#SVGID_70_);}
	.st90{fill:url(#SVGID_71_);}
	.st91{fill:url(#SVGID_72_);}
	.st92{fill:url(#SVGID_73_);}
	.st93{fill:url(#SVGID_74_);}
	.st94{fill:url(#SVGID_75_);}
	.st95{fill:url(#SVGID_76_);}
	.st96{fill:url(#SVGID_77_);}
	.st97{fill:url(#SVGID_78_);}
	.st98{fill:#FFFF00;}
</style>
<g id="Слой_1" class="st0">
	<rect class="st1" width="2000" height="2000"/>
</g>
<g id="_x32_5">
	<g id="lines_1_">
		<linearGradient id="SVGID_1_" gradientUnits="userSpaceOnUse" x1="134.2286" y1="811.194" x2="251.4577" y2="701.8761">
			<stop  offset="0.1134" style="stop-color:#3F7F45"/>
			<stop  offset="0.8935" style="stop-color:#2297D5"/>
		</linearGradient>
		<polygon class="st2" points="135.92,813.01 132.02,808.78 249.76,700.06 253.67,704.29 		"/>
		<linearGradient id="SVGID_2_" gradientUnits="userSpaceOnUse" x1="139.4008" y1="808.4613" x2="163.0181" y2="674.5207">
			<stop  offset="0.1821" style="stop-color:#3F7F45"/>
			<stop  offset="0.8247" style="stop-color:#2297D5"/>
		</linearGradient>
		<polygon class="st3" points="141.83,808.89 136.17,807.86 160.59,674.09 166.25,675.13 		"/>
		<linearGradient id="SVGID_3_" gradientUnits="userSpaceOnUse" x1="160.2252" y1="675.9636" x2="226.6287" y2="590.9709">
			<stop  offset="0.0859" style="stop-color:#2297D5"/>
			<stop  offset="0.8694" style="stop-color:#61B334"/>
		</linearGradient>
		<polygon class="st4" points="163.35,678.27 158.75,674.81 223.5,588.66 228.1,592.12 		"/>
		<linearGradient id="SVGID_4_" gradientUnits="userSpaceOnUse" x1="223.0419" y1="590.9031" x2="340.9058" y2="550.3193">
			<stop  offset="0.11" style="stop-color:#61B334"/>
			<stop  offset="0.8832" style="stop-color:#0D699F"/>
		</linearGradient>
		<polygon class="st5" points="224.71,595.25 222.68,589.86 339.24,545.98 341.27,551.37 		"/>
		<linearGradient id="SVGID_5_" gradientUnits="userSpaceOnUse" x1="339.8735" y1="550.0609" x2="464.3334" y2="556.5835">
			<stop  offset="0.0722" style="stop-color:#0D699F"/>
			<stop  offset="0.9244" style="stop-color:#19496A"/>
		</linearGradient>
		<polygon class="st6" points="339.79,551.72 340.2,545.98 464.42,554.92 464.01,560.67 		"/>
		
			<rect x="509.6" y="527.44" transform="matrix(0.5569 -0.8306 0.8306 0.5569 -262.7226 686.9578)" class="st7" width="5.76" height="124.54"/>
		<linearGradient id="SVGID_6_" gradientUnits="userSpaceOnUse" x1="563.3213" y1="625.3076" x2="613.9771" y2="739.0825">
			<stop  offset="0.1409" style="stop-color:#19496A"/>
			<stop  offset="0.8935" style="stop-color:#C99A2C"/>
		</linearGradient>
		<polygon class="st8" points="616.61,737.91 611.34,740.25 560.69,626.48 565.95,624.14 		"/>
		<linearGradient id="SVGID_7_" gradientUnits="userSpaceOnUse" x1="590.4418" y1="868.6021" x2="614.2126" y2="746.3116">
			<stop  offset="0.0893" style="stop-color:#DD1268"/>
			<stop  offset="0.89" style="stop-color:#C99A2C"/>
		</linearGradient>
		<polygon class="st9" points="593.71,869.2 588.05,868.14 610.95,745.72 616.61,746.78 		"/>
		
			<rect x="525.83" y="846.68" transform="matrix(0.7307 0.6827 -0.6827 0.7307 780.7899 -109.118)" class="st10" width="5.76" height="176.97"/>
		
			<rect x="539.73" y="926.88" transform="matrix(-0.0384 -0.9993 0.9993 -0.0384 -435.4335 1580.2397)" class="st10" width="5.76" height="145.5"/>
		
			<rect x="613.57" y="998.21" transform="matrix(0.9999 0.0159 -0.0159 0.9999 17.3906 -9.6793)" class="st10" width="5.76" height="177.79"/>
		<linearGradient id="SVGID_8_" gradientUnits="userSpaceOnUse" x1="113.5459" y1="1168.4384" x2="613.7173" y2="1177.1689">
			<stop  offset="0.1203" style="stop-color:#F59C2D"/>
			<stop  offset="0.8866" style="stop-color:#DD1268"/>
		</linearGradient>
		<polygon class="st11" points="113.5,1172.46 113.58,1166.7 613.76,1173.14 613.69,1178.9 		"/>
		<linearGradient id="SVGID_9_" gradientUnits="userSpaceOnUse" x1="115.6663" y1="1165.8054" x2="351.9441" y2="884.2206">
			<stop  offset="0.1134" style="stop-color:#F59C2D"/>
			<stop  offset="0.9107" style="stop-color:#C99A2C"/>
		</linearGradient>
		<polygon class="st12" points="118.63,1168.25 114.2,1164.57 348.98,881.78 353.41,885.45 		"/>
		
			<rect x="381.04" y="769.07" transform="matrix(0.8477 0.5304 -0.5304 0.8477 499.4167 -77.0549)" class="st13" width="5.76" height="124.54"/>
		<linearGradient id="SVGID_10_" gradientUnits="userSpaceOnUse" x1="362.666" y1="740.3683" x2="423.1022" y2="781.1331">
			<stop  offset="0.2612" style="stop-color:#3F7F45"/>
			<stop  offset="0.7182" style="stop-color:#C99A2C"/>
		</linearGradient>
		<polygon class="st14" points="424.76,778.65 421.55,783.44 361.01,742.85 364.22,738.06 		"/>
		
			<rect x="343.44" y="736.8" transform="matrix(0.8854 0.4648 -0.4648 0.8854 399.809 -72.1833)" class="st15" width="5.76" height="76.17"/>
		
			<rect x="229.78" y="713.15" transform="matrix(-1.836970e-16 1 -1 -1.836970e-16 1039.7578 574.4359)" class="st15" width="5.76" height="187.89"/>
		
			<rect x="204.27" y="644.49" transform="matrix(-0.3418 0.9398 -0.9398 -0.3418 926.4925 731.3254)" class="st16" width="5.76" height="91.23"/>
		<linearGradient id="SVGID_11_" gradientUnits="userSpaceOnUse" x1="243.2711" y1="701.262" x2="333.3452" y2="812.4943">
			<stop  offset="0.189" style="stop-color:#2297D5"/>
			<stop  offset="0.8316" style="stop-color:#3F7F45"/>
		</linearGradient>
		<polygon class="st17" points="240.95,703.15 245.42,699.52 335.67,810.6 331.2,814.23 		"/>
		<linearGradient id="SVGID_12_" gradientUnits="userSpaceOnUse" x1="245.8241" y1="703.4148" x2="224.2807" y2="592.5839">
			<stop  offset="0.1271" style="stop-color:#2297D5"/>
			<stop  offset="0.89" style="stop-color:#61B334"/>
		</linearGradient>
		<polygon class="st18" points="249.23,702.69 243.59,703.85 220.87,593.31 226.52,592.15 		"/>
		<linearGradient id="SVGID_13_" gradientUnits="userSpaceOnUse" x1="352.6881" y1="677.5827" x2="365.8723" y2="745.4091">
			<stop  offset="0" style="stop-color:#61B334"/>
			<stop  offset="1" style="stop-color:#3F7F45"/>
		</linearGradient>
		<polygon class="st19" points="369.05,744.73 363.41,745.89 349.51,678.26 355.15,677.1 		"/>
		<linearGradient id="SVGID_14_" gradientUnits="userSpaceOnUse" x1="244.9732" y1="704.3905" x2="358.5461" y2="680.2498">
			<stop  offset="0.0859" style="stop-color:#2297D5"/>
			<stop  offset="0.9072" style="stop-color:#61B334"/>
		</linearGradient>
		<polygon class="st20" points="245.49,706.82 244.33,701.18 358.03,677.82 359.19,683.46 		"/>
		
			<rect x="282.9" y="557.14" transform="matrix(-0.5569 0.8306 -0.8306 -0.5569 974.2391 754.8014)" class="st21" width="5.76" height="160.26"/>
		<linearGradient id="SVGID_15_" gradientUnits="userSpaceOnUse" x1="353.1663" y1="686.3586" x2="341.1737" y2="549.2829">
			<stop  offset="0.1203" style="stop-color:#61B334"/>
			<stop  offset="0.9072" style="stop-color:#0D699F"/>
		</linearGradient>
		<polygon class="st22" points="356.3,686.06 350.56,686.59 338.04,549.58 343.78,549.06 		"/>
		<linearGradient id="SVGID_16_" gradientUnits="userSpaceOnUse" x1="351.8887" y1="680.8439" x2="449.4512" y2="624.5161">
			<stop  offset="0.1409" style="stop-color:#61B334"/>
			<stop  offset="0.8729" style="stop-color:#0D699F"/>
		</linearGradient>
		<polygon class="st23" points="353.33,683.34 350.45,678.35 448.01,622.02 450.89,627.01 		"/>
		<linearGradient id="SVGID_17_" gradientUnits="userSpaceOnUse" x1="450.4641" y1="625.8947" x2="461.7038" y2="554.93">
			<stop  offset="0.1168" style="stop-color:#0D699F"/>
			<stop  offset="0.8969" style="stop-color:#19496A"/>
		</linearGradient>
		<polygon class="st24" points="452.77,626.26 447.1,625.27 459.4,554.56 465.07,555.55 		"/>
		<linearGradient id="SVGID_18_" gradientUnits="userSpaceOnUse" x1="244.1206" y1="704.0779" x2="369.8028" y2="742.5029">
			<stop  offset="0.1615" style="stop-color:#2297D5"/>
			<stop  offset="0.9038" style="stop-color:#3F7F45"/>
		</linearGradient>
		<polygon class="st25" points="243.27,706.88 244.95,701.37 370.65,739.7 368.97,745.21 		"/>
		
			<rect x="391.19" y="518.02" transform="matrix(-0.5691 0.8223 -0.8223 -0.5691 1101.7435 598.4715)" class="st26" width="5.76" height="139.77"/>
		<linearGradient id="SVGID_19_" gradientUnits="userSpaceOnUse" x1="450.4378" y1="625.9155" x2="563.4529" y2="625.9155">
			<stop  offset="0" style="stop-color:#0D699F"/>
			<stop  offset="1" style="stop-color:#19496A"/>
		</linearGradient>
		<polygon class="st27" points="450.44,628.8 450.44,623.04 563.45,623.04 563.45,628.8 		"/>
		<linearGradient id="SVGID_20_" gradientUnits="userSpaceOnUse" x1="369.7466" y1="738.5124" x2="527.1177" y2="707.9225">
			<stop  offset="0.134" style="stop-color:#3F7F45"/>
			<stop  offset="0.8832" style="stop-color:#19496A"/>
		</linearGradient>
		<polygon class="st28" points="370.52,742.17 369.36,736.53 526.34,704.27 527.5,709.91 		"/>
		<linearGradient id="SVGID_21_" gradientUnits="userSpaceOnUse" x1="445.7624" y1="621.2021" x2="530.2448" y2="705.6845">
			<stop  offset="0.0962" style="stop-color:#0D699F"/>
			<stop  offset="0.8935" style="stop-color:#19496A"/>
		</linearGradient>
		<polygon class="st29" points="532.28,703.65 528.21,707.72 443.73,623.24 447.8,619.17 		"/>
		
			<rect x="443.54" y="750.77" transform="matrix(-0.1839 0.9829 -0.9829 -0.1839 1298.1119 488.1228)" class="st13" width="5.76" height="64.36"/>
		<linearGradient id="SVGID_22_" gradientUnits="userSpaceOnUse" x1="407.4136" y1="780.7468" x2="535.7845" y2="706.6317">
			<stop  offset="0.1581" style="stop-color:#C99A2C"/>
			<stop  offset="0.8557" style="stop-color:#19496A"/>
		</linearGradient>
		<polygon class="st30" points="408.85,783.24 405.97,778.25 534.34,704.14 537.22,709.13 		"/>
		<linearGradient id="SVGID_23_" gradientUnits="userSpaceOnUse" x1="364.7908" y1="740.9128" x2="454.2343" y2="622.2173">
			<stop  offset="0.1134" style="stop-color:#3F7F45"/>
			<stop  offset="0.8729" style="stop-color:#0D699F"/>
		</linearGradient>
		<polygon class="st31" points="366.59,742.27 362.02,738.76 452.44,620.86 457.01,624.37 		"/>
		
			<rect x="545.55" y="618.12" transform="matrix(0.9382 0.346 -0.346 0.9382 263.5972 -148.7598)" class="st7" width="5.76" height="91.51"/>
		<linearGradient id="SVGID_24_" gradientUnits="userSpaceOnUse" x1="529.4224" y1="706.0052" x2="613.308" y2="741.6125">
			<stop  offset="0.2096" style="stop-color:#19496A"/>
			<stop  offset="0.8797" style="stop-color:#C99A2C"/>
		</linearGradient>
		<polygon class="st32" points="528.09,709.39 530.25,704.05 614.64,738.23 612.48,743.57 		"/>
		<linearGradient id="SVGID_25_" gradientUnits="userSpaceOnUse" x1="588.51" y1="865.5287" x2="472.4152" y2="787.2219">
			<stop  offset="0.1203" style="stop-color:#DD1268"/>
			<stop  offset="0.8935" style="stop-color:#C99A2C"/>
		</linearGradient>
		<polygon class="st33" points="589.53,864.02 586.24,868.74 471.39,788.73 474.69,784.01 		"/>
		
			<rect x="545.32" y="685.12" transform="matrix(0.3295 0.9442 -0.9442 0.3295 1090.09 -4.4752)" class="st13" width="5.76" height="160.26"/>
		<linearGradient id="SVGID_26_" gradientUnits="userSpaceOnUse" x1="473.4288" y1="798.2994" x2="535.8528" y2="705.752">
			<stop  offset="0.0962" style="stop-color:#C99A2C"/>
			<stop  offset="0.8832" style="stop-color:#19496A"/>
		</linearGradient>
		<polygon class="st34" points="475.12,799.44 470.39,796.15 534.16,704.61 538.89,707.9 		"/>
		<linearGradient id="SVGID_27_" gradientUnits="userSpaceOnUse" x1="595.542" y1="868.0272" x2="499.2728" y2="874.759">
			<stop  offset="0.1718" style="stop-color:#DD1268"/>
			<stop  offset="0.8935" style="stop-color:#C99A2C"/>
		</linearGradient>
		<polygon class="st35" points="499.45,877.26 499.09,871.51 595.37,865.52 595.72,871.27 		"/>
		<linearGradient id="SVGID_28_" gradientUnits="userSpaceOnUse" x1="392.8766" y1="945.596" x2="352.2166" y2="880.5264">
			<stop  offset="0.1134" style="stop-color:#F59C2D"/>
			<stop  offset="0.8866" style="stop-color:#C99A2C"/>
		</linearGradient>
		<polygon class="st36" points="350.04,881.88 354.95,878.87 395.05,944.24 390.14,947.25 		"/>
		<linearGradient id="SVGID_29_" gradientUnits="userSpaceOnUse" x1="392.6842" y1="947.5736" x2="505.0397" y2="874.6091">
			<stop  offset="0" style="stop-color:#F59C2D"/>
			<stop  offset="1" style="stop-color:#C99A2C"/>
		</linearGradient>
		<polygon class="st37" points="394.26,950 391.13,945.17 503.46,872.18 506.6,877.01 		"/>
		
			<rect x="488.93" y="786.14" transform="matrix(-0.9605 0.2782 -0.2782 -0.9605 1195.9675 1496.5535)" class="st13" width="5.76" height="93.96"/>
		
			<rect x="457.42" y="761.3" transform="matrix(-0.7577 0.6526 -0.6526 -0.7577 1349.1847 1154.4093)" class="st13" width="5.76" height="132.71"/>
		
			<rect x="429.04" y="797.91" transform="matrix(0.0488 0.9988 -0.9988 0.0488 1287.8547 403.8157)" class="st13" width="5.76" height="160.26"/>
		<linearGradient id="SVGID_30_" gradientUnits="userSpaceOnUse" x1="463.209" y1="1006.9713" x2="504.4185" y2="880.1415">
			<stop  offset="0.1203" style="stop-color:#DD1268"/>
			<stop  offset="0.8557" style="stop-color:#C99A2C"/>
		</linearGradient>
		<polygon class="st38" points="466.13,1007.9 460.65,1006.14 501.5,879.21 506.98,880.97 		"/>
		
			<rect x="572.42" y="972.51" transform="matrix(0.6816 0.7317 -0.7317 0.6816 943.5016 -90.1054)" class="st10" width="5.76" height="133.34"/>
		
			<rect x="495.97" y="989.72" transform="matrix(0.778 -0.6283 0.6283 0.778 -543.8468 544.6995)" class="st10" width="5.76" height="104.38"/>
		<linearGradient id="SVGID_31_" gradientUnits="userSpaceOnUse" x1="393.0111" y1="947.1837" x2="467.8834" y2="1003.6039">
			<stop  offset="0.1271" style="stop-color:#F59C2D"/>
			<stop  offset="0.9038" style="stop-color:#DD1268"/>
		</linearGradient>
		<polygon class="st39" points="469.97,1000.69 466.57,1005.34 390.93,950.09 394.32,945.44 		"/>
		
			<rect x="568.12" y="1063.76" transform="matrix(0.7457 -0.6663 0.6663 0.7457 -606.4266 667.389)" class="st10" width="5.76" height="128.58"/>
		<linearGradient id="SVGID_32_" gradientUnits="userSpaceOnUse" x1="114.1898" y1="1165.2993" x2="538.5709" y2="1082.8081">
			<stop  offset="0.1375" style="stop-color:#F59C2D"/>
			<stop  offset="0.9003" style="stop-color:#DD1268"/>
		</linearGradient>
		<polygon class="st40" points="114.97,1169.17 113.84,1163.52 537.79,1078.94 538.92,1084.58 		"/>
		
			<rect x="231.94" y="992.1" transform="matrix(0.3649 0.9311 -0.9311 0.3649 1193.611 493.869)" class="st41" width="5.76" height="259.39"/>
		
			<rect x="252.12" y="875.65" transform="matrix(0.6283 0.778 -0.778 0.6283 917.1007 194.5237)" class="st41" width="5.76" height="362.58"/>
		
			<rect x="241.83" y="943.2" transform="matrix(0.4892 0.8722 -0.8722 0.4892 1081.1361 346.548)" class="st41" width="5.76" height="306.12"/>
		
			<rect x="379.94" y="945.27" transform="matrix(0.9651 0.2619 -0.2619 0.9651 271.9658 -65.7979)" class="st41" width="5.76" height="84.2"/>
		<linearGradient id="SVGID_33_" gradientUnits="userSpaceOnUse" x1="364.0544" y1="1025.8651" x2="474.4312" y2="1000.3826">
			<stop  offset="0.1443" style="stop-color:#F59C2D"/>
			<stop  offset="0.8625" style="stop-color:#DD1268"/>
		</linearGradient>
		<polygon class="st42" points="364.78,1028.89 363.46,1023.29 473.71,997.35 475.03,1002.96 		"/>
		<linearGradient id="SVGID_34_" gradientUnits="userSpaceOnUse" x1="363.2213" y1="1075.1575" x2="524.6709" y2="1080.7954">
			<stop  offset="0.1546" style="stop-color:#F59C2D"/>
			<stop  offset="0.8385" style="stop-color:#DD1268"/>
		</linearGradient>
		<polygon class="st43" points="363.13,1077.65 363.36,1071.89 524.76,1078.31 524.53,1084.06 		"/>
		
			<linearGradient id="SVGID_35_" gradientUnits="userSpaceOnUse" x1="343.4337" y1="1078.8212" x2="458.3063" y2="1009.7988" gradientTransform="matrix(0.9177 0.0505 0.0505 0.969 -9.8552 6.0457)">
			<stop  offset="0.134" style="stop-color:#F59C2D"/>
			<stop  offset="0.8522" style="stop-color:#DD1268"/>
		</linearGradient>
		<polygon class="st44" points="361.61,1071.77 358.6,1066.86 459.87,1004.74 462.88,1009.65 		"/>
		<linearGradient id="SVGID_36_" gradientUnits="userSpaceOnUse" x1="775.8448" y1="561.2233" x2="1143.6656" y2="554.8029">
			<stop  offset="0.1443" style="stop-color:#E61A3C"/>
			<stop  offset="0.8866" style="stop-color:#E5B735"/>
		</linearGradient>
		<polygon class="st45" points="775.91,564.46 775.8,558.7 1143.6,551.57 1143.71,557.33 		"/>
		<linearGradient id="SVGID_37_" gradientUnits="userSpaceOnUse" x1="1137.3849" y1="722.1735" x2="1142.9789" y2="561.9831">
			<stop  offset="0.1375" style="stop-color:#4C9F38"/>
			<stop  offset="0.8797" style="stop-color:#E5B735"/>
		</linearGradient>
		<polygon class="st46" points="1139.91,722.26 1134.15,722.04 1140.45,561.89 1146.21,562.12 		"/>
		
			<rect x="1020.66" y="604.45" transform="matrix(0.056 -0.9984 0.9984 0.056 250.6745 1698.472)" class="st47" width="5.76" height="224.45"/>
		<linearGradient id="SVGID_38_" gradientUnits="userSpaceOnUse" x1="901.9181" y1="762.0392" x2="912.4965" y2="712.272">
			<stop  offset="0.2784" style="stop-color:#E61A3C"/>
			<stop  offset="0.8179" style="stop-color:#4C9F38"/>
		</linearGradient>
		<polygon class="st48" points="904.79,762.64 899.15,761.45 909.62,711.67 915.26,712.86 		"/>
		<linearGradient id="SVGID_39_" gradientUnits="userSpaceOnUse" x1="898.1895" y1="759.5605" x2="991.7906" y2="759.5605">
			<stop  offset="0.1443" style="stop-color:#E61A3C"/>
			<stop  offset="0.8866" style="stop-color:#C51A2E"/>
		</linearGradient>
		<polygon class="st49" points="991.79,756.68 991.79,762.44 898.19,762.44 898.19,756.68 		"/>
		
			<rect x="1042.55" y="711.89" transform="matrix(0.2059 -0.9786 0.9786 0.2059 74.9087 1636.0038)" class="st50" width="5.76" height="119.91"/>
		
			<rect x="1127.49" y="771.25" transform="matrix(0.6989 -0.7152 0.7152 0.6989 -241.5565 1053.3682)" class="st50" width="5.76" height="84.7"/>
		<linearGradient id="SVGID_40_" gradientUnits="userSpaceOnUse" x1="1189.1799" y1="946.4169" x2="1158.4653" y2="839.3021">
			<stop  offset="0.1237" style="stop-color:#E8422F"/>
			<stop  offset="0.89" style="stop-color:#C51A2E"/>
		</linearGradient>
		<polygon class="st51" points="1191.65,945.71 1186.11,947.27 1155.99,840.01 1161.54,838.45 		"/>
		<linearGradient id="SVGID_41_" gradientUnits="userSpaceOnUse" x1="1172.2198" y1="1053.2542" x2="1187.4473" y2="944.9047">
			<stop  offset="0.1168" style="stop-color:#2CBCE0"/>
			<stop  offset="0.8419" style="stop-color:#E8422F"/>
		</linearGradient>
		<polygon class="st52" points="1174.67,1053.6 1168.98,1052.76 1184.99,944.56 1190.69,945.4 		"/>
		
			<rect x="1132.33" y="1031.4" transform="matrix(0.7922 0.6103 -0.6103 0.7922 905.5258 -464.7947)" class="st53" width="5.76" height="131.51"/>
		<linearGradient id="SVGID_42_" gradientUnits="userSpaceOnUse" x1="963.6312" y1="1187.453" x2="1103.546" y2="1144.6768">
			<stop  offset="0.134" style="stop-color:#FBC219"/>
			<stop  offset="0.8797" style="stop-color:#2CBCE0"/>
		</linearGradient>
		<polygon class="st54" points="1102.76,1142.11 1104.43,1147.62 964.42,1190.02 962.75,1184.51 		"/>
		<linearGradient id="SVGID_43_" gradientUnits="userSpaceOnUse" x1="827.4539" y1="1186.9229" x2="960.1152" y2="1186.9229">
			<stop  offset="0.1134" style="stop-color:#A21A43"/>
			<stop  offset="0.8797" style="stop-color:#FBC219"/>
		</linearGradient>
		<polygon class="st55" points="960.12,1184.04 960.12,1189.8 827.45,1189.8 827.45,1184.04 		"/>
		<linearGradient id="SVGID_44_" gradientUnits="userSpaceOnUse" x1="682.546" y1="1134.4033" x2="833.1961" y2="1189.2356">
			<stop  offset="0" style="stop-color:#ED6A30"/>
			<stop  offset="1" style="stop-color:#A21A43"/>
		</linearGradient>
		<polygon class="st56" points="833.87,1187.37 831.84,1192.76 681.87,1136.27 683.9,1130.88 		"/>
		
			<rect x="699.03" y="973.98" transform="matrix(0.9912 0.1323 -0.1323 0.9912 145.6155 -83.5894)" class="st57" width="5.76" height="160.26"/>
		<linearGradient id="SVGID_45_" gradientUnits="userSpaceOnUse" x1="710.9955" y1="970.4345" x2="838.7973" y2="1009.5074">
			<stop  offset="0.1306" style="stop-color:#ED6A30"/>
			<stop  offset="0.8729" style="stop-color:#A21A43"/>
		</linearGradient>
		<polygon class="st58" points="839.63,1006.79 837.94,1012.29 710.16,973.16 711.85,967.65 		"/>
		<linearGradient id="SVGID_46_" gradientUnits="userSpaceOnUse" x1="832.0599" y1="1007.9971" x2="956.439" y2="1016.6945">
			<stop  offset="0.1031" style="stop-color:#A21A43"/>
			<stop  offset="0.8866" style="stop-color:#FBC219"/>
		</linearGradient>
		<polygon class="st59" points="956.64,1013.65 956.25,1019.4 831.86,1011.04 832.25,1005.29 		"/>
		<linearGradient id="SVGID_47_" gradientUnits="userSpaceOnUse" x1="948.3521" y1="1023.5829" x2="996.2402" y2="952.586">
			<stop  offset="0.1031" style="stop-color:#FBC219"/>
			<stop  offset="0.89" style="stop-color:#2CBCE0"/>
		</linearGradient>
		<polygon class="st60" points="951.07,1025.36 946.27,1022.18 993.52,950.81 998.32,953.99 		"/>
		<linearGradient id="SVGID_48_" gradientUnits="userSpaceOnUse" x1="721.5927" y1="923.9035" x2="900.3765" y2="908.262">
			<stop  offset="0.1443" style="stop-color:#ED6A30"/>
			<stop  offset="0.8557" style="stop-color:#E8422F"/>
		</linearGradient>
		<polygon class="st61" points="900.12,905.37 900.63,911.11 721.85,926.79 721.34,921.06 		"/>
		<linearGradient id="SVGID_49_" gradientUnits="userSpaceOnUse" x1="727.1423" y1="928.0021" x2="779.8682" y2="552.838">
			<stop  offset="0.1168" style="stop-color:#ED6A30"/>
			<stop  offset="0.8866" style="stop-color:#E61A3C"/>
		</linearGradient>
		<polygon class="st62" points="728.61,928.21 722.92,927.37 778.4,552.63 784.09,553.47 		"/>
		<linearGradient id="SVGID_50_" gradientUnits="userSpaceOnUse" x1="1034.8497" y1="638.0172" x2="1142.6713" y2="559.6802">
			<stop  offset="0.1443" style="stop-color:#4C9F38"/>
			<stop  offset="0.866" style="stop-color:#E5B735"/>
		</linearGradient>
		<polygon class="st63" points="1037.12,641.01 1033.67,636.4 1140.4,556.69 1143.85,561.3 		"/>
		
			<rect x="1082.48" y="609.64" transform="matrix(0.658 -0.753 0.753 0.658 -140.7151 1049.771)" class="st47" width="5.76" height="140.33"/>
		
			<rect x="971.7" y="593.81" transform="matrix(0.5 0.866 -0.866 0.5 1070.9401 -507.0437)" class="st47" width="5.76" height="160.26"/>
		<linearGradient id="SVGID_51_" gradientUnits="userSpaceOnUse" x1="877.1035" y1="636.8532" x2="1037.3677" y2="636.8532">
			<stop  offset="0.1237" style="stop-color:#E5B735"/>
			<stop  offset="0.8625" style="stop-color:#4C9F38"/>
		</linearGradient>
		<polygon class="st64" points="877.1,639.73 877.1,633.97 1037.37,633.97 1037.37,639.73 		"/>
		
			<rect x="1007" y="452.53" transform="matrix(0.2849 0.9586 -0.9586 0.2849 1294.9412 -540.7429)" class="st65" width="5.76" height="289.97"/>
		<linearGradient id="SVGID_52_" gradientUnits="userSpaceOnUse" x1="779.8387" y1="562.6849" x2="875.9806" y2="635.133">
			<stop  offset="0.1065" style="stop-color:#E61A3C"/>
			<stop  offset="0.8522" style="stop-color:#E5B735"/>
		</linearGradient>
		<polygon class="st66" points="877.31,633.36 873.8,637.92 778.51,564.45 782.02,559.89 		"/>
		<linearGradient id="SVGID_53_" gradientUnits="userSpaceOnUse" x1="875.232" y1="633.308" x2="912.4326" y2="713.0851">
			<stop  offset="0.1546" style="stop-color:#E5B735"/>
			<stop  offset="0.8591" style="stop-color:#4C9F38"/>
		</linearGradient>
		<polygon class="st67" points="915.35,711.67 910.15,714.15 872.32,634.72 877.52,632.24 		"/>
		<linearGradient id="SVGID_54_" gradientUnits="userSpaceOnUse" x1="818.6716" y1="727.2441" x2="878.0858" y2="635.7542">
			<stop  offset="0.1134" style="stop-color:#E61A3C"/>
			<stop  offset="0.8316" style="stop-color:#E5B735"/>
		</linearGradient>
		<polygon class="st68" points="820.51,728.43 815.72,725.24 876.25,634.56 881.04,637.76 		"/>
		
			<rect x="798.02" y="566.59" transform="matrix(0.9718 -0.2359 0.2359 0.9718 -129.966 207.2014)" class="st69" width="5.76" height="160.26"/>
		
			<rect x="859.86" y="693.47" transform="matrix(-0.395 0.9187 -0.9187 -0.395 1885.6671 243.2359)" class="st69" width="5.76" height="98.14"/>
		<linearGradient id="SVGID_55_" gradientUnits="userSpaceOnUse" x1="900.1441" y1="757.5946" x2="972.9788" y2="827.9302">
			<stop  offset="0.1512" style="stop-color:#E61A3C"/>
			<stop  offset="0.8557" style="stop-color:#C51A2E"/>
		</linearGradient>
		<polygon class="st70" points="974.37,826.49 970.29,830.57 898.76,759.03 902.83,754.96 		"/>
		<linearGradient id="SVGID_56_" gradientUnits="userSpaceOnUse" x1="724.5499" y1="926.8546" x2="820.3431" y2="721.4253">
			<stop  offset="0.1306" style="stop-color:#ED6A30"/>
			<stop  offset="0.8316" style="stop-color:#E61A3C"/>
		</linearGradient>
		<polygon class="st71" points="727.17,928.08 721.95,925.64 817.72,720.2 822.94,722.64 		"/>
		
			<rect x="819.52" y="723.75" transform="matrix(0.9993 -0.0361 0.0361 0.9993 -27.7698 30.2124)" class="st69" width="5.76" height="120.06"/>
		<linearGradient id="SVGID_57_" gradientUnits="userSpaceOnUse" x1="732.6568" y1="926.5246" x2="818.249" y2="837.8913">
			<stop  offset="0.1271" style="stop-color:#ED6A30"/>
			<stop  offset="0.8213" style="stop-color:#E8422F"/>
		</linearGradient>
		<polygon class="st72" points="729.82,923.79 726.15,919.35 821.08,840.63 824.76,845.06 		"/>
		
			<rect x="859.92" y="744.17" transform="matrix(0.7343 0.6789 -0.6789 0.7343 773.6318 -372.6425)" class="st69" width="5.76" height="115.36"/>
		<linearGradient id="SVGID_58_" gradientUnits="userSpaceOnUse" x1="818.1924" y1="843.2952" x2="977.6122" y2="826.5395">
			<stop  offset="0.1443" style="stop-color:#E61A3C"/>
			<stop  offset="0.8419" style="stop-color:#C51A2E"/>
		</linearGradient>
		<polygon class="st73" points="818.58,846.67 817.95,840.95 977.22,823.17 977.86,828.89 		"/>
		
			<rect x="975.82" y="756.49" transform="matrix(0.9611 0.2763 -0.2763 0.9611 257.8513 -239.4914)" class="st50" width="5.76" height="77.36"/>
		<linearGradient id="SVGID_59_" gradientUnits="userSpaceOnUse" x1="823.4821" y1="841.3964" x2="909.0414" y2="905.87">
			<stop  offset="0.0859" style="stop-color:#E61A3C"/>
			<stop  offset="0.89" style="stop-color:#E8422F"/>
		</linearGradient>
		<polygon class="st74" points="911.06,903.1 907.64,907.73 821.47,844.17 824.89,839.53 		"/>
		<linearGradient id="SVGID_60_" gradientUnits="userSpaceOnUse" x1="906.4096" y1="910.6277" x2="968.4554" y2="825.2291">
			<stop  offset="0.11" style="stop-color:#E8422F"/>
			<stop  offset="0.8316" style="stop-color:#C51A2E"/>
		</linearGradient>
		<polygon class="st75" points="908.43,912.09 903.79,908.68 966.44,823.76 971.07,827.18 		"/>
		<linearGradient id="SVGID_61_" gradientUnits="userSpaceOnUse" x1="1041.4437" y1="893.1442" x2="1101.1742" y2="780.8076">
			<stop  offset="0.1443" style="stop-color:#E8422F"/>
			<stop  offset="0.89" style="stop-color:#C51A2E"/>
		</linearGradient>
		<polygon class="st76" points="1044.2,894.59 1039.11,891.9 1098.41,779.36 1103.51,782.05 		"/>
		<linearGradient id="SVGID_62_" gradientUnits="userSpaceOnUse" x1="1115.4072" y1="956.7532" x2="1159.1429" y2="842.8177">
			<stop  offset="0" style="stop-color:#E8422F"/>
			<stop  offset="1" style="stop-color:#C51A2E"/>
		</linearGradient>
		<polygon class="st77" points="1117.61,957.6 1112.25,955.49 1156.94,841.97 1162.3,844.08 		"/>
		
			<rect x="1149.91" y="906.67" transform="matrix(0.1709 0.9853 -0.9853 0.1709 1891.0034 -348.8537)" class="st78" width="5.76" height="85.12"/>
		
			<rect x="1122.28" y="998.84" transform="matrix(-1.836970e-16 1 -1 -1.836970e-16 2175.3071 -75.0215)" class="st53" width="5.76" height="102.61"/>
		
			<rect x="922.31" y="1004.78" transform="matrix(0.8989 0.4382 -0.4382 0.8989 563.0634 -297.1024)" class="st79" width="5.76" height="133.03"/>
		
			<rect x="939.72" y="1044.05" transform="matrix(0.5797 0.8149 -0.8149 0.5797 1291.7489 -306.1188)" class="st79" width="5.76" height="109.96"/>
		<linearGradient id="SVGID_63_" gradientUnits="userSpaceOnUse" x1="978.7145" y1="1069.802" x2="1099.5714" y2="1148.2874">
			<stop  offset="0.1237" style="stop-color:#FBC219"/>
			<stop  offset="0.8488" style="stop-color:#2CBCE0"/>
		</linearGradient>
		<polygon class="st80" points="1100.8,1146.4 1097.62,1151.21 977.49,1071.69 980.67,1066.88 		"/>
		
			<rect x="1084.05" y="1046.54" transform="matrix(0.9816 -0.191 0.191 0.9816 -189.9549 227.8091)" class="st53" width="5.76" height="105.75"/>
		
			<rect x="970.48" y="1067.55" transform="matrix(0.9867 0.1627 -0.1627 0.9867 196.4223 -143.3182)" class="st79" width="5.76" height="120.42"/>
		
			<rect x="926.3" y="1108.22" transform="matrix(0.6511 -0.759 0.759 0.6511 -552.8826 1108.4501)" class="st79" width="5.76" height="94.71"/>
		<linearGradient id="SVGID_64_" gradientUnits="userSpaceOnUse" x1="832.1304" y1="1004.6823" x2="900.6244" y2="1133.5007">
			<stop  offset="0.1134" style="stop-color:#A21A43"/>
			<stop  offset="0.8729" style="stop-color:#FBC219"/>
		</linearGradient>
		<polygon class="st81" points="902.67,1132.41 897.56,1135.08 830.09,1005.77 835.19,1003.1 		"/>
		<linearGradient id="SVGID_65_" gradientUnits="userSpaceOnUse" x1="777.7049" y1="1073.6791" x2="894.8665" y2="1128.3125">
			<stop  offset="0.0997" style="stop-color:#A21A43"/>
			<stop  offset="0.8866" style="stop-color:#FBC219"/>
		</linearGradient>
		<polygon class="st82" points="895.61,1126.72 893.09,1131.89 776.96,1075.28 779.48,1070.1 		"/>
		<linearGradient id="SVGID_66_" gradientUnits="userSpaceOnUse" x1="827.5407" y1="1189.9823" x2="900.8" y2="1126.2991">
			<stop  offset="0.1271" style="stop-color:#A21A43"/>
			<stop  offset="0.8832" style="stop-color:#FBC219"/>
		</linearGradient>
		<polygon class="st83" points="829.72,1192.42 825.9,1188.1 898.62,1123.86 902.44,1128.18 		"/>
		<linearGradient id="SVGID_67_" gradientUnits="userSpaceOnUse" x1="714.6935" y1="974.2144" x2="782.1833" y2="1074.2722">
			<stop  offset="0.134" style="stop-color:#ED6A30"/>
			<stop  offset="0.8625" style="stop-color:#A21A43"/>
		</linearGradient>
		<polygon class="st84" points="784.32,1072.83 779.53,1076.03 712.56,975.65 717.35,972.46 		"/>
		
			<rect x="805.43" y="995.99" transform="matrix(0.7778 0.6286 -0.6286 0.7778 834.0056 -276.7063)" class="st85" width="5.76" height="90.15"/>
		
			<rect x="800.85" y="1065.05" transform="matrix(0.9254 -0.3789 0.3789 0.9254 -367.9973 388.7251)" class="st85" width="5.76" height="128.75"/>
		<linearGradient id="SVGID_68_" gradientUnits="userSpaceOnUse" x1="687.7719" y1="1135.9012" x2="785.1603" y2="1072.6565">
			<stop  offset="0.0997" style="stop-color:#ED6A30"/>
			<stop  offset="0.8832" style="stop-color:#A21A43"/>
		</linearGradient>
		<polygon class="st86" points="689.79,1138.88 686.59,1134.09 783.14,1069.68 786.34,1074.47 		"/>
		
			<rect x="357.82" y="1021.07" transform="matrix(0.9405 0.3398 -0.3398 0.9405 378.7805 -59.9887)" class="st41" width="5.76" height="61.2"/>
		<linearGradient id="SVGID_69_" gradientUnits="userSpaceOnUse" x1="822.4606" y1="721.8201" x2="916.6951" y2="708.5764">
			<stop  offset="0.1512" style="stop-color:#E61A3C"/>
			<stop  offset="0.8866" style="stop-color:#4C9F38"/>
		</linearGradient>
		<polygon class="st87" points="822.83,724.47 822.06,718.76 916.32,705.93 917.1,711.64 		"/>
	</g>
	<g id="points_1_">
		<circle class="st15" cx="138.35" cy="807.46" r="11.88"/>
		<circle class="st15" cx="329.85" cy="807.46" r="11.88"/>
		<circle class="st15" cx="364.4" cy="741.23" r="11.88"/>
		<circle class="st13" cx="416.95" cy="777.22" r="11.88"/>
		<circle class="st13" cx="352.88" cy="880.89" r="11.88"/>
		<circle class="st41" cx="113.88" cy="1170.28" r="11.88"/>
		<circle class="st10" cx="614.93" cy="1176.04" r="11.88"/>
		<circle class="st10" cx="617.8" cy="996.07" r="11.88"/>
		<circle class="st10" cx="466.63" cy="1001.83" r="11.88"/>
		<circle class="st10" cx="590.45" cy="868.65" r="11.88"/>
		<circle class="st13" cx="614.21" cy="741.23" r="11.88"/>
		<circle class="st7" cx="563.09" cy="625.32" r="11.88"/>
		<circle class="st7" cx="461.59" cy="558.37" r="11.88"/>
		<circle class="st26" cx="340.65" cy="550.45" r="11.88"/>
		<circle class="st21" cx="223.3" cy="594.37" r="11.88"/>
		<circle class="st16" cx="162.83" cy="675.72" r="11.88"/>
		<circle class="st16" cx="246.34" cy="705.23" r="11.88"/>
		<circle class="st26" cx="450.07" cy="625.32" r="11.88"/>
		<circle class="st21" cx="352.88" cy="682.2" r="11.88"/>
		<circle class="st7" cx="531.42" cy="707.39" r="11.88"/>
		<circle class="st13" cx="478.87" cy="788.74" r="11.88"/>
		<circle class="st13" cx="504.06" cy="875.85" r="11.88"/>
		<circle class="st41" cx="393.2" cy="947.12" r="11.88"/>
		<circle class="st41" cx="372.32" cy="1024.87" r="11.88"/>
		<circle class="st10" cx="529.26" cy="1081.74" r="11.88"/>
		<circle class="st41" cx="352.88" cy="1075.26" r="11.88"/>
		<circle class="st57" cx="726.51" cy="921.92" r="11.88"/>
		<circle class="st78" cx="909.36" cy="904.64" r="11.88"/>
		<circle class="st85" cx="835.93" cy="1006.87" r="11.88"/>
		<circle class="st57" cx="714.27" cy="970.87" r="11.88"/>
		<circle class="st57" cx="690.51" cy="1134.29" r="11.88"/>
		<circle class="st85" cx="829.45" cy="1186.12" r="11.88"/>
		<circle class="st79" cx="964.79" cy="1186.12" r="11.88"/>
		<circle class="st53" cx="1097.98" cy="1145.81" r="11.88"/>
		<circle class="st53" cx="1172.84" cy="1048.62" r="11.88"/>
		<circle class="st78" cx="1190.12" cy="942.08" r="11.88"/>
		<circle class="st50" cx="1160.61" cy="842.73" r="11.88"/>
		<circle class="st50" cx="1100.85" cy="782.26" r="11.88"/>
		<circle class="st50" cx="990.71" cy="758.5" r="11.88"/>
		<circle class="st69" cx="902.16" cy="758.5" r="11.88"/>
		<circle class="st47" cx="913.68" cy="710.27" r="11.88"/>
		<circle class="st47" cx="1136.85" cy="722.51" r="11.88"/>
		<circle class="st65" cx="1144.05" cy="556.93" r="11.88"/>
		<circle class="st69" cx="780.5" cy="561.25" r="11.88"/>
		<circle class="st85" cx="782.66" cy="1073.1" r="11.88"/>
		<circle class="st79" cx="897.84" cy="1127.81" r="11.88"/>
		<circle class="st79" cx="982.79" cy="1070.22" r="11.88"/>
		<circle class="st53" cx="1077.82" cy="1048.62" r="11.88"/>
		<circle class="st50" cx="971.27" cy="825.45" r="11.88"/>
		<circle class="st69" cx="824.41" cy="842.73" r="11.88"/>
		<circle class="st69" cx="820.82" cy="722.51" r="11.88"/>
		<circle class="st65" cx="878.41" cy="636.12" r="11.88"/>
		<circle class="st47" cx="1036.78" cy="636.12" r="11.88"/>
	</g>
</g>
<g id="Слой_4">
	<g id="ans_1_">
		<path class="st88" d="M1283.1,768.34v250.03h-81.2v-40.6c-11.71,17.33-24.77,30.04-39.19,38.12
			c-14.42,8.08-31.28,12.13-50.56,12.13c-33.46,0-60.08-12.21-79.86-36.64c-9.72-12.05-17.14-26.24-22.25-42.58
			c-5.11-16.34-7.66-34.74-7.66-55.21c0-40.93,10.47-73.36,31.4-97.29c20.93-23.93,48.96-35.9,84.07-35.9
			c18.79,0,34.94,4.06,48.46,12.17c13.68,7.79,25.39,20.13,35.11,37.02v-41.27H1283.1z M1205.38,893.24
			c0-19.77-5.19-35.08-15.57-45.96c-10.54-11.53-24.71-17.29-42.49-17.29c-17.79,0-31.79,5.6-42,16.8
			c-10.54,11.53-15.81,27.02-15.81,46.45c0,19.6,5.27,35,15.81,46.2c10.05,11.04,24.04,16.56,42,16.56
			c17.79,0,31.91-5.52,42.37-16.55C1200.15,928.4,1205.38,913,1205.38,893.24z"/>
		<path class="st88" d="M1349.69,1018.38V768.34h80.71v50.75c11.38-19.8,24.89-34.66,40.56-44.56
			c15.17-9.41,33.55-14.11,55.15-14.11c16.32,0,30.83,2.48,43.53,7.43c12.58,5.61,22.76,13.21,30.54,22.78
			c7.11,9.57,11.83,19.72,14.15,30.45c2.81,13.7,4.22,31.77,4.22,54.22v143.09h-88.63V884.45c0-20.3-3.21-34.82-9.63-43.57
			c-6.42-9.07-16.88-13.62-31.36-13.62c-18.11,0-31.44,6.77-40,20.3c-8.39,13.53-12.59,35.49-12.59,65.85v104.96H1349.69z"/>
		<path class="st88" d="M1657.41,997.58l18.32-67.34c12.87,11.4,27.07,19.98,42.58,25.76c15.35,6.1,30.86,9.14,46.54,9.14
			c11.22,0,19.64-1.89,25.25-5.68c5.77-3.46,8.66-8.49,8.66-15.08c0-11.04-11.63-19.27-34.91-24.71c-8.09-1.81-14.2-3.38-18.32-4.7
			c-26.9-7.93-45.96-17.58-57.19-28.98c-12.22-11.72-18.32-26.92-18.32-45.58c0-24.11,9.16-43.51,27.48-58.21
			c17.66-14.53,42.33-21.8,74.02-21.8c15.35,0,31.69,1.83,49.02,5.47c14.52,2.99,31.44,8.78,50.75,17.4l-18.32,60.8
			c-11.88-8.09-23.85-14.12-35.9-18.08c-11.39-4.12-23.36-6.18-35.9-6.18c-10.24,0-17.91,1.57-23.02,4.7
			c-4.95,2.97-7.43,7.5-7.43,13.59c0,8.57,11.64,15.98,34.91,22.24c7.59,2.31,11.47,3.46,11.64,3.46
			c30.36,8.57,51.65,18.71,63.87,30.42c11.88,12.37,17.82,28.44,17.82,48.22c0,25.56-9.82,46.17-29.46,61.83
			c-20.14,15.82-46.13,23.74-77.98,23.74c-22.12,0-42.46-2.52-61.02-7.55C1691.94,1015.45,1674.24,1007.82,1657.41,997.58z"/>
	</g>
	<g id="top-lines_1_">
		<linearGradient id="SVGID_70_" gradientUnits="userSpaceOnUse" x1="981.2418" y1="1071.8075" x2="1086.0708" y2="1047.6058">
			<stop  offset="0.1512" style="stop-color:#FBC219"/>
			<stop  offset="0.8557" style="stop-color:#2CBCE0"/>
		</linearGradient>
		<polygon class="st89" points="981.8,1074.23 980.55,1068.61 1085.51,1045.19 1086.77,1050.81 		"/>
		<linearGradient id="SVGID_71_" gradientUnits="userSpaceOnUse" x1="952.8339" y1="1016.1726" x2="1075.0774" y2="1048.9277">
			<stop  offset="0.11" style="stop-color:#FBC219"/>
			<stop  offset="0.89" style="stop-color:#2CBCE0"/>
		</linearGradient>
		<polygon class="st90" points="1075.72,1046.54 1074.19,1052.09 952.19,1018.56 953.72,1013.01 		"/>
		
			<rect x="1075.19" y="875.29" transform="matrix(0.6408 -0.7677 0.7677 0.6408 -320.2555 1158.7562)" class="st78" width="5.76" height="92.6"/>
		
			<rect x="1031.92" y="940.54" transform="matrix(0.7495 -0.662 0.662 0.7495 -405.1912 936.5287)" class="st53" width="5.76" height="126.18"/>
		<linearGradient id="SVGID_72_" gradientUnits="userSpaceOnUse" x1="1040.8444" y1="895.759" x2="991.8474" y2="761.1411">
			<stop  offset="0.0962" style="stop-color:#E8422F"/>
			<stop  offset="0.8557" style="stop-color:#C51A2E"/>
		</linearGradient>
		<polygon class="st91" points="1044.61,894.29 1039.23,896.35 988.08,762.61 993.46,760.55 		"/>
		<linearGradient id="SVGID_73_" gradientUnits="userSpaceOnUse" x1="991.0714" y1="957.3771" x2="1041.9083" y2="892.3088">
			<stop  offset="0.2027" style="stop-color:#2CBCE0"/>
			<stop  offset="0.8625" style="stop-color:#E8422F"/>
		</linearGradient>
		<polygon class="st92" points="993.67,959.34 989.1,955.84 1039.31,890.35 1043.88,893.85 		"/>
		<linearGradient id="SVGID_74_" gradientUnits="userSpaceOnUse" x1="1043.1807" y1="894.6088" x2="971.3397" y2="829.9229">
			<stop  offset="0.1375" style="stop-color:#E8422F"/>
			<stop  offset="0.8832" style="stop-color:#C51A2E"/>
		</linearGradient>
		<polygon class="st93" points="1044.68,892.94 1040.77,897.17 969.84,831.59 973.75,827.36 		"/>
		
			<rect x="971.53" y="829.09" transform="matrix(0.0874 0.9962 -0.9962 0.0874 1785.0059 -150.0751)" class="st78" width="5.76" height="140.2"/>
		
			<rect x="963.62" y="1008.58" transform="matrix(0.8866 -0.4626 0.4626 0.8866 -372.5362 565.3698)" class="st79" width="5.76" height="67.38"/>
		
			<linearGradient id="SVGID_75_" gradientUnits="userSpaceOnUse" x1="1075.8396" y1="1052.7195" x2="1116.5693" y2="951.9101" gradientTransform="matrix(0.9964 9.214192e-03 9.214192e-03 0.9766 -5.2951 13.4499)">
			<stop  offset="0.1375" style="stop-color:#2CBCE0"/>
			<stop  offset="0.8625" style="stop-color:#E8422F"/>
		</linearGradient>
		<polygon class="st94" points="1079.48,1052.66 1074.12,1050.55 1112.86,952.16 1118.22,954.27 		"/>
		<linearGradient id="SVGID_76_" gradientUnits="userSpaceOnUse" x1="991.1721" y1="954.3038" x2="1118.4922" y2="954.3038">
			<stop  offset="0.189" style="stop-color:#2CBCE0"/>
			<stop  offset="0.8454" style="stop-color:#E8422F"/>
		</linearGradient>
		<polygon class="st95" points="1118.49,951.42 1118.49,957.18 991.17,957.18 991.17,951.42 		"/>
		<linearGradient id="SVGID_77_" gradientUnits="userSpaceOnUse" x1="1173.3611" y1="1049.9388" x2="1113.2568" y2="953.7518">
			<stop  offset="0.1271" style="stop-color:#2CBCE0"/>
			<stop  offset="0.8763" style="stop-color:#E8422F"/>
		</linearGradient>
		<polygon class="st96" points="1174.9,1048.97 1169.96,1051.93 1111.71,954.72 1116.65,951.76 		"/>
		<linearGradient id="SVGID_78_" gradientUnits="userSpaceOnUse" x1="907.8044" y1="904.8498" x2="997.8488" y2="958.9539">
			<stop  offset="0.1409" style="stop-color:#E8422F"/>
			<stop  offset="0.9003" style="stop-color:#2CBCE0"/>
		</linearGradient>
		<polygon class="st97" points="999.72,955.65 996.84,960.64 905.94,908.15 908.82,903.17 		"/>
	</g>
	<g id="top-points_1_">
		<circle class="st78" cx="1116.69" cy="954.32" r="11.88"/>
		<circle class="st78" cx="1042.54" cy="892.4" r="11.88"/>
		<circle class="st53" cx="994.31" cy="954.32" r="11.88"/>
		<circle class="st79" cx="953.28" cy="1014.79" r="11.88"/>
	</g>
	<g id="ensemble_1_">
		<path class="st88" d="M319.25,1355.15H197.83v2.73c0,8.64,1.65,15.28,4.94,19.94c2.95,4.43,7.83,6.65,14.64,6.65
			c4.08,0,7.55-1.19,10.39-3.58c2.95-2.16,5.28-5.51,6.98-10.06l79.19,5.28c-6.93,18.98-18.9,33.75-35.93,44.31
			c-16.92,10.23-37.58,15.34-61.99,15.34c-13.62,0-26.34-2.1-38.14-6.31c-12.6-4.54-23.27-10.57-32.01-18.07
			c-10.67-9.43-18.79-20.05-24.35-31.87c-5.68-12.27-8.51-24.94-8.51-38.01c0-13.63,2.95-26.42,8.85-38.35
			c2.61-6.02,5.85-11.53,9.71-16.53c3.86-5,8.63-10,14.31-15c9.65-8.29,20.21-14.32,31.67-18.07c11.81-4.2,24.64-6.31,38.49-6.31
			c9.2,0,18.16,0.97,26.91,2.9c8.74,1.93,16.74,4.72,24.01,8.35c14.42,7.39,26.85,18.41,37.29,33.06
			c5.22,7.5,9.02,15.62,11.41,24.37c2.61,9.09,3.92,18.86,3.92,29.31v5.96C319.59,1353.17,319.47,1354.47,319.25,1355.15z
			 M198.51,1316.81l38.82,0.34c-0.57-7.16-2.33-12.33-5.28-15.51c-3.18-3.41-7.83-5.11-13.96-5.11c-5.22,0-9.65,1.7-13.28,5.11
			C201.63,1305.39,199.53,1310.45,198.51,1316.81z"/>
		<path class="st88" d="M346,1429.12V1252.9h83.17v24.37c7.27-10,15.4-17.55,24.38-22.67c9.09-4.88,19.26-7.33,30.51-7.33
			c18.86,0,33.75,5.68,44.65,17.04c10.91,11.82,16.36,27.33,16.36,46.53v118.28h-85.56v-88.96c0-8.29-0.91-14.37-2.73-18.24
			c-1.82-3.18-5-4.77-9.54-4.77c-5.11,0-8.92,1.93-11.42,5.79c-2.62,4.32-3.92,10.05-3.92,17.21v88.96H346z"/>
		<path class="st88" d="M562.11,1416.51l22.67-54.37c9.09,6.14,17.73,11.02,25.91,14.66c8.29,3.18,15,4.77,20.11,4.77
			c4.54,0,8.07-0.91,10.57-2.73c2.27-1.59,3.41-4.03,3.41-7.33c0-4.43-5.11-7.67-15.34-9.71c-3.07-0.68-5.74-1.3-8.01-1.87
			c-16.36-3.75-28.35-9.77-35.96-18.07c-7.61-7.95-11.42-18.52-11.42-31.7c0-18.52,7.78-33.69,23.35-45.51
			c15.56-11.59,35.56-17.38,59.99-17.38c12.72,0,24.6,1.14,35.62,3.41c11.36,2.62,21.93,6.14,31.7,10.57l-20.96,53
			c-8.52-5.68-15.68-9.71-21.47-12.1c-6.48-2.61-11.99-3.92-16.53-3.92c-3.98,0-7.1,0.8-9.37,2.39c-2.39,1.82-3.58,4.03-3.58,6.65
			c0,4.32,6.65,7.95,19.94,10.91c1.13,0.23,2.56,0.54,4.26,0.94c1.7,0.4,2.84,0.66,3.41,0.77c17.27,4.32,29.83,10.23,37.67,17.72
			c8.18,8.18,12.27,18.58,12.27,31.19c0,19.88-7.9,35.9-23.69,48.06c-16.02,12.61-37.1,18.92-63.23,18.92
			c-14.09,0-28.07-1.65-41.93-4.94C588.98,1427.99,575.85,1423.21,562.11,1416.51z"/>
		<path class="st88" d="M949.16,1355.15H827.74v2.73c0,8.64,1.65,15.28,4.94,19.94c2.95,4.43,7.83,6.65,14.64,6.65
			c4.08,0,7.55-1.19,10.39-3.58c2.95-2.16,5.28-5.51,6.98-10.06l79.19,5.28c-6.93,18.98-18.9,33.75-35.93,44.31
			c-16.92,10.23-37.58,15.34-61.99,15.34c-13.62,0-26.34-2.1-38.14-6.31c-12.6-4.54-23.27-10.57-32.01-18.07
			c-10.67-9.43-18.79-20.05-24.35-31.87c-5.68-12.27-8.51-24.94-8.51-38.01c0-13.63,2.95-26.42,8.85-38.35
			c2.61-6.02,5.85-11.53,9.71-16.53c3.86-5,8.63-10,14.31-15c9.65-8.29,20.21-14.32,31.67-18.07c11.81-4.2,24.64-6.31,38.49-6.31
			c9.2,0,18.16,0.97,26.91,2.9c8.74,1.93,16.74,4.72,24.01,8.35c14.42,7.39,26.85,18.41,37.29,33.06
			c5.22,7.5,9.02,15.62,11.41,24.37c2.61,9.09,3.92,18.86,3.92,29.31v5.96C949.5,1353.17,949.38,1354.47,949.16,1355.15z
			 M828.42,1316.81l38.82,0.34c-0.57-7.16-2.33-12.33-5.28-15.51c-3.18-3.41-7.83-5.11-13.96-5.11c-5.22,0-9.65,1.7-13.28,5.11
			C831.54,1305.39,829.44,1310.45,828.42,1316.81z"/>
		<path class="st88" d="M976.08,1429.12V1252.9h81.64v24.71c6.48-10.11,13.92-17.78,22.32-23.01c7.95-4.88,17.15-7.33,27.61-7.33
			c12.27,0,22.61,3.01,31.01,9.03c8.06,6.02,14.71,15.45,19.94,28.29c6.59-12.27,14.83-21.59,24.71-27.95
			c9.32-6.25,20.17-9.37,32.56-9.37c17.27,0,31.08,5.68,41.42,17.04c10.23,11.59,15.34,26.99,15.34,46.19v118.62h-82.66v-88.62
			c0-9.09-0.8-15.17-2.39-18.24c-1.93-3.18-4.77-4.77-8.52-4.77c-4.77,0-8.13,1.82-10.06,5.45c-2.27,3.75-3.41,9.6-3.41,17.55v88.62
			h-81.98v-88.62c0-8.86-0.68-14.94-2.03-18.24c-1.81-3.18-4.68-4.77-8.63-4.77c-4.63,0-8.04,1.85-10.24,5.54
			c-2.2,3.69-3.3,9.52-3.3,17.47v88.62H976.08z"/>
		<path class="st88" d="M1307.91,1164.95h83.85v81.98c0,8.86-0.11,14.89-0.34,18.07c-0.34,6.02-0.8,10.34-1.36,12.95
			c6.93-10,14.94-17.67,24.03-23.01c8.97-4.88,18.97-7.33,30-7.33c20.68,0,37.67,8.64,50.96,25.91
			c13.52,16.93,20.28,39.26,20.28,66.98c0,28.86-6.54,51.87-19.6,69.02c-12.95,17.5-30.17,26.25-51.64,26.25
			c-11.48,0-21.93-2.67-31.36-8.01c-9.77-5.45-18.29-13.63-25.56-24.54v25.91h-79.25V1164.95z M1433.35,1341.52
			c0-7.5-1.99-13.69-5.96-18.58c-4.43-4.66-9.77-6.99-16.02-6.99c-6.48,0-11.76,2.33-15.85,6.99c-4.09,4.54-6.14,10.74-6.14,18.58
			c0,7.61,2.04,13.92,6.14,18.92c3.98,4.89,9.26,7.33,15.85,7.33c6.36,0,11.7-2.44,16.02-7.33
			C1431.36,1355.21,1433.35,1348.91,1433.35,1341.52z"/>
		<path class="st88" d="M1547.2,1429.12v-264.17h85.56v264.17H1547.2z"/>
		<path class="st88" d="M1869.65,1355.15h-121.42v2.73c0,8.64,1.65,15.28,4.94,19.94c2.95,4.43,7.83,6.65,14.64,6.65
			c4.08,0,7.55-1.19,10.39-3.58c2.95-2.16,5.28-5.51,6.98-10.06l79.19,5.28c-6.93,18.98-18.9,33.75-35.93,44.31
			c-16.92,10.23-37.58,15.34-61.99,15.34c-13.62,0-26.34-2.1-38.14-6.31c-12.6-4.54-23.27-10.57-32.01-18.07
			c-10.67-9.43-18.79-20.05-24.35-31.87c-5.68-12.27-8.51-24.94-8.51-38.01c0-13.63,2.95-26.42,8.85-38.35
			c2.61-6.02,5.85-11.53,9.71-16.53c3.86-5,8.63-10,14.3-15c9.65-8.29,20.21-14.32,31.67-18.07c11.81-4.2,24.63-6.31,38.49-6.31
			c9.2,0,18.16,0.97,26.91,2.9c8.74,1.93,16.75,4.72,24.01,8.35c14.42,7.39,26.85,18.41,37.29,33.06
			c5.22,7.5,9.02,15.62,11.41,24.37c2.61,9.09,3.92,18.86,3.92,29.31v5.96C1869.99,1353.17,1869.88,1354.47,1869.65,1355.15z
			 M1748.92,1316.81l38.82,0.34c-0.57-7.16-2.33-12.33-5.28-15.51c-3.18-3.41-7.83-5.11-13.96-5.11c-5.22,0-9.65,1.7-13.28,5.11
			C1752.04,1305.39,1749.94,1310.45,1748.92,1316.81z"/>
	</g>
</g>
<g id="Слой_5" class="st0">
	<rect x="538.5" y="1246.5" class="st98" width="447" height="447"/>
	<rect x="1011.5" y="1246.5" class="st98" width="447" height="447"/>
	<rect x="65.5" y="1246.5" class="st98" width="447" height="447"/>
	<rect x="1484.5" y="1246.5" class="st98" width="447" height="447"/>
	<g id="fi_4_" class="st1">
		<polygon id="fi_3_" class="st88" points="348.87,1409.87 321.83,1436.91 321.83,1409.87 		"/>
		<polygon id="fi_2_" class="st88" points="349.5,1441.04 349.5,1531.07 321.83,1531.07 321.83,1468.71 		"/>
		<polygon id="fi_1_" class="st88" points="255.57,1437.54 255.57,1456.63 302.1,1456.63 274.43,1484.3 255.57,1484.3 
			255.57,1503.16 227.9,1530.83 227.9,1409.87 306.63,1409.87 306.63,1437.54 		"/>
		<path id="fi" class="st88" d="M394.38,1527.39v-114.47c1.14-0.46,1.95-1.58,1.95-2.89c0-1.72-1.4-3.12-3.12-3.12
			c-0.69,0-1.32,0.22-1.83,0.6l-99.17-57.26c0.08-0.27,0.12-0.56,0.12-0.86c0-1.72-1.4-3.12-3.12-3.12s-3.12,1.4-3.12,3.12
			c0,0.24,0.03,0.46,0.08,0.69v0l-100.08,57.78c-0.5-0.35-1.11-0.55-1.77-0.55c-1.72,0-3.12,1.4-3.12,3.12
			c0,1.59,1.19,2.9,2.73,3.09v114.03c-1.34,0.35-2.32,1.57-2.32,3.02c0,1.72,1.4,3.12,3.12,3.12c0.87,0,1.66-0.36,2.23-0.94
			l99.2,57.27c-0.04,0.19-0.06,0.39-0.06,0.6c0,1.72,1.4,3.12,3.12,3.12s3.12-1.4,3.12-3.12c0-0.26-0.03-0.52-0.09-0.76l99.18-57.27
			c0.57,0.6,1.37,0.97,2.26,0.97c1.72,0,3.12-1.4,3.12-3.12C396.8,1528.95,395.76,1527.71,394.38,1527.39z M391.44,1412.6
			l-25.25,64.71c-0.19-0.04-0.38-0.05-0.58-0.05c-0.86,0-1.63,0.34-2.2,0.9l-48.56-21.59c0.06-0.24,0.09-0.49,0.09-0.75
			c0-0.34-0.05-0.67-0.15-0.97l76.16-42.67C391.1,1412.34,391.27,1412.48,391.44,1412.6z M363.02,1482.09l-87.56,63.73l35.92-86.91
			c0.15,0.02,0.31,0.04,0.47,0.04c0.9,0,1.71-0.38,2.28-0.99l48.5,21.57c-0.08,0.27-0.12,0.56-0.12,0.86
			C362.5,1481.01,362.69,1481.6,363.02,1482.09z M291.42,1351.59l98.96,57.14c-0.18,0.39-0.28,0.84-0.28,1.3
			c0,0.28,0.04,0.54,0.1,0.8l-76.23,42.71c-0.46-0.42-1.04-0.71-1.68-0.8l-21.91-100.45
			C290.77,1352.12,291.12,1351.89,291.42,1351.59z M286.88,1351.47c0.49,0.55,1.17,0.92,1.94,1.02l21.9,100.42
			c-0.53,0.21-1,0.55-1.34,1l-121.94-43.56c-0.01-0.46-0.12-0.9-0.31-1.29L286.88,1351.47z M186.96,1412.08
			c0.04-0.07,0.08-0.14,0.12-0.21l121.68,43.47c-0.02,0.16-0.04,0.32-0.04,0.48c0,1.01,0.48,1.9,1.22,2.47l-36.09,87.34
			c-0.07,0-0.13-0.01-0.2-0.01c-0.32,0-0.63,0.05-0.92,0.14L186.96,1412.08L186.96,1412.08z M185.49,1527.53v-114.22
			c0.11-0.04,0.21-0.09,0.31-0.15l85.59,133.42c-0.25,0.26-0.45,0.56-0.6,0.89l-82.95-16.99
			C187.81,1529.07,186.82,1527.87,185.49,1527.53z M286.83,1588.6l-97.28-56.16l80.98,16.59c0.14,1.59,1.48,2.84,3.11,2.84
			c0.04,0,0.07,0,0.11,0l13.57,36.26C287.14,1588.27,286.98,1588.42,286.83,1588.6z M291.49,1588.48c-0.57-0.61-1.38-0.99-2.28-0.99
			c-0.15,0-0.3,0.01-0.45,0.03l-13.51-36.1c0.89-0.54,1.49-1.5,1.51-2.61l112.41-16.73L291.49,1588.48z M390.57,1530.3
			l-114.17,16.98c-0.03-0.05-0.06-0.11-0.09-0.16l87.89-63.97c0.42,0.22,0.9,0.34,1.41,0.34c0.32,0,0.62-0.05,0.9-0.13l25.07,44.75
			C390.99,1528.66,390.6,1529.43,390.57,1530.3z M392.82,1527.11l-24.97-44.56c0.55-0.56,0.88-1.33,0.88-2.17
			c0-0.97-0.44-1.83-1.13-2.4l25.21-64.63V1527.11z"/>
	</g>
	<g id="auf" class="st1">
		<path class="st88" d="M1059.77,1483.37c0-15.36-0.03-30.71,0.01-46.07c0.03-13.96,10-26.54,23.55-29.83
			c12.09-2.94,25.08,2.46,31.86,13.17c3.56,5.61,5.24,11.73,5.25,18.31c0.02,30.75,0.01,61.51,0.01,92.26
			c0,1.71-0.01,1.72-1.69,1.72c-5.7,0-11.4,0-17.1,0c-1.73,0-1.74,0-1.74-1.79c0-12.61,0-25.22,0-37.82c0-1.86,0-1.86-1.86-1.86
			c-5.42,0-10.85,0-16.27,0c-1.64,0-1.65,0-1.65,1.62c0,12.65,0,25.29,0,37.94c0,1.92,0,1.92-1.97,1.92c-5.42,0-10.85,0-16.27,0
			c-2.13,0-2.14,0-2.14-2.08C1059.77,1515.03,1059.77,1499.2,1059.77,1483.37z M1080.16,1453.08c-0.01,0-0.01,0-0.02,0
			c0,5.14,0,10.28,0,15.43c0,1.59,0.01,1.6,1.55,1.6c5.58,0,11.15-0.03,16.73,0.03c1.2,0.01,1.53-0.36,1.53-1.54
			c-0.04-10.01-0.03-20.02-0.02-30.03c0-0.91-0.08-1.8-0.27-2.69c-1.14-5.18-5.98-8.51-11.16-7.66c-4.72,0.77-8.23,4.66-8.32,9.44
			C1080.09,1442.8,1080.16,1447.94,1080.16,1453.08z"/>
		<path class="st88" d="M1193.6,1455.35c0,15.2,0,30.41,0,45.61c0,8.07-2.33,15.35-7.55,21.55c-5.45,6.48-12.36,10.25-20.92,10.93
			c-12.92,1.02-24.26-7.02-29.32-18.04c-2.15-4.69-3.04-9.64-3.05-14.76c-0.01-30.76-0.01-61.52,0-92.28c0-1.88,0.01-1.88,1.91-1.88
			c5.62,0,11.24,0,16.86,0c1.74,0,1.74,0,1.74,1.79c0,30.88,0.01,61.75-0.01,92.63c0,2.46,0.43,4.76,1.81,6.83
			c3.89,5.83,12,5.9,16.02,0.16c1.46-2.08,1.98-4.37,1.98-6.89c-0.03-25.42-0.02-50.83-0.02-76.25c0-5.58,0-11.16,0-16.73
			c0-1.47,0.07-1.53,1.53-1.53c5.82,0,11.64,0,17.45,0c1.52,0,1.56,0.04,1.56,1.62C1193.6,1423.85,1193.6,1439.6,1193.6,1455.35z"/>
		<path class="st88" d="M1206.27,1483.84c0-15.44-0.01-30.88,0-46.32c0.01-14.8,10.9-27.82,25.45-30.44
			c1.27-0.23,2.56-0.38,3.86-0.38c6.64,0.01,13.29,0.03,19.93-0.02c1.18-0.01,1.57,0.34,1.56,1.54c-0.05,6.09-0.02,12.18-0.02,18.27
			c0,1.45-0.06,1.51-1.55,1.51c-6.17,0-12.34-0.01-18.51,0.01c-5.82,0.01-10.06,4.17-10.15,9.98c-0.05,3.1,0.02,6.21-0.03,9.31
			c-0.02,1.08,0.36,1.42,1.43,1.42c9-0.03,18-0.02,27.01-0.02c1.8,0,1.81,0,1.81,1.85c0,5.93,0,11.86,0,17.8
			c0,1.64-0.02,1.66-1.63,1.66c-9.08,0-18.16,0.02-27.24-0.02c-1.04,0-1.39,0.22-1.39,1.35c0.04,19.88,0.03,39.76,0.03,59.63
			c0,1.94-0.01,1.94-1.98,1.95c-5.62,0-11.24,0-16.86,0c-1.72,0-1.72-0.01-1.72-1.8
			C1206.27,1515.34,1206.27,1499.59,1206.27,1483.84z"/>
		<g>
			<path class="st88" d="M1345.64,1483.15c-2.52,0-5.03,0.03-7.55-0.02c-0.96-0.02-1.54,0.21-2.02,1.16
				c-1.31,2.6-3.57,3.91-6.44,3.73c-2.96-0.18-5.05-1.83-6.09-4.66c-1.33-3.62,0.84-7.69,4.75-8.75c1.11-0.3,1.39-0.79,1.37-1.86
				c-0.05-4.28-0.04-8.56,0-12.85c0.01-0.9-0.11-1.61-1.06-1.99c-0.3-0.12-0.64-0.42-0.75-0.71c-0.41-1.15-1.28-1.23-2.29-1.15
				c-3.56,0.28-7.13,0.45-10.7,0.45c-0.31,0-0.63,0.04-0.94,0.05c-1.16,0.03-1.76,0.47-2.04,1.74c-0.51,2.29-2.07,3.85-4.26,4.69
				c-0.79,0.3-1.08,0.74-1.07,1.57c0.03,3.69,0.04,7.39,0.01,11.08c-0.01,0.93,0.41,1.51,1.06,2.1c1.71,1.54,2.08,2.77,1.43,4.33
				c-0.23,0.56-0.61,1.02-1.06,1.4c-0.7,0.58-0.8,1.29-0.69,2.12c0.47,3.54,0.94,7.08,1.38,10.62c0.1,0.83,0.41,1.24,1.32,1.29
				c3.1,0.17,5.68,2.46,6.18,5.51c0.13,0.75,0.39,1.1,1.14,1.21c3.5,0.48,7,0.99,10.49,1.49c0.55,0.08,0.88-0.17,1.14-0.63
				c0.87-1.53,2.32-1.64,3.81-1.37c1.67,0.3,2.7,1.38,3.12,3.01c0.39,1.5,0.12,2.84-1.21,3.77c-0.64,0.44-0.84,0.98-0.77,1.71
				c0.28,3.28,0.56,6.56,0.83,9.84c0.04,0.43,0.11,0.86,0.11,1.29c-0.02,2.09,0.61,3.91,2.12,5.39c0.39,0.38,0.83,0.61,1.36,0.61
				c4.28-0.04,8.56,0.18,12.84-0.16c0.71-0.06,1.26-0.31,1.79-0.76c0.56-0.49,1.17-0.93,1.81-1.31c1.13-0.67,2.37-0.47,3.15,0.57
				c0.44,0.58,0.87,0.69,1.51,0.49c3.76-1.14,7.6-2.02,11.26-3.48c1.88-0.75,3.21-2.04,3.89-4c1.35-3.9,2.47-7.87,3.66-11.82
				c0.24-0.78,0.2-1.41-0.44-2.02c-0.74-0.71-0.89-1.62-0.57-2.61c0.58-1.75,1.73-2.97,3.45-3.62c1.17-0.44,2.27-0.31,3.08,0.74
				c0.36,0.47,0.73,0.49,1.23,0.35c3.98-1.08,7.98-2.13,11.86-3.52c2.48-0.89,4.22-2.58,4.99-5.12c1.02-3.38,1.98-6.78,2.93-10.19
				c0.36-1.29-0.83-2.62-2.21-2.49c-4.73,0.44-9.45,0.92-14.17,1.37c-0.41,0.04-0.75,0.19-1.05,0.48c-0.39,0.39-0.78,0.77-1.18,1.15
				c-1.53,1.47-3.52,1.58-4.85,0.27c-1.46-1.43-1.65-4.02-0.01-5.25c1.6-1.2,1.68-2.61,1.66-4.29c-0.05-4.44-0.02-8.88,0.02-13.32
				c0.01-0.94-0.24-1.67-0.96-2.28c-0.38-0.33-0.72-0.73-1-1.15c-1.21-1.78-1.06-3.33,0.41-4.63c1.28-1.13,3.34-1.09,4.77,0.08
				c1.73,1.41,2.74,4.55,0.04,6.31c-0.43,0.28-0.64,0.68-0.64,1.19c0.02,5.26-0.19,10.53,0.12,15.78c0.08,1.31,1.87,2.89,3.18,2.79
				c4.65-0.36,9.3-0.78,13.95-1.17c0.08-0.01,0.16-0.02,0.23-0.04c1.04-0.28,2.96-2.65,2.97-3.73c0.02-3.93,0-7.86,0.01-11.79
				c0-0.82-0.33-1.37-1.04-1.83c-1.94-1.26-2.28-3.23-0.82-5.04c0.53-0.66,0.54-1.2,0.33-1.92c-1.05-3.58-2.07-7.17-3.08-10.76
				c-0.21-0.74-0.53-1.36-1.12-1.88c-0.61-0.54-1.12-1.2-1.68-1.81c-0.81-0.89-1.14-1.86-0.51-3.01c0.21-0.37,0.08-0.76,0-1.15
				c-0.1-0.53,0.11-0.92,0.58-1.17c0.43-0.22,0.78-0.03,1.05,0.28c1.47,1.68,3.07,3.26,4.34,5.11c0.27,0.39,0.58,0.92,0.39,1.32
				c-0.82,1.75,0.11,3.31,0.49,4.9c0.64,2.71,1.45,5.38,2.17,8.08c0.23,0.86,0.63,1.53,1.36,2.11c1.9,1.51,2.05,2.9,0.61,4.87
				c-0.47,0.64-0.69,1.27-0.68,2.06c0.02,3.93,0.02,7.86,0,11.79c-0.01,0.8,0.21,1.41,0.79,1.99c1.32,1.35,1.34,3.18-0.16,4.33
				c-1.37,1.06-1.87,2.41-2.26,3.96c-0.78,3.04-1.63,6.07-2.48,9.09c-0.19,0.69-0.33,1.33,0.05,2.04c0.47,0.88,0.07,1.71-0.5,2.39
				c-1.35,1.63-2.75,3.22-4.14,4.83c-0.3,0.35-0.68,0.57-1.14,0.32c-0.53-0.29-0.61-0.76-0.5-1.32c0.26-1.37,0.25-1.38-1.11-0.98
				c-3.73,1.1-7.49,2.13-11.18,3.35c-2.45,0.81-4.27,2.39-5.04,5.02c-1.12,3.88-2.33,7.75-3.52,11.61c-0.13,0.43-0.14,0.82,0,1.26
				c0.67,2.13-1.57,5.46-3.83,5.7c-0.23,0.03-0.54,0.08-0.69-0.04c-1.16-0.89-2.24-0.22-3.32,0.14c-3.1,1.01-6.19,2.06-9.39,2.71
				c-1.08,0.22-1.93,0.74-2.64,1.62c-1.37,1.71-3.1,1.84-4.66,0.34c-1.01-0.97-2.17-0.76-3.33-0.68c-3.57,0.23-7.14,0.33-10.7-0.02
				c-0.6-0.06-1.14-0.04-1.6,0.49c-1.37,1.56-3.35,1.73-4.65,0.14c-1.04-1.28-2.32-1.75-3.77-2.15c-3.1-0.86-6.2-1.77-9.29-2.67
				c-0.73-0.21-1.41-0.33-2.15,0.09c-0.7,0.4-1.37,0.03-1.98-0.35c-1.39-0.88-2.3-2.25-3.36-3.44c-0.72-0.81,0.31-2.38,1.58-2.51
				c1.17-0.12,2.1,0.45,2.75,1.32c1.22,1.63,2.89,2.5,4.77,3.05c2.94,0.86,5.86,1.78,8.89,2.34c1.46,0.27,2.71-0.75,2.59-2.26
				c-0.22-2.77-0.52-5.54-0.77-8.31c-0.15-1.64-0.31-3.28-0.39-4.92c-0.05-0.97-0.62-1.56-1.11-2.32c-1.55-2.37-4.01-2.12-6.24-2.51
				c-2.16-0.38-4.35-0.62-6.53-0.93c-0.8-0.11-1.46-0.14-2,0.75c-1.58,2.64-3.94,3.92-7.04,3.42c-2.83-0.46-4.73-2.19-5.45-4.92
				c-0.77-2.92,0.11-5.46,2.57-7.3c0.67-0.5,0.91-0.96,0.79-1.75c-0.55-3.61-1.02-7.22-1.6-10.82c-0.45-2.79-2.3-4.38-5.14-4.64
				c-3.83-0.36-7.68-0.48-11.47-1.16c-0.58-0.1-1.17-0.07-1.74,0.16c-1.45,0.6-1.74,1.09-1.31,2.59c1,3.51,2.05,7.01,3.03,10.53
				c0.29,1.04,0.83,1.83,1.7,2.45c0.9,0.63,1.48,1.52,1.81,2.55c0.19,0.61,0.21,1.27-0.28,1.78c-0.5,0.52-1.14,0.46-1.76,0.26
				c-1.63-0.51-2.92-1.51-3.89-2.9c-0.49-0.71-0.76-1.48-0.22-2.31c0.32-0.49,0.13-0.99,0-1.48c-1.02-3.71-2.08-7.41-3.05-11.14
				c-0.29-1.11-1.11-1.79-1.75-2.6c-1.38-1.74-1.44-2.68,0-4.34c0.44-0.51,0.46-1.05,0.46-1.64c0-3.26-0.01-6.52,0.01-9.78
				c0-0.82,0.06-1.65,0.12-2.47c0.04-0.49,0.05-0.95-0.41-1.26c-1.12-0.76-1.69-1.76-1.25-3.13c0.48-1.49,1.48-2.5,2.98-2.93
				c1.52-0.44,2.83,0.05,3.41,1.15c0.67,1.27,0.46,3.06-0.81,3.94c-1.35,0.93-1.52,2.09-1.49,3.54c0.07,3.57,0.02,7.15,0.03,10.72
				c0,1.46,1.65,3.5,3.1,3.66c3.98,0.44,7.96,0.8,11.94,1.19c0.19,0.02,0.42-0.06,0.59,0.01c1.95,0.81,3.01-0.64,4.24-1.66
				c0.38-0.31,0.4-0.75,0.4-1.18c0-3.85-0.02-7.7,0.02-11.55c0.01-0.86-0.38-1.22-1.13-1.54c-3.98-1.69-5.56-6.01-3.53-9.67
				c0.96-1.72,2.43-2.91,4.36-3.34c0.83-0.19,1.21-0.49,1.32-1.33c0.52-4.09,1.09-8.16,1.61-12.25c0.14-1.09-1.09-2.07-2.15-1.76
				c-3.88,1.15-7.76,2.31-11.63,3.48c-1.63,0.49-2.72,1.83-4.13,2.68c-0.4,0.24-0.76,0.58-1.19,0.75c-0.7,0.28-1.42,0.2-1.96-0.37
				c-0.52-0.55-0.55-1.21-0.2-1.86c1.1-2.03,2.83-3.54,4.4-5.18c0.29-0.3,0.72-0.31,1.11-0.11c0.39,0.21,0.48,0.57,0.46,1
				c-0.05,1.08,0.25,1.35,1.15,0.94c3.71-1.68,7.73-2.39,11.54-3.72c2.23-0.78,4.01-2.25,4.74-4.65c1.15-3.8,2.28-7.6,3.44-11.39
				c0.19-0.63,0.29-1.18-0.13-1.78c-0.45-0.65-0.34-1.34,0.1-1.98c0.85-1.24,1.93-2.29,3.05-3.26c0.74-0.64,1.67-0.81,2.46-0.07
				c0.78,0.72,0.83,1.68,0.14,2.44c-3.69,4.06-4.29,9.42-6.05,14.29c-0.15,0.41-0.22,0.84-0.38,1.24c-0.44,1.04-0.51,1.87,0.39,2.84
				c1.19,1.27,1.01,3.16-0.51,4.27c-1.67,1.22-2.07,2.82-2.31,4.64c-0.43,3.31-0.9,6.61-1.39,9.91c-0.12,0.84,0.03,1.41,0.87,1.81
				c1.19,0.57,2.12,1.5,2.78,2.64c0.32,0.55,0.73,0.75,1.34,0.75c3.18,0.04,6.35-0.27,9.53-0.39c1.26-0.04,2.51-0.11,3.77-0.09
				c0.87,0.01,1.53-0.21,1.89-1.07c0.17-0.4,0.46-0.77,0.86-0.94c1.09-0.47,1.27-1.33,1.3-2.4c0.11-3.68,0.27-7.37,0.45-11.05
				c0.04-0.81-0.25-1.27-1-1.64c-2.9-1.41-4.2-3.77-3.98-6.97c0.18-2.57,2.15-4.92,4.97-5.82c0.68-0.22,0.94-0.56,1-1.23
				c0.2-2.11,0.44-4.21,0.67-6.32c0.04-0.39,0.04-0.8,0.17-1.16c0.36-0.98,0.2-1.72-0.56-2.53c-1.12-1.21-0.81-3.29,0.49-4.58
				c1.37-1.35,3.26-1.52,4.66-0.25c0.63,0.57,1.25,0.7,2.02,0.69c3.46-0.02,6.92-0.02,10.38-0.01c0.66,0,1.33,0.04,1.99,0.14
				c0.51,0.07,0.89-0.03,1.26-0.41c1.32-1.38,3.19-1.54,4.64-0.44c1.61,1.23,2.12,2.94,0.93,4.51c-0.96,1.28-0.82,2.55-0.67,3.88
				c0.31,2.81,0.71,5.6,1.07,8.4c0.2,1.53,2.01,3.54,3.56,3.78c3.8,0.57,7.62,1.06,11.43,1.59c0.97,0.13,1.94,0.27,2.92,0.41
				c1.57,0.23,2.51-0.8,2.07-2.29c-1.12-3.76-2.28-7.52-3.38-11.29c-0.45-1.56-1.53-2.62-2.65-3.68c-0.73-0.69-1.15-1.48-0.96-2.52
				c0.27-1.5,1.74-2.17,3.01-1.33c1.41,0.93,2.46,2.18,3.15,3.73c0.2,0.44,0.39,0.98,0.13,1.36c-0.63,0.93-0.26,1.8,0,2.69
				c1.11,3.81,2.24,7.61,3.34,11.42c0.21,0.72,0.65,1.24,1.14,1.75c0.82,0.86,1.56,1.77,2.02,2.88c0.38,0.92,0.31,1.8-0.41,2.51
				c-0.73,0.73-1.64,0.94-2.6,0.51c-0.64-0.29-1.3-0.6-1.83-1.05c-1.64-1.38-3.48-2.1-5.64-2.33c-3.9-0.41-7.78-1.04-11.66-1.61
				c-0.67-0.1-1.08,0.02-1.47,0.61c-0.78,1.2-1.95,1.67-3.36,1.4c-1.86-0.36-3.14-1.44-3.6-3.3c-0.36-1.46,0.05-2.78,1.3-3.65
				c0.73-0.51,0.87-1,0.78-1.85c-0.26-2.38-0.41-4.76-0.53-7.15c-0.11-2.25-1.24-3.99-2.62-5.61c-0.29-0.34-0.75-0.41-1.19-0.45
				c-4.32-0.38-8.63,0.07-12.94,0.04c-0.9-0.01-3.04,1.95-3.22,2.83c-0.57,2.81-0.87,5.65-1.03,8.51c-0.05,0.95,0.29,1.48,1.16,1.92
				c2.55,1.3,3.86,3.51,3.72,6.32c-0.15,3.01-1.76,5.17-4.65,6.19c-0.91,0.32-1.17,0.8-1.2,1.71c-0.15,3.8-0.38,7.6-0.61,11.39
				c-0.03,0.58,0.14,0.94,0.63,1.27c2.82,1.9,2.85,5.2,0.06,7.04c-0.53,0.35-0.76,0.74-0.76,1.34c0,4.83,0,9.66-0.01,14.5
				c0,0.62,0.24,1.02,0.78,1.33c1.78,1.04,2.98,2.54,3.45,4.56c0.13,0.57,0.45,0.77,1,0.77c5.35,0,10.69,0.01,16.04,0.02
				c0.52,0,0.89-0.19,1.16-0.65c0.43-0.72,1.03-1.29,1.74-1.72c0.46-0.28,0.62-0.68,0.61-1.18c0-5.22-0.01-10.45,0.01-15.67
				c0-0.85-0.53-1.12-1.13-1.46c-4.72-2.69-4.82-9.24-0.17-11.9c2.43-1.39,4.9-1.33,7.24,0.24c2.33,1.57,3.37,3.84,2.98,6.6
				c-0.39,2.82-2.08,4.74-4.78,5.58c-1.03,0.32-1.36,0.75-1.34,1.79c0.05,4.83,0.03,9.66,0.02,14.5c0,0.66,0.12,1.18,0.7,1.63
				c2.53,1.95,2.52,4.95-0.05,6.81c-0.6,0.44-0.85,0.89-0.96,1.61c-0.3,1.91-0.2,3.84-0.32,5.76c-0.22,3.4-0.24,6.82-0.53,10.22
				c-0.05,0.61,0.18,1.01,0.69,1.38c1.63,1.16,2.02,2.59,1.27,4.29c-0.82,1.85-2.82,3.1-4.48,2.8c-1.48-0.27-2.51-1.29-2.82-2.81
				c-0.27-1.38,0.47-3.16,1.7-3.87c0.54-0.32,0.98-0.62,1.01-1.31c0.23-5.37,0.46-10.74,0.72-16.1c0.04-0.89-0.1-1.63-1.02-2.03
				c-0.17-0.07-0.36-0.23-0.43-0.39c-0.74-1.62-2.14-1.51-3.57-1.48C1349.89,1483.2,1347.76,1483.16,1345.64,1483.15
				C1345.64,1483.16,1345.64,1483.16,1345.64,1483.15z"/>
		</g>
	</g>
	<g id="utm" class="st1">
		<path class="st88" d="M614.14,1454.04c-2.23-1.29-4.33-2.48-6.4-3.71c-1.12-0.66-1.25-1.33-0.53-2.46
			c3.08-4.86,6.91-9.04,11.46-12.55c6.5-5.01,13.82-8.2,21.92-9.5c2.54-0.41,5.15-0.59,7.72-0.6c12.26-0.06,24.52-0.03,36.78-0.03
			c1.85,0,2.19,0.34,2.19,2.17c0,23.56,0,47.12,0,70.69c0,13.94,9.85,24.86,23.69,26.24c12.5,1.24,24.79-7.97,27.14-20.42
			c0.34-1.81,0.52-3.68,0.53-5.52c0.04-18.25,0.02-36.51,0.03-54.76c0-5.44,0.03-10.87,0.06-16.31c0.01-1.67,0.41-2.08,2.03-2.08
			c9.45-0.01,18.91-0.01,28.36,0c1.52,0,2.04,0.49,2.05,1.99c0.02,2.32,0,4.65,0,7.08c-0.73,0.04-1.37,0.09-2,0.09
			c-6.22,0.01-12.43,0-18.65,0c-2.26,0-2.67,0.42-2.67,2.76c0,20.33-0.01,40.65,0,60.98c0.01,15.39-9.24,28.58-23.61,33.59
			c-15.81,5.52-33.86-1.51-41.83-16.28c-2.82-5.22-4.22-10.76-4.21-16.7c0.04-20.45,0.02-40.91,0.02-61.36
			c0-2.61-0.38-2.98-2.99-2.98c-9.02,0-18.05-0.14-27.07,0.02c-14.37,0.26-25.41,6.68-33.34,18.58
			C614.63,1453.29,614.42,1453.61,614.14,1454.04z"/>
		<path class="st88" d="M771.15,1439.24c0,2.56,0.04,5.05-0.02,7.55c-0.03,1.2-0.93,1.56-1.98,1.57c-1.9,0.02-3.8,0.02-5.7,0.03
			c-0.47,0-0.94,0-1.67,0c0,1.13,0,2.15,0,3.16c0,15.75,0,31.5,0,47.25c0,20.78-13.61,39.79-33.42,46.01
			c-18.65,5.86-35.36,1.92-49.54-11.46c-8.33-7.86-13.04-17.79-14.3-29.25c-0.21-1.88-0.3-3.78-0.31-5.68
			c-0.02-15.92-0.02-31.84-0.02-47.77c0-0.72,0-1.44,0-2.26c-0.81,0-1.4,0-2,0c-4.62,0-9.24-0.02-13.86,0
			c-8.46,0.03-15.21,3.55-20.39,10.16c-1.88,2.39-1.84,2.42-4.42,0.93c-1.71-0.99-3.42-1.98-5.2-3.02c2.24-3.85,5.03-7.08,8.45-9.77
			c6.59-5.17,14.09-7.59,22.45-7.53c7.47,0.05,14.94,0.01,22.4,0.01c0.51,0,1.02,0,1.7,0c0,0.64,0,1.19,0,1.73
			c0,19.37,0,38.75,0,58.12c0,17.04,12,32.88,28.42,37.54c20.96,5.95,42.15-5.27,48.97-25.95c1.25-3.78,1.87-7.67,1.87-11.67
			c-0.01-19.46,0-38.92,0.01-58.38c0-0.42,0-0.84,0-1.33C758.84,1439.24,764.94,1439.24,771.15,1439.24z"/>
		<path class="st88" d="M875.12,1392.6c-14.2,35.95-28.32,71.72-42.56,107.79c-14.26-36.09-28.39-71.88-42.58-107.79
			c3.02,0,5.86,0.01,8.71-0.01c1.1-0.01,1.44,0.78,1.76,1.6c2.34,5.93,4.69,11.85,7.03,17.78c8.14,20.61,16.27,41.23,24.41,61.84
			c0.16,0.39,0.38,0.76,0.71,1.4c0.5-1.19,0.92-2.16,1.31-3.14c9.54-24.18,19.07-48.37,28.61-72.55c0.74-1.88,1.51-3.75,2.25-5.63
			c0.31-0.79,0.77-1.3,1.7-1.3C869.26,1392.62,872.06,1392.6,875.12,1392.6z"/>
		<path class="st88" d="M790.01,1405.8c13.63,34.49,27.12,68.64,40.69,102.98c-3.15,0-6.14,0.06-9.12-0.06
			c-0.47-0.02-1.08-0.81-1.31-1.37c-1.74-4.27-3.43-8.56-5.07-12.86c-0.36-0.94-0.8-1.33-1.87-1.32c-4.31,0.07-8.63,0.06-12.95,0.01
			c-1.04-0.01-1.32,0.32-1.3,1.33c0.05,4.05,0.03,8.11,0.01,12.16c-0.01,1.74-0.41,2.13-2.13,2.14c-2.28,0.01-4.57,0-6.96,0
			C790.01,1474.56,790.01,1440.37,790.01,1405.8z M799.11,1488.68c4.6,0,9.06,0,13.73,0c-0.59-1.5-1.09-2.86-1.68-4.17
			c-0.12-0.26-0.59-0.52-0.9-0.52c-3.41-0.04-6.82-0.05-10.23,0.01c-0.31,0.01-0.85,0.54-0.88,0.87
			C799.04,1486.07,799.11,1487.28,799.11,1488.68z M799.52,1454.93c-0.12,0.02-0.23,0.05-0.35,0.07c0,4.97,0,9.95,0,15.03
			c2.1,0,4.13,0,6.31,0C803.47,1464.93,801.49,1459.93,799.52,1454.93z M809.15,1479.4c-0.61-1.58-1.09-2.95-1.7-4.26
			c-0.14-0.3-0.76-0.5-1.17-0.52c-1.85-0.06-3.7,0.05-5.54-0.06c-1.32-0.08-1.69,0.36-1.66,1.67c0.08,3.16,0.02,3.16,3.19,3.16
			C804.48,1479.4,806.7,1479.4,809.15,1479.4z"/>
		<path class="st88" d="M834.38,1508.81c13.54-34.27,27.01-68.35,40.47-102.43c0.06,0.02,0.12,0.03,0.18,0.05
			c0,34.06,0,68.11,0,102.29c-0.39,0.03-0.75,0.08-1.12,0.09c-1.94,0.01-3.88,0.01-5.83,0.01c-1.74,0-2.06-0.31-2.06-2.02
			c-0.01-3.93,0-7.85,0-11.78c0-1.81,0-1.81-1.84-1.81c-4.19,0-8.37,0.03-12.56-0.02c-0.88-0.01-1.31,0.27-1.62,1.08
			c-1.65,4.29-3.37,8.56-5,12.86c-0.46,1.21-1.11,1.78-2.48,1.73C839.88,1508.75,837.24,1508.81,834.38,1508.81z M852.23,1488.73
			c0.66,0,1.07,0,1.49,0c2.97,0,5.95,0.01,8.92,0.01c3.5,0,3.48,0,3.38-3.52c-0.02-0.86-0.26-1.23-1.18-1.22
			c-3.27,0.03-6.55-0.02-9.82,0.01c-0.37,0-0.93,0.21-1.06,0.48C853.33,1485.8,852.84,1487.17,852.23,1488.73z M859.56,1470.17
			c1.9,0,3.49-0.06,5.07,0.02c1.09,0.05,1.42-0.36,1.41-1.41c-0.04-4.23-0.02-8.46-0.03-12.69c0-0.39-0.08-0.78-0.12-1.17
			c-0.1-0.01-0.19-0.01-0.29-0.02C863.62,1459.88,861.66,1464.86,859.56,1470.17z M855.91,1479.41c2.4,0,4.53,0,6.66,0
			c3.8,0,3.9-0.09,3.39-3.94c-0.04-0.32-0.61-0.82-0.94-0.83c-2.1-0.08-4.21-0.06-6.32-0.02c-0.36,0.01-0.92,0.23-1.05,0.51
			C857.05,1476.44,856.56,1477.8,855.91,1479.41z"/>
		<path class="st88" d="M879.99,1392.61c2.58,0,5.12-0.03,7.66,0.02c0.89,0.02,1.41,0.57,1.41,1.51c0,0.47,0,0.95,0,1.42
			c0,24.34,0,48.68,0,73.02c0,0.46,0,0.93,0,1.6c0.86,0,1.58,0,2.3,0c7.77,0,15.54,0,23.31,0c2.04,0,2.32,0.27,2.32,2.16
			c0,1.9-0.38,2.26-2.4,2.26c-8.03,0-16.06,0.02-24.09-0.02c-1.12-0.01-1.49,0.28-1.47,1.44c0.05,3.41,0,3.4,3.37,3.4
			c7.38,0,14.76-0.01,22.15,0c2.22,0,3.26,1.58,2.36,3.64c-0.37,0.84-1.11,0.93-1.95,0.92c-8.03-0.02-16.06-0.02-24.09-0.02
			c-1.8,0-1.8,0-1.81,1.85c-0.01,2.97-0.01,2.98,2.97,2.98c7.6,0,15.2,0,22.79,0c1.77,0,2.16,0.38,2.16,2.08
			c0,1.92-0.37,2.33-2.2,2.33c-7.73,0-15.46,0-23.18,0c-0.77,0-1.55,0-2.48,0c-0.03,0.6-0.07,1.1-0.07,1.6
			c-0.01,4.01,0,8.03,0,12.04c0,1.6-0.36,1.97-1.98,1.98c-2.33,0.01-4.65,0-7.1,0C879.99,1470.07,879.99,1431.39,879.99,1392.61z"/>
		<path class="st88" d="M710.47,1508.81c-2.56,0-5.01,0.03-7.47-0.01c-1.16-0.02-1.62-0.63-1.62-2.01c-0.01-3.97,0-7.94,0-11.91
			c0-0.51,0-1.01,0-1.68c-2.39,0-4.62,0-6.85,0c-2.07,0-3.23-1.93-2.14-3.69c0.26-0.42,1.08-0.68,1.65-0.7
			c2.37-0.08,4.74-0.03,7.3-0.03c0-1.49,0.04-2.9-0.04-4.3c-0.01-0.19-0.63-0.5-0.97-0.5c-2.07-0.05-4.14-0.01-6.22-0.02
			c-1.6-0.01-1.89-0.3-1.91-1.88c-0.03-2.42,0.21-2.67,2.62-2.67c2.11,0,4.22,0,6.53,0c0-1.48,0.05-2.84-0.05-4.2
			c-0.02-0.23-0.65-0.57-1.01-0.58c-2.07-0.06-4.14-0.02-6.22-0.04c-1.58-0.01-1.89-0.42-1.88-2.34c0-1.75,0.28-2.06,1.87-2.07
			c2.07-0.01,4.14-0.03,6.22,0c0.84,0.02,1.1-0.28,1.1-1.13c-0.02-17.39-0.01-34.78-0.02-52.17c0-0.3-0.05-0.6-0.09-1.1
			c-0.51,0-1.01,0-1.5,0c-11.09,0-22.19,0-33.28,0c-2,0-2.29-0.3-2.29-2.34c0-2.24,0-4.48,0-6.8c15.45,0,30.8,0,46.26,0
			C710.47,1440.62,710.47,1474.63,710.47,1508.81z"/>
		<path class="st88" d="M724.68,1470.17c2.43,0,4.76,0,7.08,0c1.69,0,2.1,0.39,2.11,2.01c0.01,1.97-0.36,2.41-2.12,2.42
			c-1.94,0.01-3.89,0.03-5.83-0.01c-0.96-0.02-1.45,0.22-1.36,1.31c0.09,1.1,0.02,2.22,0.02,3.51c2.3,0,4.44,0.07,6.58-0.02
			c2.95-0.12,2.89,1.11,2.58,3.54c-0.05,0.4-0.98,0.95-1.53,0.98c-2.02,0.12-4.06,0.13-6.08,0.02c-1.29-0.07-1.7,0.39-1.57,1.61
			c0.08,0.68,0.06,1.38,0,2.07c-0.08,0.93,0.33,1.19,1.2,1.18c2.07-0.03,4.14-0.01,6.22,0.01c1.46,0.01,1.87,0.45,1.89,1.97
			c0.02,1.86-0.36,2.4-1.86,2.42c-2.03,0.03-4.06,0.07-6.09-0.01c-1.11-0.04-1.37,0.38-1.36,1.42c0.05,4.06,0.03,8.11,0.02,12.17
			c0,1.67-0.38,2.04-2.06,2.05c-2.32,0.01-4.64,0-7.03,0c0-34.11,0-68.1,0-102.18c15.4,0,30.79,0,46.32,0
			c0,2.59,0.06,5.16-0.03,7.73c-0.04,1.19-0.98,1.44-2.05,1.43c-8.76-0.02-17.53-0.01-26.29-0.01c-2.88,0-5.77,0-8.76,0
			C724.68,1433.92,724.68,1451.94,724.68,1470.17z"/>
		<path class="st88" d="M775.97,1470.18c0-0.7,0-1.2,0-1.71c0-24.38,0-48.76,0-73.13c0-2.5,0.24-2.73,2.72-2.73
			c2.07,0.01,4.14,0,6.32,0c0,38.73,0,77.4,0,116.19c-2.6,0-5.18,0.06-7.76-0.03c-1.08-0.04-1.3-0.92-1.3-1.89
			c0.02-3.97,0.01-7.94,0.01-11.91c0-0.51,0-1.03,0-1.77c-1.07,0-2.04,0-3.01,0c-1.42,0-2.85,0.01-4.27-0.01
			c-1.56-0.02-1.96-0.46-1.95-2.04c0.02-2.06,0.27-2.36,1.98-2.37c2.36,0,4.73,0,7.24,0c0-1.46,0.06-2.75-0.05-4.03
			c-0.02-0.29-0.63-0.76-0.97-0.77c-2.16-0.07-4.32-0.07-6.47-0.02c-1.22,0.03-1.68-0.51-1.72-1.7c-0.08-2.55,0.17-2.86,2.7-2.86
			c2.11,0,4.21,0,6.5,0c0-1.49,0.05-2.86-0.05-4.22c-0.02-0.22-0.66-0.56-1.03-0.57c-2.03-0.06-4.06-0.02-6.09-0.03
			c-1.72-0.01-2.03-0.34-2.03-2.06c0-2.03,0.26-2.35,1.99-2.35C771.1,1470.17,773.47,1470.18,775.97,1470.18z"/>
		<path class="st88" d="M761.84,1401.69c-32.55,0-64.99,0-97.58,0c0-2.68-0.06-5.34,0.06-7.99c0.02-0.38,0.83-0.89,1.36-1.05
			c0.59-0.18,1.28-0.04,1.93-0.04c30.6,0,61.21,0,91.81,0c2.01,0,2.41,0.4,2.41,2.41C761.85,1397.21,761.84,1399.4,761.84,1401.69z"
			/>
		<path class="st88" d="M832.62,1425.2c3.97,0,7.93-0.01,11.9,0c1.79,0,2.38,0.83,1.75,2.44c-0.76,1.96-1.5,3.93-2.35,5.86
			c-0.17,0.39-0.78,0.83-1.19,0.84c-6.77,0.05-13.54,0.04-20.3-0.01c-0.42,0-1.05-0.41-1.21-0.8c-0.86-1.97-1.64-3.98-2.38-5.99
			c-0.56-1.51,0.03-2.33,1.64-2.33C824.52,1425.19,828.57,1425.2,832.62,1425.2z"/>
		<path class="st88" d="M917.02,1434.15c-7.73,0-15.3,0-23.02,0c0-2.61-0.05-5.18,0.03-7.74c0.03-1.04,0.89-1.22,1.79-1.22
			c5.26,0.01,10.52,0.01,15.79,0.01c1.25,0,2.5,0,3.75,0c1.05,0,1.64,0.55,1.65,1.57C917.04,1429.18,917.02,1431.59,917.02,1434.15z
			"/>
		<path class="st88" d="M917,1439.26c0,2.54,0.03,5.03-0.02,7.51c-0.02,0.9-0.61,1.39-1.53,1.4c-6.68,0-13.36,0.03-20.04-0.05
			c-0.47-0.01-1.32-0.75-1.34-1.18c-0.13-2.53-0.06-5.06-0.06-7.68C901.68,1439.26,909.28,1439.26,917,1439.26z"/>
		<path class="st88" d="M823.38,1439.21c6.19,0,12.17,0,18.32,0c-1.13,2.84-2.18,5.61-3.35,8.32c-0.17,0.39-0.89,0.76-1.36,0.77
			c-2.97,0.07-5.95,0.07-8.92-0.02c-0.48-0.01-1.2-0.48-1.39-0.92C825.54,1444.74,824.52,1442.06,823.38,1439.21z"/>
		<path class="st88" d="M645.46,1483.96c-3.88,0-7.76,0-11.64,0c-1.88,0-2.14-0.27-2.15-2.18c0-1.97,0.37-2.38,2.14-2.38
			c6.08,0,12.16,0.01,18.23,0.02c1.72,0,3.45-0.08,5.17,0.03c0.69,0.05,1.84,0.42,1.93,0.83c0.22,1.03,0.05,2.18-0.19,3.23
			c-0.06,0.25-0.96,0.44-1.47,0.44C653.48,1483.98,649.47,1483.96,645.46,1483.96C645.46,1483.96,645.46,1483.96,645.46,1483.96z"/>
		<path class="st88" d="M645.6,1488.78c3.88,0,7.76,0,11.63,0c1.86,0,2.11,0.26,2.12,2.2c0.01,1.86-0.31,2.2-2.14,2.21
			c-7.8,0.01-15.6,0.03-23.4-0.03c-0.67,0-1.78-0.39-1.9-0.83c-0.26-0.92-0.13-2.02,0.11-2.98c0.08-0.3,1.01-0.54,1.56-0.55
			C637.58,1488.76,641.59,1488.79,645.6,1488.78z"/>
		<path class="st88" d="M645.46,1470.17c3.96,0,7.93,0,11.89,0c1.73,0,1.98,0.3,1.99,2.21c0.01,1.83-0.32,2.21-2.02,2.21
			c-7.89,0.01-15.77,0.01-23.66,0.01c-1.71,0-2.01-0.37-2-2.36c0.01-1.71,0.34-2.06,2.03-2.06
			C637.62,1470.17,641.54,1470.18,645.46,1470.17C645.46,1470.18,645.46,1470.17,645.46,1470.17z"/>
	</g>
	<g id="pentalog" class="st1">
		<path class="st88" d="M1882.24,1473.97c-0.28,1.22-0.51,2.46-0.85,3.67c-1.36,4.88-4.08,8.94-7.9,12.21
			c-3.19,2.74-6.91,4.54-11.07,5.39c-2.1,0.43-4.21,0.69-6.33,0.5c-1.91-0.17-3.81-0.58-5.7-0.93c-0.19-0.04-0.44-0.4-0.46-0.62
			c-0.12-1.62,0.3-3.17,1.55-4.2c2.04-1.68,4.24-3.15,6.35-4.74c1.66-1.25,3.35-2.49,4.89-3.87c1.4-1.25,2.78-2.58,3.87-4.09
			c1.29-1.79,1-3.69-0.69-5.23c-2.27-2.07-5.12-2.77-7.96-3.52c-1.39-0.37-2.81-0.63-4.4-0.98c0.87-1.21,1.59-2.34,2.43-3.35
			c2.52-3.01,5.64-5.28,9.2-6.92c3.29-1.51,6.7-2.67,10.31-3.15c0.22-0.03,0.55,0.12,0.71,0.29c1.85,1.98,3.19,4.28,4.22,6.77
			c0.84,2.03,1.51,4.11,1.68,6.32c0,0.04,0.09,0.07,0.14,0.1C1882.24,1469.73,1882.24,1471.85,1882.24,1473.97z"/>
		<path class="st88" d="M1786.9,1505.82c0.36-1.87,0.73-3.71,1.07-5.56c0.09-0.49,0.32-0.54,0.76-0.39
			c2.12,0.69,4.21,1.54,6.38,1.96c2.08,0.4,4.23,0.81,6.39,0.3c1.31-0.31,2.67-0.47,3.94-0.89c2.59-0.85,3.88-2.92,4.48-5.42
			c0.3-1.26,0.32-2.59,0.37-3.9c0.06-1.33,0.01-2.66,0.01-4.22c-0.39,0.37-0.66,0.61-0.91,0.87c-2.11,2.19-4.67,3.5-7.68,3.9
			c-4.31,0.58-8.4,0.12-12.06-2.51c-1.85-1.33-3.2-3.05-4.35-4.97c-1.34-2.23-2.22-4.66-2.53-7.19c-0.37-2.94-0.48-5.93-0.38-8.89
			c0.1-2.85,0.65-5.68,1.58-8.41c0.95-2.77,2.34-5.3,4.33-7.43c1.94-2.07,4.39-3.38,7.19-3.95c4.58-0.94,8.84-0.19,12.61,2.64
			c1.09,0.82,1.94,1.94,2.91,2.94c0.3-1.66,0.62-3.42,0.94-5.2c2.12,0,4.17,0,6.34,0c0,0.34,0,0.67,0,0.99
			c0,14.07,0.04,28.14-0.02,42.22c-0.02,3.62-0.92,7.08-3.12,10.05c-1.58,2.14-3.72,3.61-6.18,4.62c-2.68,1.1-5.47,1.41-8.35,1.49
			c-3.62,0.09-7.09-0.49-10.49-1.67C1789.04,1506.8,1787.98,1506.28,1786.9,1505.82z M1810.32,1470.59c0-3.02,0-6.05,0-9.07
			c0-0.24,0.08-0.56-0.04-0.71c-0.97-1.2-1.83-2.56-3.01-3.5c-2.41-1.92-5.24-2.38-8.3-1.89c-2.91,0.46-4.9,2.06-6.27,4.55
			c-2,3.64-2.4,7.64-2.51,11.67c-0.05,1.89,0.18,3.81,0.54,5.67c0.45,2.29,1.24,4.52,2.93,6.23c2.66,2.7,5.98,3.14,9.55,2.53
			c2.41-0.41,4.27-1.74,5.78-3.6c0.83-1.02,1.44-2.08,1.38-3.54C1810.23,1476.16,1810.32,1473.37,1810.32,1470.59z"/>
		<path class="st88" d="M1533.76,1434.93c0.72,0,1.38,0,2.04,0c6.81,0,13.62-0.08,20.43,0.03c4.06,0.07,8.02,0.9,11.43,3.27
			c3.79,2.63,6.12,6.23,6.71,10.87c0.49,3.91,0.22,7.71-1.64,11.26c-1.81,3.45-4.63,5.79-8.21,7.23c-2.26,0.91-4.62,1.42-7.07,1.45
			c-5.22,0.07-10.44,0.14-15.66,0.2c-0.12,0-0.24,0.02-0.32,0.03c0,7.54,0,15.05,0,22.61c-2.56,0-5.09,0-7.69,0
			C1533.76,1472.94,1533.76,1453.99,1533.76,1434.93z M1541.45,1441.28c0,7.26,0,14.41,0,21.62c0.32,0,0.65,0,0.97,0
			c4.48,0,8.96,0.02,13.44-0.01c1.12-0.01,2.27-0.11,3.35-0.37c3.11-0.74,5.28-2.61,6.53-5.58c0.8-1.9,0.9-3.85,0.83-5.87
			c-0.1-2.77-1.15-5.15-3.05-7.07c-1.84-1.86-4.28-2.65-6.85-2.7c-4.63-0.09-9.26-0.02-13.89-0.01
			C1542.33,1441.28,1541.88,1441.28,1541.45,1441.28z"/>
		<path class="st88" d="M1848.27,1493.97c-7.82-2.79-14.3-10.6-15.62-19.1c-0.9-5.77,0.01-11.23,2.83-16.3
			c2.78-5,6.89-8.68,12.17-10.87c10.35-4.29,20.97-1.03,27.07,5.21c-1.54,0-2.95-0.11-4.34,0.03c-1.97,0.2-3.96,0.45-5.88,0.92
			c-3.13,0.76-5.84,2.37-8.02,4.76c-2.16,2.36-4.02,4.93-4.94,8.06c-0.17,0.58-0.52,0.63-1.01,0.59c-2.26-0.19-4.53-0.37-6.79-0.54
			c-1.19-0.09-2.38-0.17-3.61-0.25c0,0.38,0,0.62,0,0.81c3.49,0.66,6.97,1.32,10.46,1.98c-0.34,2.37-0.66,4.66-0.98,6.94
			c0.9,0.12,0.85,0.05,1.04-0.73c0.48-1.91,1.06-3.79,1.68-5.94c3.52,1.18,6.79,2.24,10.04,3.39c0.73,0.26,1.36,0.82,2.01,1.29
			c0.55,0.4,0.65,0.93,0.03,1.32c-1.1,0.68-2.22,1.39-3.41,1.87c-2.34,0.94-4.46,2.17-6.34,3.88c-3.31,3-5.27,6.73-6.19,11.05
			C1848.36,1492.82,1848.34,1493.36,1848.27,1493.97z"/>
		<path class="st88" d="M1692.19,1461.39c-2.5,0-4.97,0-7.5,0c-0.29-2.49,0.54-4.6,2.03-6.49c1.61-2.03,3.65-3.52,6.02-4.58
			c1.82-0.82,3.72-1.28,5.71-1.4c1.11-0.06,2.22-0.24,3.32-0.18c4.36,0.22,8.42,1.33,11.61,4.52c1.76,1.75,2.8,3.95,3.17,6.4
			c0.26,1.74,0.38,3.51,0.38,5.26c0.04,6.99-0.06,13.98,0.04,20.97c0.03,1.98,0.55,3.95,0.86,6.04c-0.84,0-1.85,0-2.85,0
			c-1.48,0-2.97-0.02-4.45,0.01c-0.58,0.01-0.77-0.23-0.84-0.76c-0.24-1.71-0.52-3.42-0.8-5.21c-1.76,2.07-3.66,3.87-6.04,5.1
			c-1.94,1-3.99,1.56-6.2,1.59c-2.73,0.04-5.41-0.13-7.89-1.4c-3.32-1.7-5.29-4.41-5.93-8.08c-0.18-1.05-0.38-2.12-0.36-3.18
			c0.07-4.04,1.61-7.32,5.09-9.61c2.39-1.57,4.97-2.51,7.78-2.96c4.26-0.68,8.54-0.21,12.81-0.35c0.24-0.01,0.47,0,0.83,0
			c-0.13-3.12,0.58-6.28-1.44-9.05c-1.09-1.5-2.58-2.38-4.32-2.72c-2.6-0.5-5.19-0.46-7.64,0.83
			C1693.47,1457.25,1692.33,1458.92,1692.19,1461.39z M1708.97,1472.31c-1.76,0-3.42,0-5.07,0c-2.39,0-4.78-0.07-7.12,0.55
			c-3.62,0.95-6.78,3.8-6.34,8.21c0.18,1.8,1.04,3.3,2.69,4.14c2.39,1.22,4.91,1.09,7.44,0.5c2.35-0.55,4.39-1.7,6.18-3.27
			c1.05-0.92,2.07-2.04,2.18-3.46C1709.1,1476.81,1708.97,1474.63,1708.97,1472.31z"/>
		<path class="st88" d="M1612.87,1472.31c-9.04,0-17.98,0-27.11,0c0.08,1.25-0.01,2.47,0.27,3.6c0.46,1.84,1,3.7,1.8,5.41
			c1.4,3.01,3.9,4.59,7.22,5.02c3.02,0.38,5.96,0.16,8.75-0.96c1.84-0.74,3.53-1.84,5.3-2.79c0.81,1.31,1.76,2.83,2.66,4.38
			c0.11,0.19,0.03,0.67-0.14,0.8c-0.84,0.7-1.67,1.43-2.61,1.97c-2.58,1.48-5.32,2.49-8.33,2.74c-3.71,0.31-7.37,0.36-10.94-0.91
			c-3.89-1.38-6.74-3.97-8.91-7.41c-1.49-2.36-2.39-4.96-2.77-7.66c-0.37-2.6-0.49-5.27-0.38-7.89c0.11-2.64,0.55-5.26,1.57-7.76
			c1.36-3.34,3.42-6.09,6.18-8.42c2.24-1.89,4.82-2.94,7.61-3.48c2.33-0.45,4.7-0.26,7.03,0.2c2.34,0.46,4.58,1.22,6.35,2.87
			c1.25,1.17,2.48,2.42,3.42,3.84c1.42,2.15,2.28,4.62,2.62,7.16c0.3,2.28,0.29,4.6,0.39,6.9
			C1612.9,1470.67,1612.87,1471.43,1612.87,1472.31z M1605.06,1465.96c-0.18-1.44-0.22-2.86-0.55-4.2
			c-0.54-2.16-1.54-4.09-3.49-5.39c-1.74-1.16-3.69-1.37-5.71-1.3c-1.97,0.07-3.66,0.79-5.13,2.09c-1.67,1.48-2.66,3.4-3.38,5.44
			c-0.37,1.05-0.47,2.19-0.71,3.35C1592.51,1465.96,1598.71,1465.96,1605.06,1465.96z"/>
		<path class="st88" d="M1758.84,1492.8c-4.08,0.1-7.8-0.99-11.04-3.39c-3.35-2.49-5.59-5.84-6.86-9.82
			c-0.69-2.18-1.11-4.41-1.1-6.71c0.01-1.79-0.13-3.59,0.02-5.36c0.34-4.24,1.64-8.17,4.18-11.64c1.81-2.46,4.03-4.46,6.89-5.56
			c1.71-0.66,3.55-0.99,5.36-1.36c0.99-0.2,2.03-0.24,3.04-0.21c3.89,0.14,7.57,1.1,10.64,3.56c3.82,3.06,6.21,7.1,7.05,11.93
			c0.42,2.39,0.74,4.84,0.72,7.26c-0.03,4.23-0.81,8.37-2.97,12.08c-2.66,4.57-6.4,7.78-11.78,8.7
			C1761.63,1492.52,1760.23,1492.63,1758.84,1492.8z M1758.76,1455c-0.74,0.09-1.48,0.16-2.21,0.26c-2.77,0.37-4.7,1.99-6.18,4.22
			c-1.84,2.79-2.52,5.97-2.71,9.22c-0.22,3.87,0.02,7.73,1.61,11.37c1.06,2.43,2.59,4.51,5.09,5.58c2.02,0.87,4.15,1.04,6.36,0.69
			c2.4-0.38,4.33-1.52,5.76-3.38c2.41-3.14,3.16-6.86,3.33-10.72c0.11-2.45-0.02-4.9-0.55-7.3c-0.55-2.51-1.53-4.84-3.22-6.8
			C1764.15,1455.94,1761.67,1454.98,1758.76,1455z"/>
		<path class="st88" d="M1625.94,1491.91c-2.64,0-5.15,0-7.71,0c0-14.13,0-28.24,0-42.45c2.15,0,4.29,0,6.42,0
			c0.58,0,0.55,0.38,0.58,0.8c0.12,1.75,0.26,3.49,0.41,5.3c0.67-0.82,1.27-1.62,1.94-2.35c2.12-2.28,4.76-3.75,7.8-4.24
			c3.93-0.64,7.81-0.2,11.2,2.03c2.97,1.95,4.63,4.87,5.36,8.38c0.51,2.46,0.52,4.93,0.51,7.41c0,7.99,0,15.98,0,23.96
			c0,0.36,0,0.72,0,1.13c-2.58,0-5.11,0-7.77,0c0-0.3,0-0.62,0-0.94c0-8.53,0.05-17.07-0.03-25.6c-0.02-2.11-0.23-4.25-1.13-6.24
			c-0.98-2.16-2.8-3.22-4.95-3.62c-2.47-0.47-4.98-0.41-7.4,0.5c-2.25,0.85-3.87,2.44-5.14,4.41c-0.16,0.24-0.1,0.64-0.1,0.97
			c0,9.8,0,19.61,0,29.41C1625.94,1491.12,1625.94,1491.48,1625.94,1491.91z"/>
		<path class="st88" d="M1678.44,1485.83c0.34,1.56,0.72,3.28,1.06,5c0.02,0.12-0.16,0.38-0.3,0.43c-1.34,0.48-2.67,1.19-4.05,1.33
			c-1.97,0.2-3.97,0.17-5.9-0.63c-2.28-0.95-3.95-2.49-4.93-4.73c-0.88-2.01-1.11-4.16-1.11-6.34c-0.01-8.14,0-16.28,0-24.42
			c0-0.3,0-0.6,0-1c-2.23,0-4.42,0-6.66,0c0-2.04,0-3.99,0-6c2.19,0,4.36,0,6.66,0c0-0.38,0-0.7,0-1.02c0-2.72,0.03-5.45-0.02-8.17
			c-0.01-0.82,0.26-1.03,1.04-1.02c2.03,0.05,4.06,0.04,6.08,0c0.68-0.01,0.89,0.21,0.89,0.89c-0.03,3.05-0.01,6.11-0.01,9.26
			c2.66,0,5.27,0,7.94,0c0,2.02,0,3.95,0,5.97c-2.58,0-5.2,0-7.94,0c0,0.42,0,0.74,0,1.06c0,8.5-0.04,17.01,0.02,25.51
			c0.02,2.28,1.31,4.35,4.14,4.17C1676.35,1486.06,1677.37,1485.94,1678.44,1485.83z"/>
		<path class="st88" d="M1725.39,1431.14c2.57,0,5.08,0,7.65,0c0,20.25,0,40.47,0,60.74c-2.53,0-5.06,0-7.65,0
			C1725.39,1471.67,1725.39,1451.45,1725.39,1431.14z"/>
	</g>
</g>
</svg>
