<?xml version="1.0" encoding="utf-8"?>
<!-- Generator: Adobe Illustrator 24.0.0, SVG Export Plug-In . SVG Version: 6.00 Build 0)  -->
<svg version="1.1" id="Слой_1" xmlns="http://www.w3.org/2000/svg" xmlns:xlink="http://www.w3.org/1999/xlink" x="0px" y="0px"
	 viewBox="0 0 2627.42 218.61" style="enable-background:new 0 0 2627.42 218.61;" xml:space="preserve">
<style type="text/css">
	.st0{clip-path:url(#SVGID_2_);fill:#FFFFFF;}
</style>
<g>
	<defs>
		<rect id="SVGID_1_" width="2627.42" height="218.61"/>
	</defs>
	<clipPath id="SVGID_2_">
		<use xlink:href="#SVGID_1_"  style="overflow:visible;"/>
	</clipPath>
	<path class="st0" d="M54.57,106.05c0,3.7-0.66,7.15-1.99,10.36c-1.33,3.14-3.3,6-5.93,8.58c-2.6,2.51-5.58,4.44-8.93,5.79
		c-3.51,1.37-6.98,2.06-10.42,2.06c-3.49,0-6.96-0.69-10.42-2.06c-3.42-1.37-6.37-3.3-8.86-5.79c-2.51-2.39-4.49-5.28-5.93-8.65
		C0.7,113.04,0,109.61,0,106.05c0-3.56,0.7-6.99,2.09-10.29c1.44-3.37,3.42-6.26,5.93-8.65c2.56-2.56,5.51-4.51,8.86-5.86
		c3.25-1.33,6.73-1.99,10.42-1.99c3.69,0,7.19,0.67,10.49,2.01c3.3,1.34,6.25,3.29,8.84,5.84c2.59,2.56,4.57,5.44,5.94,8.65
		C53.9,98.97,54.57,102.4,54.57,106.05 M27.28,121.05c3.84,0,7.05-1.43,9.63-4.29c1.28-1.42,2.22-3.01,2.83-4.78
		c0.6-1.77,0.91-3.74,0.91-5.93c0-4.26-1.27-7.83-3.8-10.71c-2.58-2.86-5.77-4.29-9.56-4.29c-3.88,0-7.08,1.43-9.59,4.29
		c-2.51,2.86-3.77,6.43-3.77,10.71c0,4.44,1.23,8.04,3.7,10.78C20.15,119.64,23.38,121.05,27.28,121.05"/>
	<path class="st0" d="M62.48,131.48V96.25h11.72v8.3c1.23-3.05,2.87-5.31,4.92-6.8c2.12-1.51,4.66-2.27,7.64-2.27
		c0.68,0,1.17,0.02,1.5,0.07c0.26,0.02,0.49,0.04,0.7,0.05s0.48,0.04,0.8,0.09l-1.19,11.3c-0.86-0.28-1.61-0.48-2.23-0.59
		c-0.93-0.09-1.62-0.14-2.06-0.14c-3.02,0-5.36,0.93-7.01,2.79c-1.63,1.84-2.44,4.45-2.44,7.85v14.58H62.48z"/>
	<path class="st0" d="M132.12,96.25v35.17c0,5.32-1.62,9.26-4.85,11.79c-1.56,1.26-3.61,2.21-6.14,2.86
		c-2.53,0.65-5.51,0.98-8.93,0.98c-5.56,0-9.87-1.02-12.94-3.08c-3.07-2.07-4.71-4.95-4.92-8.63h12.87
		c0.23,1.11,0.85,1.96,1.85,2.53c1.02,0.62,2.38,0.94,4.08,0.94c2.65,0,4.5-0.64,5.55-1.91c1-1.27,1.5-3.99,1.5-8.14v-3.2
		c-1.33,2.23-2.99,3.87-4.99,4.92c-2.07,1.09-4.48,1.64-7.22,1.64c-4.65,0-8.38-1.69-11.2-5.06c-1.37-1.65-2.42-3.6-3.14-5.84
		c-0.72-2.25-1.08-4.77-1.08-7.59c0-5.63,1.48-10.13,4.43-13.5c1.47-1.68,3.19-2.93,5.18-3.75c1.99-0.82,4.22-1.24,6.68-1.24
		c2.63,0,4.91,0.55,6.84,1.64c1.91,1.03,3.56,2.74,4.95,5.15v-5.68H132.12z M121.2,113.78c0-2.72-0.71-4.85-2.13-6.41
		c-1.53-1.53-3.56-2.3-6.07-2.3c-2.51,0-4.53,0.77-6.07,2.3c-1.49,1.56-2.23,3.69-2.23,6.41c0,2.74,0.74,4.85,2.23,6.34
		c1.51,1.58,3.54,2.37,6.07,2.37c2.49,0,4.49-0.79,6-2.37C120.47,118.65,121.2,116.54,121.2,113.78"/>
	<path class="st0" d="M179.29,96.24v35.24h-11.44v-5.72c-1.65,2.44-3.49,4.23-5.52,5.37c-2.03,1.14-4.41,1.71-7.13,1.71
		c-4.71,0-8.47-1.72-11.26-5.16c-1.37-1.7-2.42-3.7-3.14-6c-0.72-2.3-1.08-4.89-1.08-7.78c0-5.77,1.47-10.34,4.42-13.71
		c2.95-3.37,6.9-5.06,11.85-5.06c2.65,0,4.92,0.57,6.83,1.72c1.93,1.1,3.58,2.84,4.95,5.22v-5.82H179.29z M168.34,113.85
		c0-2.79-0.73-4.94-2.19-6.48c-1.49-1.63-3.48-2.44-5.99-2.44s-4.48,0.79-5.92,2.37c-1.49,1.63-2.23,3.81-2.23,6.55
		c0,2.76,0.74,4.93,2.23,6.51c1.42,1.56,3.39,2.33,5.92,2.33c2.51,0,4.5-0.78,5.97-2.33C167.6,118.8,168.34,116.63,168.34,113.85"/>
	<path class="st0" d="M188.67,131.48V96.25h11.37v7.15c1.6-2.79,3.51-4.88,5.72-6.28c2.14-1.33,4.73-1.99,7.77-1.99
		c2.3,0,4.35,0.35,6.13,1.05c1.77,0.79,3.21,1.86,4.3,3.21c1,1.35,1.67,2.78,1.99,4.29c0.4,1.93,0.6,4.48,0.6,7.64v20.17h-12.49
		v-18.87c0-2.86-0.45-4.91-1.36-6.14c-0.9-1.28-2.38-1.92-4.42-1.92c-2.55,0-4.43,0.96-5.64,2.86c-1.18,1.91-1.77,5-1.77,9.28v14.79
		H188.67z"/>
	<path class="st0" d="M235.04,96.24h12.42v35.24h-12.42V96.24z M236.61,87.17h0.07c0-1.3,0.45-2.37,1.36-3.21
		c0.91-0.91,2-1.36,3.28-1.36c1.35,0,2.46,0.43,3.33,1.29c0.87,0.86,1.31,1.95,1.31,3.28c0,1.35-0.45,2.47-1.36,3.35
		c-0.88,0.91-1.98,1.36-3.28,1.36c-1.33,0-2.44-0.48-3.35-1.43C237.06,89.57,236.61,88.48,236.61,87.17"/>
	<path class="st0" d="M254.33,128.55l2.58-9.49c1.81,1.61,3.81,2.82,6,3.63c2.16,0.86,4.35,1.29,6.56,1.29
		c1.58,0,2.77-0.27,3.56-0.8c0.81-0.49,1.22-1.2,1.22-2.13c0-1.56-1.64-2.72-4.92-3.48c-1.14-0.25-2-0.48-2.58-0.66
		c-3.79-1.12-6.48-2.48-8.06-4.08c-1.72-1.65-2.58-3.79-2.58-6.42c0-3.4,1.29-6.13,3.87-8.2c2.49-2.05,5.97-3.07,10.43-3.07
		c2.16,0,4.47,0.26,6.91,0.77c2.05,0.42,4.43,1.24,7.15,2.45l-2.58,8.57c-1.67-1.14-3.36-1.99-5.06-2.55
		c-1.6-0.58-3.29-0.87-5.06-0.87c-1.44,0-2.52,0.22-3.25,0.66c-0.7,0.42-1.05,1.06-1.05,1.92c0,1.21,1.64,2.25,4.92,3.13
		c1.07,0.32,1.62,0.49,1.64,0.49c4.28,1.21,7.28,2.64,9,4.29c1.67,1.74,2.51,4.01,2.51,6.79c0,3.6-1.38,6.51-4.15,8.71
		c-2.84,2.23-6.5,3.34-10.99,3.34c-3.12,0-5.98-0.35-8.6-1.06C259.2,131.07,256.71,129.99,254.33,128.55"/>
	<path class="st0" d="M328.72,116.34h-26.79c0.07,2.74,0.76,4.84,2.06,6.28c1.35,1.49,3.3,2.23,5.86,2.23
		c1.86,0,3.45-0.36,4.78-1.08c1.35-0.77,2.33-1.82,2.93-3.14l9.35,3.77c-1.09,2.67-3.07,4.74-5.93,6.21
		c-2.84,1.49-6.32,2.23-10.43,2.23c-6.14,0-11.07-1.72-14.79-5.16c-3.7-3.35-5.55-7.83-5.55-13.43c0-5.47,1.85-10.04,5.55-13.71
		c3.7-3.61,8.4-5.41,14.1-5.41c5.81,0,10.41,1.83,13.78,5.48c1.72,1.88,3,4.08,3.84,6.58c0.84,2.5,1.26,5.36,1.26,8.57V116.34z
		 M316.47,109.33c-0.21-1.95-0.96-3.55-2.27-4.78c-1.3-1.23-2.9-1.85-4.78-1.85c-1.98,0-3.58,0.55-4.82,1.64
		c-1.28,1.23-2.08,2.89-2.41,4.99H316.47z M320.13,81.84l-8.58,9.7h-4.29l5.09-9.7H320.13z"/>
	<path class="st0" d="M358.27,147.04V96.32h11.44v5.88c1.51-2.26,3.29-4.03,5.34-5.29c1.93-1.14,4.13-1.71,6.59-1.71
		c2.49,0,4.72,0.41,6.7,1.24c1.98,0.83,3.7,2.08,5.16,3.75c2.91,3.33,4.36,7.92,4.36,13.78c0,5.63-1.45,10.18-4.36,13.64
		c-1.49,1.77-3.17,3.08-5.04,3.94c-1.87,0.86-4.01,1.29-6.4,1.29c-3,0-5.43-0.55-7.29-1.64c-1.79-1.05-3.46-2.86-4.99-5.44
		c0.11,0.56,0.21,1.42,0.28,2.58c0.05,0.68,0.07,1.91,0.07,3.7v15H358.27z M369.29,113.99c0,2.74,0.73,4.91,2.19,6.51
		c1.35,1.56,3.29,2.33,5.85,2.33c2.53,0,4.5-0.78,5.92-2.33c1.42-1.62,2.12-3.79,2.12-6.51c0-2.76-0.71-4.92-2.12-6.48
		c-1.44-1.58-3.41-2.37-5.92-2.37c-2.53,0-4.48,0.79-5.85,2.37C370.02,109.04,369.29,111.2,369.29,113.99"/>
	<path class="st0" d="M443.15,96.24v35.24H431.7v-5.72c-1.65,2.44-3.49,4.23-5.52,5.37c-2.03,1.14-4.41,1.71-7.13,1.71
		c-4.71,0-8.47-1.72-11.26-5.16c-1.37-1.7-2.42-3.7-3.14-6c-0.72-2.3-1.08-4.89-1.08-7.78c0-5.77,1.48-10.34,4.42-13.71
		c2.95-3.37,6.9-5.06,11.85-5.06c2.65,0,4.92,0.57,6.83,1.72c1.93,1.1,3.58,2.84,4.95,5.22v-5.82H443.15z M432.19,113.85
		c0-2.79-0.73-4.94-2.19-6.48c-1.49-1.63-3.48-2.44-5.99-2.44c-2.51,0-4.48,0.79-5.92,2.37c-1.49,1.63-2.23,3.81-2.23,6.55
		c0,2.76,0.74,4.93,2.23,6.51c1.42,1.56,3.39,2.33,5.92,2.33c2.51,0,4.5-0.78,5.97-2.33C431.46,118.8,432.19,116.63,432.19,113.85"
		/>
	<path class="st0" d="M452.6,131.48V96.25h11.72v8.3c1.23-3.05,2.87-5.31,4.92-6.8c2.12-1.51,4.66-2.27,7.64-2.27
		c0.68,0,1.17,0.02,1.5,0.07c0.26,0.02,0.49,0.04,0.7,0.05c0.21,0.01,0.48,0.04,0.8,0.09l-1.19,11.3c-0.86-0.28-1.6-0.48-2.23-0.59
		c-0.93-0.09-1.62-0.14-2.06-0.14c-3.02,0-5.36,0.93-7.01,2.79c-1.63,1.84-2.44,4.45-2.44,7.85v14.58H452.6z"/>
	<path class="st0" d="M485.12,103.61c0-1.95,0.69-3.62,2.06-4.99c1.26-1.33,2.9-1.99,4.92-1.99c2.07,0,3.77,0.66,5.09,1.99
		c1.33,1.32,1.99,2.99,1.99,4.99c0,1.93-0.69,3.61-2.06,5.03c-1.37,1.37-3.05,2.06-5.02,2.06c-1.91,0-3.55-0.69-4.92-2.06
		C485.8,107.26,485.12,105.58,485.12,103.61 M485.12,125.78c0-1.95,0.69-3.61,2.06-4.98c1.28-1.35,2.92-2.02,4.92-2.02
		c2.05,0,3.74,0.67,5.09,2.02c1.33,1.32,1.99,2.98,1.99,4.98c0,1.93-0.69,3.6-2.06,5.01c-1.42,1.37-3.09,2.05-5.02,2.05
		c-1.86,0-3.5-0.68-4.92-2.05C485.8,129.42,485.12,127.75,485.12,125.78"/>
	<path class="st0" d="M1162.19,131.48V80.41h13.43l19.29,26.27c0.49,0.72,1.1,1.8,1.85,3.25c0.95,1.86,1.88,3.78,2.79,5.76
		c-0.35-2.67-0.55-4.55-0.59-5.62c-0.14-1.68-0.21-3.15-0.21-4.43V80.41h13.36v51.08h-13.36l-19.29-26.38
		c-0.28-0.37-0.9-1.47-1.85-3.28c-0.84-1.49-1.77-3.37-2.79-5.65c0.23,1.82,0.45,3.7,0.66,5.65c0.09,2.19,0.14,3.66,0.14,4.43v25.22
		H1162.19z"/>
	<path class="st0" d="M1259.56,113.97c0,2.58-0.5,4.99-1.5,7.22c-1.05,2.37-2.48,4.42-4.29,6.14c-2.05,1.91-4.16,3.29-6.35,4.15
		c-2.28,0.91-4.8,1.36-7.57,1.36c-2.79,0-5.32-0.45-7.57-1.36c-2.3-0.91-4.43-2.29-6.37-4.13c-1.94-1.85-3.34-3.9-4.2-6.16
		c-1-2.16-1.5-4.57-1.5-7.22c0-2.58,0.5-5.01,1.5-7.29c0.93-2.3,2.34-4.35,4.22-6.14c1.84-1.77,3.95-3.13,6.35-4.08
		c2.28-0.88,4.8-1.33,7.57-1.33c2.74,0,5.27,0.44,7.57,1.33c2.39,0.95,4.51,2.32,6.35,4.08c1.93,1.74,3.36,3.79,4.29,6.14
		C1259.06,108.96,1259.56,111.39,1259.56,113.97 M1247.21,113.97c0-2.63-0.66-4.7-1.99-6.21c-1.37-1.51-3.16-2.27-5.37-2.27
		c-2.28,0-4.07,0.76-5.37,2.27c-1.33,1.47-1.99,3.54-1.99,6.21c0,2.61,0.64,4.65,1.92,6.14c1.4,1.53,3.21,2.3,5.44,2.3
		c2.23,0,4.05-0.77,5.44-2.3C1246.57,118.57,1247.21,116.53,1247.21,113.97"/>
	<path class="st0" d="M1263.44,128.55l2.58-9.49c1.81,1.61,3.81,2.82,6,3.63c2.16,0.86,4.35,1.29,6.56,1.29
		c1.58,0,2.77-0.27,3.56-0.8c0.81-0.49,1.22-1.2,1.22-2.13c0-1.56-1.64-2.72-4.92-3.48c-1.14-0.25-2-0.48-2.58-0.66
		c-3.79-1.12-6.48-2.48-8.06-4.08c-1.72-1.65-2.58-3.79-2.58-6.42c0-3.4,1.29-6.13,3.87-8.2c2.49-2.05,5.97-3.07,10.43-3.07
		c2.16,0,4.47,0.26,6.91,0.77c2.05,0.42,4.43,1.24,7.15,2.45l-2.58,8.57c-1.67-1.14-3.36-1.99-5.06-2.55
		c-1.61-0.58-3.29-0.87-5.06-0.87c-1.44,0-2.52,0.22-3.24,0.66c-0.7,0.42-1.05,1.06-1.05,1.92c0,1.21,1.64,2.25,4.92,3.13
		c1.07,0.32,1.62,0.49,1.64,0.49c4.28,1.21,7.28,2.64,9,4.29c1.68,1.74,2.51,4.01,2.51,6.79c0,3.6-1.38,6.51-4.15,8.71
		c-2.84,2.23-6.5,3.34-10.99,3.34c-3.12,0-5.98-0.35-8.6-1.06C1268.3,131.07,1265.81,129.99,1263.44,128.55"/>
	<path class="st0" d="M1323.72,147.04V96.32h11.44v5.88c1.51-2.26,3.29-4.03,5.34-5.29c1.93-1.14,4.13-1.71,6.59-1.71
		c2.49,0,4.72,0.41,6.7,1.24c1.98,0.83,3.7,2.08,5.16,3.75c2.91,3.33,4.36,7.92,4.36,13.78c0,5.63-1.45,10.18-4.36,13.64
		c-1.49,1.77-3.17,3.08-5.04,3.94c-1.87,0.86-4.01,1.29-6.4,1.29c-3,0-5.43-0.55-7.29-1.64c-1.79-1.05-3.45-2.86-4.99-5.44
		c0.12,0.56,0.21,1.42,0.28,2.58c0.05,0.68,0.07,1.91,0.07,3.7v15H1323.72z M1334.75,113.99c0,2.74,0.73,4.91,2.19,6.51
		c1.35,1.56,3.3,2.33,5.85,2.33c2.53,0,4.5-0.78,5.92-2.33c1.42-1.62,2.12-3.79,2.12-6.51c0-2.76-0.71-4.92-2.12-6.48
		c-1.44-1.58-3.41-2.37-5.92-2.37c-2.53,0-4.48,0.79-5.85,2.37C1335.48,109.04,1334.75,111.2,1334.75,113.99"/>
	<path class="st0" d="M1408.61,96.24v35.24h-11.44v-5.72c-1.65,2.44-3.49,4.23-5.52,5.37c-2.03,1.14-4.41,1.71-7.13,1.71
		c-4.72,0-8.47-1.72-11.26-5.16c-1.37-1.7-2.42-3.7-3.14-6c-0.72-2.3-1.08-4.89-1.08-7.78c0-5.77,1.47-10.34,4.42-13.71
		c2.95-3.37,6.9-5.06,11.85-5.06c2.65,0,4.92,0.57,6.83,1.72c1.93,1.1,3.58,2.84,4.95,5.22v-5.82H1408.61z M1397.65,113.85
		c0-2.79-0.73-4.94-2.19-6.48c-1.49-1.63-3.48-2.44-5.99-2.44c-2.51,0-4.48,0.79-5.92,2.37c-1.48,1.63-2.23,3.81-2.23,6.55
		c0,2.76,0.74,4.93,2.23,6.51c1.42,1.56,3.39,2.33,5.92,2.33c2.51,0,4.5-0.78,5.97-2.33
		C1396.92,118.8,1397.65,116.63,1397.65,113.85"/>
	<path class="st0" d="M1418.06,131.48V96.25h11.72v8.3c1.23-3.05,2.87-5.31,4.92-6.8c2.12-1.51,4.66-2.27,7.64-2.27
		c0.67,0,1.17,0.02,1.5,0.07c0.26,0.02,0.49,0.04,0.7,0.05s0.48,0.04,0.8,0.09l-1.19,11.3c-0.86-0.28-1.6-0.48-2.23-0.59
		c-0.93-0.09-1.62-0.14-2.06-0.14c-3.03,0-5.36,0.93-7.01,2.79c-1.63,1.84-2.44,4.45-2.44,7.85v14.58H1418.06z"/>
	<polygon class="st0" points="1451.87,131.48 1451.8,105.04 1446.53,105.04 1446.53,96.25 1451.8,96.25 1451.8,85.74 1464.15,85.74 
		1464.15,96.25 1469.35,96.25 1469.35,105.04 1464.15,105.04 1464.15,131.48 	"/>
	<path class="st0" d="M1511.66,116.34h-26.79c0.07,2.75,0.76,4.84,2.06,6.28c1.35,1.49,3.3,2.23,5.86,2.23
		c1.86,0,3.45-0.36,4.78-1.08c1.35-0.77,2.33-1.81,2.93-3.14l9.35,3.77c-1.09,2.67-3.07,4.74-5.93,6.21
		c-2.84,1.49-6.31,2.23-10.43,2.23c-6.14,0-11.07-1.72-14.79-5.16c-3.7-3.35-5.55-7.83-5.55-13.43c0-5.47,1.85-10.04,5.55-13.71
		c3.7-3.6,8.4-5.41,14.1-5.41c5.81,0,10.41,1.83,13.78,5.48c1.72,1.88,3,4.08,3.84,6.58c0.84,2.5,1.26,5.36,1.26,8.57V116.34z
		 M1499.42,109.33c-0.21-1.95-0.97-3.55-2.27-4.78c-1.3-1.23-2.9-1.85-4.78-1.85c-1.98,0-3.58,0.55-4.81,1.64
		c-1.28,1.23-2.08,2.9-2.41,4.99H1499.42z"/>
	<path class="st0" d="M1518.78,131.48V96.25h11.37v7.15c1.6-2.79,3.51-4.88,5.72-6.28c2.14-1.33,4.73-1.99,7.77-1.99
		c2.3,0,4.34,0.35,6.13,1.05c1.77,0.79,3.21,1.86,4.3,3.21c1,1.35,1.67,2.78,1.99,4.29c0.4,1.93,0.59,4.48,0.59,7.64v20.17h-12.49
		v-18.87c0-2.86-0.45-4.91-1.36-6.14c-0.91-1.28-2.38-1.92-4.42-1.92c-2.55,0-4.43,0.96-5.64,2.86c-1.18,1.91-1.77,5-1.77,9.28
		v14.79H1518.78z"/>
	<path class="st0" d="M1603.21,96.24v35.24h-11.44v-5.72c-1.65,2.44-3.49,4.23-5.52,5.37c-2.03,1.14-4.41,1.71-7.13,1.71
		c-4.72,0-8.47-1.72-11.26-5.16c-1.37-1.7-2.42-3.7-3.14-6c-0.72-2.3-1.08-4.89-1.08-7.78c0-5.77,1.47-10.34,4.42-13.71
		c2.95-3.37,6.9-5.06,11.85-5.06c2.65,0,4.92,0.57,6.83,1.72c1.93,1.1,3.58,2.84,4.95,5.22v-5.82H1603.21z M1592.26,113.85
		c0-2.79-0.73-4.94-2.19-6.48c-1.49-1.63-3.48-2.44-5.99-2.44c-2.51,0-4.48,0.79-5.92,2.37c-1.48,1.63-2.23,3.81-2.23,6.55
		c0,2.76,0.74,4.93,2.23,6.51c1.42,1.56,3.39,2.33,5.92,2.33c2.51,0,4.5-0.78,5.97-2.33
		C1591.52,118.8,1592.26,116.63,1592.26,113.85"/>
	<path class="st0" d="M1612.32,96.24h12.42v35.24h-12.42V96.24z M1613.89,87.17h0.07c0-1.3,0.45-2.37,1.36-3.21
		c0.91-0.91,2-1.36,3.28-1.36c1.35,0,2.46,0.43,3.33,1.29c0.87,0.86,1.31,1.95,1.31,3.28c0,1.35-0.45,2.47-1.36,3.35
		c-0.88,0.91-1.98,1.36-3.28,1.36c-1.33,0-2.44-0.48-3.35-1.43C1614.34,89.57,1613.89,88.48,1613.89,87.17"/>
	<path class="st0" d="M1634.96,131.48V96.25h11.72v8.3c1.23-3.05,2.87-5.31,4.92-6.8c2.12-1.51,4.66-2.27,7.64-2.27
		c0.67,0,1.17,0.02,1.5,0.07c0.26,0.02,0.49,0.04,0.7,0.05s0.48,0.04,0.8,0.09l-1.19,11.3c-0.86-0.28-1.6-0.48-2.23-0.59
		c-0.93-0.09-1.62-0.14-2.06-0.14c-3.03,0-5.36,0.93-7.01,2.79c-1.63,1.84-2.44,4.45-2.44,7.85v14.58H1634.96z"/>
	<path class="st0" d="M1703.34,116.34h-26.79c0.07,2.75,0.76,4.84,2.06,6.28c1.35,1.49,3.3,2.23,5.86,2.23
		c1.86,0,3.45-0.36,4.78-1.08c1.35-0.77,2.33-1.81,2.93-3.14l9.35,3.77c-1.09,2.67-3.07,4.74-5.93,6.21
		c-2.84,1.49-6.31,2.23-10.43,2.23c-6.14,0-11.07-1.72-14.79-5.16c-3.7-3.35-5.55-7.83-5.55-13.43c0-5.47,1.85-10.04,5.55-13.71
		c3.7-3.6,8.4-5.41,14.1-5.41c5.81,0,10.41,1.83,13.78,5.48c1.72,1.88,3,4.08,3.84,6.58c0.84,2.5,1.26,5.36,1.26,8.57V116.34z
		 M1691.09,109.33c-0.21-1.95-0.97-3.55-2.27-4.78c-1.3-1.23-2.9-1.85-4.78-1.85c-1.98,0-3.58,0.55-4.81,1.64
		c-1.28,1.23-2.08,2.9-2.41,4.99H1691.09z"/>
	<path class="st0" d="M1707.18,128.55l2.58-9.49c1.81,1.61,3.81,2.82,6,3.63c2.16,0.86,4.35,1.29,6.56,1.29
		c1.58,0,2.77-0.27,3.56-0.8c0.81-0.49,1.22-1.2,1.22-2.13c0-1.56-1.64-2.72-4.92-3.48c-1.14-0.25-2-0.48-2.58-0.66
		c-3.79-1.12-6.48-2.48-8.06-4.08c-1.72-1.65-2.58-3.79-2.58-6.42c0-3.4,1.29-6.13,3.87-8.2c2.49-2.05,5.97-3.07,10.43-3.07
		c2.16,0,4.47,0.26,6.91,0.77c2.05,0.42,4.43,1.24,7.15,2.45l-2.58,8.57c-1.67-1.14-3.36-1.99-5.06-2.55
		c-1.61-0.58-3.29-0.87-5.06-0.87c-1.44,0-2.52,0.22-3.24,0.66c-0.7,0.42-1.05,1.06-1.05,1.92c0,1.21,1.64,2.25,4.92,3.13
		c1.07,0.32,1.62,0.49,1.64,0.49c4.28,1.21,7.28,2.64,9,4.29c1.68,1.74,2.51,4.01,2.51,6.79c0,3.6-1.38,6.51-4.15,8.71
		c-2.84,2.23-6.5,3.34-10.99,3.34c-3.12,0-5.98-0.35-8.6-1.06C1712.04,131.07,1709.55,129.99,1707.18,128.55"/>
	<path class="st0" d="M1745.69,103.61c0-1.95,0.69-3.62,2.06-4.99c1.26-1.33,2.9-1.99,4.92-1.99c2.07,0,3.77,0.66,5.09,1.99
		c1.33,1.32,1.99,2.99,1.99,4.99c0,1.93-0.69,3.61-2.06,5.03c-1.37,1.37-3.05,2.06-5.02,2.06c-1.91,0-3.55-0.69-4.92-2.06
		C1746.38,107.26,1745.69,105.58,1745.69,103.61 M1745.69,125.78c0-1.95,0.69-3.61,2.06-4.98c1.28-1.35,2.92-2.02,4.92-2.02
		c2.05,0,3.74,0.67,5.09,2.02c1.33,1.32,1.99,2.98,1.99,4.98c0,1.93-0.69,3.6-2.06,5.01c-1.42,1.37-3.09,2.05-5.02,2.05
		c-1.86,0-3.5-0.68-4.92-2.05C1746.38,129.42,1745.69,127.75,1745.69,125.78"/>
	<path class="st0" d="M2627.42,114.74c-0.38,1.68-0.7,3.37-1.16,5.03c-1.87,6.7-5.6,12.26-10.83,16.74
		c-4.38,3.75-9.47,6.23-15.18,7.39c-2.88,0.58-5.78,0.95-8.68,0.68c-2.62-0.24-5.22-0.8-7.82-1.28c-0.26-0.05-0.61-0.54-0.63-0.85
		c-0.16-2.23,0.41-4.35,2.12-5.76c2.79-2.3,5.82-4.32,8.71-6.5c2.28-1.72,4.59-3.41,6.71-5.31c1.91-1.72,3.82-3.54,5.31-5.61
		c1.77-2.45,1.37-5.06-0.95-7.17c-3.11-2.83-7.03-3.79-10.91-4.82c-1.91-0.5-3.85-0.86-6.03-1.34c1.2-1.66,2.17-3.21,3.34-4.6
		c3.46-4.13,7.74-7.25,12.61-9.49c4.5-2.08,9.19-3.66,14.14-4.32c0.31-0.04,0.76,0.16,0.98,0.4c2.54,2.71,4.37,5.87,5.79,9.28
		c1.16,2.78,2.07,5.64,2.31,8.67c0,0.05,0.12,0.09,0.19,0.14V114.74z"/>
	<path class="st0" d="M2496.7,158.42c0.5-2.57,1-5.09,1.47-7.62c0.13-0.68,0.44-0.73,1.04-0.54c2.91,0.94,5.77,2.11,8.75,2.68
		c2.86,0.55,5.8,1.12,8.76,0.41c1.8-0.43,3.66-0.65,5.4-1.22c3.55-1.17,5.32-4.01,6.14-7.43c0.41-1.73,0.43-3.56,0.51-5.35
		c0.08-1.82,0.02-3.65,0.02-5.79c-0.53,0.5-0.9,0.84-1.25,1.19c-2.89,3.01-6.4,4.8-10.53,5.35c-5.91,0.8-11.52,0.16-16.54-3.45
		c-2.53-1.82-4.39-4.18-5.97-6.81c-1.83-3.05-3.04-6.39-3.48-9.86c-0.51-4.03-0.66-8.14-0.52-12.2c0.13-3.91,0.89-7.78,2.16-11.53
		c1.3-3.81,3.21-7.27,5.94-10.19c2.66-2.84,6.02-4.63,9.86-5.42c6.28-1.29,12.12-0.25,17.29,3.62c1.49,1.12,2.66,2.66,4,4.03
		c0.41-2.28,0.84-4.7,1.29-7.14h8.69v1.35c0,19.3,0.05,38.59-0.03,57.89c-0.02,4.97-1.26,9.71-4.27,13.79
		c-2.17,2.94-5.11,4.95-8.48,6.34c-3.67,1.51-7.5,1.94-11.45,2.04c-4.96,0.13-9.73-0.67-14.38-2.29
		C2499.62,159.76,2498.17,159.05,2496.7,158.42 M2528.8,110.11c0-4.14,0-8.29,0-12.44c0-0.33,0.11-0.77-0.06-0.97
		c-1.33-1.65-2.5-3.51-4.13-4.8c-3.31-2.64-7.19-3.26-11.39-2.6c-3.99,0.63-6.71,2.82-8.6,6.24c-2.74,4.99-3.29,10.48-3.45,16
		c-0.07,2.58,0.25,5.22,0.75,7.77c0.62,3.14,1.7,6.2,4.01,8.54c3.64,3.7,8.21,4.3,13.09,3.48c3.31-0.56,5.86-2.39,7.93-4.93
		c1.14-1.4,1.97-2.86,1.89-4.86C2528.68,117.75,2528.8,113.93,2528.8,110.11"/>
	<path class="st0" d="M2149.58,61.22h2.8c9.33,0,18.68-0.12,28.01,0.04c5.57,0.09,10.99,1.22,15.67,4.47
		c5.19,3.61,8.39,8.54,9.2,14.91c0.68,5.36,0.3,10.57-2.25,15.44c-2.48,4.73-6.35,7.94-11.26,9.91c-3.1,1.25-6.34,1.95-9.69,1.99
		c-7.16,0.09-14.32,0.18-21.48,0.28c-0.16,0-0.32,0.03-0.44,0.04v31h-10.55V61.22z M2160.12,69.92v29.64h1.34
		c6.14,0,12.29,0.03,18.43-0.02c1.54-0.01,3.11-0.15,4.6-0.5c4.26-1.01,7.24-3.58,8.96-7.66c1.1-2.6,1.24-5.28,1.14-8.05
		c-0.14-3.79-1.58-7.06-4.19-9.69c-2.53-2.55-5.86-3.64-9.39-3.7c-6.35-0.12-12.7-0.03-19.05-0.02H2160.12z"/>
	<path class="st0" d="M2580.84,142.17c-10.73-3.82-19.61-14.54-21.42-26.19c-1.23-7.91,0.02-15.39,3.88-22.35
		c3.81-6.86,9.44-11.91,16.69-14.91c14.19-5.88,28.75-1.42,37.12,7.14c-2.11,0-4.05-0.15-5.95,0.04c-2.71,0.27-5.43,0.62-8.07,1.25
		c-4.29,1.04-8,3.25-10.99,6.52c-2.96,3.24-5.52,6.76-6.77,11.05c-0.23,0.79-0.72,0.86-1.38,0.81c-3.1-0.25-6.21-0.5-9.31-0.74
		c-1.63-0.13-3.26-0.23-4.96-0.34v1.12c4.78,0.91,9.56,1.81,14.34,2.72c-0.46,3.26-0.91,6.38-1.35,9.51c1.23,0.16,1.16,0.07,1.43-1
		c0.66-2.61,1.46-5.19,2.3-8.14c4.82,1.61,9.32,3.06,13.76,4.64c1,0.36,1.87,1.13,2.75,1.76c0.75,0.54,0.9,1.28,0.05,1.8
		c-1.52,0.93-3.04,1.91-4.68,2.56c-3.22,1.29-6.11,2.98-8.69,5.32c-4.54,4.12-7.23,9.23-8.49,15.15
		C2580.97,140.6,2580.94,141.34,2580.84,142.17"/>
	<path class="st0" d="M2366.83,97.5h-10.29c-0.41-3.41,0.74-6.31,2.79-8.9c2.21-2.79,5.01-4.83,8.25-6.28
		c2.49-1.12,5.1-1.76,7.83-1.91c1.52-0.08,3.04-0.32,4.55-0.25c5.98,0.3,11.54,1.83,15.92,6.19c2.41,2.4,3.85,5.42,4.35,8.77
		c0.35,2.38,0.52,4.81,0.53,7.22c0.05,9.58-0.08,19.17,0.06,28.75c0.04,2.72,0.75,5.42,1.18,8.28c-1.15,0-2.53,0-3.91,0
		c-2.03,0-4.07-0.03-6.1,0.01c-0.79,0.02-1.05-0.31-1.16-1.04c-0.33-2.35-0.72-4.7-1.1-7.15c-2.41,2.83-5.02,5.31-8.29,7
		c-2.67,1.37-5.47,2.14-8.5,2.19c-3.75,0.05-7.42-0.18-10.82-1.93c-4.55-2.33-7.25-6.05-8.13-11.08c-0.25-1.44-0.52-2.91-0.49-4.36
		c0.09-5.55,2.21-10.04,6.98-13.17c3.27-2.15,6.82-3.45,10.66-4.06c5.84-0.93,11.71-0.28,17.57-0.48c0.32-0.01,0.65,0,1.14,0
		c-0.18-4.28,0.79-8.6-1.98-12.41c-1.49-2.05-3.54-3.27-5.92-3.73c-3.57-0.68-7.12-0.63-10.48,1.14
		C2368.58,91.82,2367.02,94.11,2366.83,97.5 M2389.83,112.48c-2.42,0-4.69,0-6.96,0c-3.28,0-6.55-0.1-9.77,0.75
		c-4.97,1.31-9.29,5.21-8.69,11.26c0.24,2.47,1.43,4.52,3.69,5.68c3.27,1.67,6.74,1.49,10.21,0.68c3.21-0.75,6.02-2.34,8.48-4.48
		c1.45-1.26,2.83-2.8,2.99-4.75C2390.01,118.65,2389.83,115.66,2389.83,112.48"/>
	<path class="st0" d="M2258.05,112.48h-37.17c0.11,1.72-0.02,3.39,0.37,4.94c0.63,2.53,1.37,5.07,2.47,7.42
		c1.93,4.13,5.34,6.3,9.9,6.88c4.14,0.53,8.17,0.22,12-1.31c2.52-1.01,4.84-2.52,7.27-3.83c1.11,1.8,2.42,3.88,3.65,6
		c0.15,0.26,0.04,0.91-0.19,1.1c-1.15,0.96-2.29,1.96-3.58,2.7c-3.53,2.04-7.29,3.41-11.42,3.76c-5.08,0.43-10.1,0.49-15-1.25
		c-5.34-1.89-9.24-5.45-12.21-10.16c-2.04-3.23-3.27-6.8-3.8-10.5c-0.51-3.56-0.67-7.22-0.52-10.82c0.15-3.62,0.75-7.22,2.16-10.64
		c1.87-4.57,4.69-8.36,8.47-11.54c3.07-2.59,6.6-4.03,10.44-4.77c3.2-0.62,6.44-0.36,9.64,0.27c3.2,0.64,6.28,1.67,8.71,3.93
		c1.71,1.6,3.4,3.32,4.68,5.26c1.94,2.95,3.12,6.33,3.59,9.82c0.42,3.12,0.39,6.3,0.54,9.46
		C2258.09,110.23,2258.05,111.26,2258.05,112.48 M2247.35,103.76c-0.25-1.98-0.3-3.92-0.76-5.76c-0.74-2.97-2.11-5.61-4.79-7.39
		c-2.39-1.59-5.06-1.88-7.83-1.78c-2.7,0.09-5.03,1.08-7.04,2.86c-2.29,2.03-3.65,4.66-4.64,7.46c-0.51,1.44-0.65,3.01-0.97,4.6
		H2247.35z"/>
	<path class="st0" d="M2458.22,140.57c-5.6,0.14-10.7-1.35-15.13-4.65c-4.59-3.41-7.67-8.01-9.4-13.47c-0.95-2.99-1.52-6.05-1.5-9.2
		c0.02-2.45-0.17-4.92,0.02-7.35c0.46-5.82,2.25-11.21,5.74-15.96c2.48-3.38,5.52-6.12,9.44-7.63c2.35-0.9,4.87-1.36,7.35-1.86
		c1.35-0.27,2.78-0.33,4.17-0.28c5.33,0.2,10.38,1.51,14.58,4.89c5.23,4.21,8.52,9.73,9.67,16.36c0.57,3.28,1.02,6.64,0.99,9.95
		c-0.04,5.8-1.11,11.47-4.07,16.57c-3.65,6.27-8.78,10.66-16.16,11.93C2462.03,140.18,2460.12,140.34,2458.22,140.57 M2458.11,88.73
		c-1.01,0.12-2.03,0.23-3.03,0.36c-3.79,0.5-6.45,2.72-8.47,5.78c-2.53,3.82-3.45,8.19-3.71,12.65c-0.31,5.31,0.03,10.6,2.21,15.59
		c1.46,3.34,3.55,6.18,6.98,7.65c2.76,1.19,5.69,1.43,8.72,0.96c3.29-0.52,5.94-2.09,7.89-4.64c3.3-4.31,4.33-9.41,4.57-14.7
		c0.15-3.36-0.03-6.72-0.75-10.01c-0.75-3.44-2.1-6.64-4.42-9.32C2465.5,90.03,2462.09,88.72,2458.11,88.73"/>
	<path class="st0" d="M2275.98,139.35h-10.58V81.13c2.94,0,5.88,0,8.81,0c0.8,0,0.76,0.53,0.8,1.1c0.16,2.39,0.36,4.78,0.56,7.27
		c0.93-1.12,1.74-2.22,2.67-3.22c2.91-3.13,6.53-5.14,10.69-5.82c5.39-0.88,10.71-0.28,15.36,2.78c4.07,2.68,6.35,6.68,7.36,11.49
		c0.71,3.38,0.71,6.76,0.71,10.16c0,10.95,0,21.91,0,32.86v1.55h-10.66v-1.29c0-11.7,0.06-23.4-0.04-35.1
		c-0.03-2.89-0.31-5.82-1.55-8.56c-1.34-2.96-3.84-4.41-6.78-4.97c-3.39-0.64-6.83-0.57-10.14,0.68c-3.08,1.16-5.3,3.35-7.05,6.05
		c-0.22,0.33-0.13,0.88-0.13,1.33c-0.01,13.44,0,26.89,0,40.33V139.35z"/>
	<path class="st0" d="M2347.97,131.02c0.46,2.14,0.98,4.5,1.46,6.86c0.03,0.17-0.23,0.52-0.42,0.59c-1.84,0.66-3.66,1.63-5.56,1.83
		c-2.7,0.28-5.45,0.23-8.09-0.87c-3.13-1.3-5.42-3.42-6.76-6.49c-1.2-2.75-1.52-5.71-1.53-8.69c-0.01-11.16-0.01-22.32-0.01-33.48
		v-1.37h-9.14v-8.23h9.14v-1.4c0-3.73,0.04-7.47-0.02-11.2c-0.02-1.12,0.35-1.42,1.43-1.39c2.78,0.07,5.56,0.05,8.34,0
		c0.93-0.01,1.23,0.29,1.22,1.21c-0.04,4.19-0.02,8.38-0.02,12.7h10.89v8.19h-10.89v1.45c0,11.66-0.06,23.32,0.02,34.98
		c0.02,3.12,1.8,5.97,5.67,5.72C2345.1,131.33,2346.5,131.16,2347.97,131.02"/>
	<rect x="2412.35" y="56.02" class="st0" width="10.49" height="83.29"/>
	<path class="st0" d="M540.45,95.21c-1.98-1.14-3.83-2.19-5.66-3.28c-0.99-0.59-1.1-1.18-0.47-2.17c2.72-4.29,6.1-7.98,10.12-11.08
		c5.74-4.43,12.21-7.25,19.36-8.4c2.25-0.36,4.55-0.52,6.82-0.53c10.83-0.05,21.66-0.02,32.5-0.02c1.63,0,1.94,0.3,1.94,1.92
		c0,20.82,0,41.63,0,62.45c0,12.31,8.7,21.96,20.93,23.18c11.04,1.1,21.9-7.04,23.98-18.04c0.3-1.6,0.46-3.25,0.47-4.87
		c0.03-16.13,0.02-32.25,0.02-48.38c0-4.8,0.03-9.61,0.05-14.41c0.01-1.47,0.36-1.84,1.8-1.84c8.35-0.01,16.71-0.01,25.06,0
		c1.35,0,1.8,0.44,1.81,1.76c0.01,2.05,0,4.11,0,6.26c-0.65,0.03-1.21,0.08-1.77,0.08c-5.49,0.01-10.98,0-16.48,0
		c-1.99,0-2.36,0.38-2.36,2.44c0,17.96-0.01,35.91,0,53.87c0.01,13.6-8.17,25.25-20.86,29.68c-13.97,4.88-29.91-1.34-36.95-14.38
		c-2.49-4.61-3.73-9.5-3.72-14.76c0.04-18.07,0.02-36.14,0.02-54.21c0-2.31-0.34-2.64-2.64-2.64c-7.97,0-15.94-0.12-23.91,0.02
		c-12.7,0.23-22.45,5.9-29.45,16.42C540.88,94.55,540.7,94.83,540.45,95.21"/>
	<path class="st0" d="M679.16,82.14c0,2.26,0.04,4.47-0.02,6.67c-0.02,1.06-0.82,1.38-1.74,1.39c-1.68,0.02-3.35,0.02-5.03,0.03
		c-0.41,0-0.83,0-1.47,0v2.79c0,13.91,0,27.83,0,41.74c0,18.35-12.03,35.15-29.52,40.65c-16.48,5.18-31.24,1.69-43.77-10.12
		c-7.36-6.94-11.52-15.72-12.63-25.84c-0.18-1.66-0.27-3.34-0.27-5.01c-0.02-14.07-0.01-28.13-0.01-42.2v-2h-1.77
		c-4.08,0-8.16-0.01-12.24,0c-7.48,0.03-13.44,3.13-18.02,8.98c-1.66,2.11-1.63,2.14-3.9,0.82c-1.51-0.87-3.02-1.75-4.6-2.67
		c1.98-3.4,4.44-6.26,7.47-8.63c5.83-4.57,12.45-6.7,19.84-6.65c6.6,0.05,13.2,0.01,19.79,0.01h1.5v1.53c0,17.12,0,34.23,0,51.35
		c0,15.06,10.6,29.05,25.11,33.17c18.52,5.25,37.24-4.65,43.27-22.92c1.1-3.34,1.65-6.78,1.65-10.31c-0.01-17.19,0-34.39,0.01-51.58
		v-1.18H679.16z"/>
	<path class="st0" d="M771.02,40.93c-12.54,31.76-25.02,63.37-37.61,95.23c-12.59-31.88-25.08-63.5-37.62-95.23
		c2.67,0,5.18,0.01,7.69-0.01c0.98-0.01,1.27,0.69,1.55,1.41c2.07,5.24,4.14,10.47,6.21,15.71c7.19,18.21,14.37,36.42,21.56,54.63
		c0.14,0.35,0.34,0.67,0.62,1.24c0.44-1.05,0.82-1.9,1.16-2.77c8.43-21.37,16.85-42.73,25.28-64.1c0.65-1.66,1.34-3.31,1.98-4.97
		c0.27-0.7,0.68-1.15,1.5-1.15C765.84,40.94,768.32,40.93,771.02,40.93"/>
	<path class="st0" d="M695.83,52.59c12.04,30.47,23.96,60.64,35.95,90.98c-2.78,0-5.42,0.05-8.06-0.06
		c-0.41-0.02-0.96-0.71-1.16-1.21c-1.54-3.77-3.03-7.56-4.48-11.36c-0.32-0.83-0.71-1.18-1.65-1.16c-3.81,0.06-7.63,0.05-11.44,0.01
		c-0.92-0.01-1.16,0.28-1.15,1.17c0.05,3.58,0.02,7.16,0.01,10.75c-0.01,1.54-0.36,1.89-1.88,1.89c-2.02,0.01-4.04,0-6.15,0V52.59z
		 M703.86,125.81h12.13c-0.52-1.32-0.96-2.52-1.48-3.69c-0.1-0.23-0.52-0.46-0.8-0.46c-3.01-0.04-6.02-0.04-9.03,0.01
		c-0.28,0-0.75,0.48-0.78,0.77C703.8,123.5,703.86,124.57,703.86,125.81 M704.23,95.99c-0.1,0.02-0.21,0.04-0.31,0.07v13.28h5.57
		C707.71,104.83,705.97,100.41,704.23,95.99 M712.73,117.61c-0.54-1.4-0.96-2.61-1.5-3.76c-0.12-0.26-0.67-0.44-1.03-0.45
		c-1.63-0.05-3.27,0.05-4.9-0.05c-1.17-0.07-1.49,0.32-1.46,1.47c0.07,2.79,0.02,2.79,2.81,2.79
		C708.61,117.61,710.57,117.61,712.73,117.61"/>
	<path class="st0" d="M735.02,143.6c11.96-30.28,23.86-60.39,35.76-90.5c0.05,0.01,0.11,0.03,0.16,0.04v90.37
		c-0.34,0.03-0.67,0.07-0.99,0.08c-1.72,0.01-3.43,0.01-5.15,0.01c-1.54,0-1.82-0.28-1.82-1.79c-0.01-3.47,0-6.94,0-10.41
		c0-1.6,0-1.6-1.63-1.6c-3.7,0-7.4,0.02-11.1-0.02c-0.77-0.01-1.16,0.24-1.43,0.96c-1.45,3.79-2.98,7.56-4.42,11.36
		c-0.41,1.07-0.98,1.57-2.19,1.53C739.88,143.54,737.55,143.6,735.02,143.6 M750.79,125.85c0.58,0,0.95,0,1.31,0
		c2.63,0,5.25,0.01,7.88,0c3.09,0,3.07,0,2.98-3.11c-0.02-0.76-0.23-1.09-1.04-1.08c-2.89,0.03-5.79-0.01-8.68,0.01
		c-0.32,0-0.83,0.18-0.94,0.43C751.77,123.27,751.34,124.47,750.79,125.85 M757.27,109.46c1.68,0,3.08-0.05,4.48,0.02
		c0.96,0.05,1.25-0.32,1.24-1.25c-0.04-3.74-0.02-7.47-0.03-11.21c0-0.35-0.07-0.69-0.1-1.04l-0.26-0.01
		C760.86,100.37,759.12,104.77,757.27,109.46 M754.05,117.62c2.12,0,4,0,5.89,0c3.36,0,3.45-0.08,3-3.48
		c-0.04-0.29-0.53-0.72-0.83-0.73c-1.86-0.07-3.72-0.06-5.58-0.01c-0.32,0.01-0.81,0.2-0.93,0.45
		C755.05,114.99,754.62,116.19,754.05,117.62"/>
	<path class="st0" d="M775.32,40.94c2.28,0,4.52-0.03,6.77,0.02c0.79,0.01,1.25,0.5,1.25,1.33c0,0.42,0,0.84,0,1.26v64.51v1.41h2.03
		c6.86,0,13.73,0,20.6,0c1.8,0,2.05,0.24,2.05,1.91c-0.01,1.68-0.34,1.99-2.12,1.99c-7.09,0-14.19,0.02-21.28-0.02
		c-0.99-0.01-1.31,0.24-1.3,1.27c0.04,3.01,0,3.01,2.98,3c6.52,0,13.05,0,19.57,0c1.97,0,2.88,1.4,2.08,3.21
		c-0.32,0.74-0.98,0.82-1.72,0.82c-7.1-0.02-14.19-0.02-21.28-0.02c-1.59,0-1.59,0-1.6,1.63c-0.01,2.62-0.01,2.63,2.63,2.63
		c6.71,0,13.43,0,20.14,0c1.56,0,1.91,0.34,1.91,1.84c0,1.7-0.33,2.06-1.95,2.06c-6.83,0-13.65,0-20.48,0h-2.19
		c-0.02,0.53-0.06,0.97-0.06,1.41c-0.01,3.54,0,7.09,0,10.64c0,1.41-0.32,1.74-1.75,1.75c-2.06,0.01-4.11,0-6.27,0V40.94z"/>
	<path class="st0" d="M625.56,143.6c-2.26,0-4.43,0.02-6.6-0.01c-1.02-0.01-1.43-0.55-1.43-1.77c-0.01-3.51,0-7.01,0-10.52v-1.49
		c-2.11,0-4.08,0-6.05,0c-1.83,0-2.86-1.71-1.89-3.26c0.23-0.37,0.96-0.6,1.46-0.62c2.09-0.07,4.19-0.03,6.45-0.03
		c0-1.32,0.04-2.56-0.04-3.8c-0.01-0.17-0.55-0.44-0.85-0.44c-1.83-0.04-3.66-0.01-5.49-0.02c-1.42-0.01-1.67-0.26-1.69-1.66
		c-0.03-2.13,0.19-2.36,2.32-2.36c1.86,0,3.73,0,5.77,0c0-1.31,0.04-2.51-0.04-3.71c-0.01-0.2-0.58-0.5-0.89-0.51
		c-1.83-0.05-3.66-0.02-5.49-0.03c-1.39-0.01-1.67-0.37-1.66-2.07c0-1.54,0.24-1.82,1.65-1.83c1.83-0.01,3.66-0.03,5.49,0
		c0.75,0.01,0.98-0.25,0.97-1c-0.02-15.36-0.01-30.73-0.01-46.09c0-0.26-0.04-0.52-0.08-0.97h-1.33c-9.8,0-19.6,0-29.41,0
		c-1.77,0-2.02-0.26-2.02-2.06v-6.01h40.87V143.6z"/>
	<path class="st0" d="M638.11,109.46h6.25c1.49,0,1.85,0.35,1.86,1.77c0.01,1.74-0.32,2.13-1.88,2.14
		c-1.72,0.01-3.43,0.03-5.15-0.01c-0.85-0.02-1.28,0.2-1.2,1.16c0.08,0.97,0.02,1.96,0.02,3.1c2.03,0,3.93,0.07,5.82-0.01
		c2.61-0.11,2.55,0.98,2.28,3.13c-0.04,0.36-0.87,0.84-1.35,0.87c-1.79,0.1-3.59,0.11-5.37,0.01c-1.14-0.06-1.5,0.35-1.38,1.42
		c0.07,0.6,0.05,1.22,0,1.83c-0.07,0.82,0.29,1.05,1.06,1.04c1.83-0.03,3.66-0.01,5.49,0c1.29,0.01,1.65,0.4,1.67,1.74
		c0.02,1.65-0.32,2.12-1.65,2.14c-1.79,0.03-3.59,0.06-5.38-0.01c-0.98-0.04-1.21,0.33-1.2,1.25c0.05,3.58,0.02,7.17,0.02,10.75
		c0,1.47-0.33,1.81-1.82,1.81c-2.05,0.01-4.1,0-6.21,0V53.32h40.92c0,2.29,0.06,4.56-0.03,6.83c-0.04,1.05-0.86,1.27-1.82,1.27
		c-7.74-0.02-15.49-0.01-23.23-0.01h-7.74V109.46z"/>
	<path class="st0" d="M683.42,109.46v-1.51V43.34c0-2.21,0.21-2.41,2.4-2.41c1.83,0.01,3.66,0,5.59,0v102.65
		c-2.3,0-4.58,0.05-6.86-0.02c-0.95-0.03-1.15-0.81-1.15-1.67c0.02-3.51,0.01-7.01,0.01-10.52v-1.57c-0.94,0-1.8,0-2.66,0
		c-1.26,0-2.52,0.01-3.78,0c-1.38-0.02-1.73-0.4-1.72-1.8c0.02-1.82,0.24-2.09,1.74-2.09c2.09,0,4.18,0,6.4,0
		c0-1.29,0.05-2.43-0.04-3.56c-0.02-0.26-0.55-0.67-0.86-0.68c-1.9-0.06-3.81-0.06-5.72-0.02c-1.08,0.02-1.49-0.45-1.52-1.5
		c-0.07-2.26,0.15-2.52,2.38-2.53h5.74c0-1.32,0.04-2.53-0.04-3.72c-0.01-0.2-0.59-0.5-0.91-0.5c-1.79-0.05-3.58-0.02-5.38-0.03
		c-1.52-0.01-1.8-0.3-1.8-1.82c0-1.79,0.23-2.07,1.76-2.08C679.12,109.46,681.21,109.46,683.42,109.46"/>
	<path class="st0" d="M670.94,48.95h-86.21c0-2.37-0.05-4.72,0.05-7.05c0.02-0.34,0.73-0.79,1.2-0.93c0.52-0.16,1.13-0.04,1.7-0.04
		c27.04,0,54.08,0,81.12,0c1.77,0,2.13,0.35,2.13,2.13C670.94,45,670.94,46.94,670.94,48.95"/>
	<path class="st0" d="M733.47,69.73c3.5,0,7.01,0,10.51,0c1.58,0,2.1,0.73,1.55,2.16c-0.67,1.73-1.33,3.48-2.08,5.17
		c-0.15,0.35-0.69,0.74-1.05,0.74c-5.98,0.04-11.96,0.04-17.94-0.01c-0.37,0-0.93-0.36-1.07-0.7c-0.76-1.74-1.45-3.51-2.1-5.29
		c-0.49-1.34,0.03-2.06,1.45-2.06C726.31,69.72,729.89,69.73,733.47,69.73"/>
	<path class="st0" d="M808.03,77.64H787.7c0-2.31-0.05-4.57,0.02-6.84c0.03-0.92,0.78-1.08,1.58-1.08c4.65,0.01,9.3,0,13.95,0
		c1.1,0,2.21,0,3.32,0c0.92,0,1.45,0.48,1.46,1.39C808.05,73.24,808.03,75.37,808.03,77.64"/>
	<path class="st0" d="M808.02,82.15c0,2.24,0.03,4.44-0.02,6.64c-0.02,0.79-0.54,1.23-1.35,1.23c-5.9,0-11.81,0.03-17.71-0.05
		c-0.42,0-1.17-0.66-1.19-1.04c-0.11-2.23-0.05-4.47-0.05-6.78H808.02z"/>
	<path class="st0" d="M725.31,82.1h16.18c-1,2.51-1.93,4.95-2.96,7.35c-0.15,0.35-0.78,0.67-1.2,0.68
		c-2.63,0.06-5.25,0.06-7.88-0.02c-0.43-0.01-1.06-0.42-1.22-0.81C727.21,86.99,726.31,84.62,725.31,82.1"/>
	<path class="st0" d="M568.12,121.64h-10.28c-1.66,0-1.89-0.24-1.9-1.92c0-1.74,0.33-2.11,1.89-2.11c5.37,0,10.74,0.01,16.11,0.01
		c1.52,0,3.05-0.07,4.57,0.03c0.61,0.04,1.63,0.37,1.7,0.73c0.19,0.91,0.04,1.92-0.17,2.85c-0.05,0.22-0.85,0.39-1.3,0.39
		C575.2,121.66,571.66,121.64,568.12,121.64L568.12,121.64z"/>
	<path class="st0" d="M568.24,125.9c3.43,0,6.85,0,10.28,0c1.65,0,1.87,0.23,1.87,1.95c0.01,1.64-0.28,1.95-1.9,1.95
		c-6.89,0.01-13.78,0.02-20.67-0.03c-0.59,0-1.57-0.35-1.68-0.73c-0.23-0.81-0.12-1.79,0.1-2.63c0.07-0.27,0.9-0.48,1.38-0.49
		C561.16,125.88,564.7,125.9,568.24,125.9"/>
	<path class="st0" d="M568.12,109.46c3.5,0,7,0,10.51,0c1.53,0,1.75,0.27,1.76,1.95c0.01,1.61-0.28,1.95-1.78,1.95
		c-6.97,0.01-13.93,0.01-20.9,0.01c-1.52,0-1.78-0.32-1.77-2.08c0.01-1.51,0.3-1.82,1.79-1.82
		C561.19,109.46,564.66,109.46,568.12,109.46L568.12,109.46z"/>
	<polygon class="st0" points="992.93,56.18 969.04,80.07 969.04,56.18 	"/>
	<polygon class="st0" points="993.48,83.73 993.48,163.26 969.04,163.26 969.04,108.17 	"/>
	<polygon class="st0" points="910.5,80.63 910.5,97.5 951.61,97.5 927.16,121.94 910.5,121.94 910.5,138.6 886.06,163.05 
		886.06,56.18 955.61,56.18 955.61,80.63 	"/>
	<path class="st0" d="M1033.14,160.01V58.88c1.01-0.41,1.72-1.4,1.72-2.55c0-1.52-1.23-2.75-2.75-2.75c-0.61,0-1.17,0.19-1.62,0.53
		L942.87,3.52c0.07-0.24,0.11-0.5,0.11-0.76c0-1.52-1.23-2.75-2.75-2.75c-1.52,0-2.76,1.23-2.76,2.75c0,0.21,0.02,0.41,0.07,0.61v0
		l-88.42,51.04c-0.44-0.31-0.98-0.49-1.57-0.49c-1.52,0-2.75,1.23-2.75,2.76c0,1.4,1.05,2.57,2.41,2.73v100.74
		c-1.18,0.31-2.05,1.39-2.05,2.66c0,1.52,1.23,2.75,2.75,2.75c0.77,0,1.47-0.32,1.97-0.83l87.64,50.6
		c-0.03,0.17-0.05,0.35-0.05,0.53c0,1.52,1.23,2.75,2.76,2.75c1.52,0,2.75-1.23,2.75-2.75c0-0.23-0.03-0.46-0.08-0.67l87.63-50.59
		c0.5,0.53,1.21,0.85,1.99,0.85c1.52,0,2.76-1.24,2.76-2.76C1035.27,161.39,1034.36,160.29,1033.14,160.01 M1030.54,58.6
		l-22.3,57.17c-0.16-0.03-0.33-0.05-0.51-0.05c-0.76,0-1.44,0.3-1.94,0.8l-42.9-19.07c0.05-0.21,0.08-0.43,0.08-0.66
		c0-0.3-0.05-0.59-0.13-0.86l67.28-37.69C1030.24,58.37,1030.38,58.49,1030.54,58.6 M1005.43,119.99l-77.36,56.3l31.73-76.78
		c0.13,0.02,0.27,0.03,0.41,0.03c0.8,0,1.51-0.34,2.02-0.88l42.85,19.05c-0.07,0.24-0.11,0.5-0.11,0.76
		C1004.97,119.04,1005.14,119.56,1005.43,119.99 M942.17,4.7l87.43,50.48c-0.16,0.35-0.25,0.74-0.25,1.15c0,0.24,0.03,0.48,0.09,0.7
		l-67.35,37.73c-0.4-0.37-0.92-0.63-1.48-0.71L941.25,5.31C941.6,5.17,941.91,4.96,942.17,4.7 M938.17,4.59
		c0.43,0.49,1.03,0.82,1.71,0.9l19.35,88.72c-0.47,0.18-0.88,0.49-1.19,0.88L850.31,56.61c-0.01-0.41-0.11-0.79-0.28-1.14
		L938.17,4.59z M849.89,58.14c0.03-0.06,0.07-0.12,0.1-0.18l107.5,38.4c-0.02,0.14-0.03,0.28-0.03,0.43c0,0.89,0.42,1.68,1.07,2.18
		l-31.89,77.16c-0.06,0-0.12-0.01-0.17-0.01c-0.29,0-0.56,0.04-0.82,0.12L849.89,58.14L849.89,58.14z M848.59,160.14V59.23
		c0.1-0.04,0.19-0.08,0.28-0.13l75.62,117.87c-0.22,0.23-0.4,0.5-0.53,0.79l-73.29-15.01C850.64,161.49,849.76,160.43,848.59,160.14
		 M938.12,214.08l-85.94-49.62l71.55,14.65c0.12,1.41,1.3,2.51,2.74,2.51c0.03,0,0.06,0,0.1,0l11.99,32.04
		C938.4,213.79,938.25,213.93,938.12,214.08 M942.24,213.98c-0.5-0.54-1.22-0.88-2.01-0.88c-0.14,0-0.27,0.01-0.4,0.03l-11.93-31.9
		c0.78-0.48,1.32-1.33,1.33-2.31l99.31-14.78L942.24,213.98z M1029.76,162.58l-100.86,15c-0.03-0.05-0.05-0.09-0.08-0.14
		l77.65-56.52c0.38,0.19,0.8,0.3,1.25,0.3c0.28,0,0.55-0.04,0.8-0.12l22.15,39.53C1030.14,161.13,1029.8,161.81,1029.76,162.58
		 M1031.76,159.77l-22.06-39.37c0.48-0.5,0.78-1.17,0.78-1.92c0-0.86-0.39-1.61-0.99-2.12l22.27-57.1V159.77z"/>
	<path class="st0" d="M1805.77,121.12c0-13.57-0.02-27.14,0.01-40.7c0.03-12.33,8.84-23.44,20.8-26.36
		c10.68-2.6,22.16,2.17,28.15,11.63c3.14,4.96,4.63,10.36,4.64,16.18c0.02,27.17,0.01,54.34,0.01,81.51c0,1.51-0.01,1.52-1.49,1.52
		c-5.04,0-10.07,0-15.1,0c-1.53,0-1.53,0-1.53-1.59c0-11.14,0-22.28,0-33.42c0-1.64,0-1.64-1.65-1.64c-4.79,0-9.58,0-14.38,0
		c-1.45,0-1.45,0-1.45,1.43c0,11.17,0,22.35,0,33.52c0,1.7,0,1.7-1.74,1.7h-14.38c-1.89,0-1.89,0-1.89-1.84
		C1805.77,149.09,1805.77,135.1,1805.77,121.12 M1823.78,94.36h-0.02c0,4.54,0,9.09,0,13.63c0,1.41,0.01,1.41,1.37,1.41
		c4.93,0,9.85-0.03,14.78,0.02c1.06,0.01,1.35-0.32,1.35-1.36c-0.04-8.84-0.02-17.68-0.02-26.53c0-0.8-0.07-1.59-0.24-2.37
		c-1.01-4.58-5.29-7.52-9.86-6.77c-4.17,0.68-7.27,4.12-7.35,8.34C1823.72,85.28,1823.78,89.82,1823.78,94.36"/>
	<path class="st0" d="M1924,96.37v40.29c0,7.13-2.06,13.56-6.67,19.04c-4.82,5.73-10.92,9.06-18.48,9.65
		c-11.42,0.9-21.44-6.21-25.9-15.94c-1.9-4.15-2.69-8.52-2.69-13.04c-0.01-27.17,0-54.35,0-81.52c0-1.66,0.01-1.66,1.69-1.66
		c4.97,0,9.93,0,14.9,0c1.54,0,1.54,0,1.54,1.58c0,27.28,0.01,54.56-0.01,81.84c0,2.17,0.38,4.21,1.6,6.04
		c3.43,5.15,10.6,5.21,14.16,0.14c1.29-1.84,1.75-3.86,1.75-6.08c-0.02-22.45-0.01-44.91-0.01-67.36c0-4.93,0-9.86,0-14.78
		c0-1.3,0.06-1.35,1.35-1.35c5.14,0,10.28,0,15.42,0c1.34,0,1.38,0.04,1.38,1.43C1924,68.53,1924,82.45,1924,96.37"/>
	<path class="st0" d="M1935.19,121.53c0-13.64-0.01-27.28,0-40.92c0.01-13.07,9.63-24.58,22.49-26.89c1.12-0.2,2.26-0.34,3.41-0.34
		c5.87,0.01,11.74,0.02,17.61-0.02c1.04-0.01,1.39,0.3,1.38,1.36c-0.04,5.38-0.02,10.76-0.02,16.14c0,1.28-0.06,1.33-1.37,1.33
		c-5.45,0.01-10.9,0-16.36,0.01c-5.14,0.01-8.89,3.69-8.96,8.82c-0.04,2.74,0.02,5.48-0.03,8.23c-0.02,0.96,0.32,1.26,1.27,1.25
		c7.95-0.03,15.91-0.02,23.86-0.01c1.59,0,1.59,0,1.6,1.63c0,5.24,0,10.48,0,15.72c0,1.44-0.02,1.46-1.44,1.47
		c-8.02,0-16.05,0.01-24.07-0.02c-0.92,0-1.22,0.19-1.22,1.19c0.04,17.56,0.03,35.12,0.03,52.68c0,1.72-0.01,1.72-1.75,1.72
		c-4.97,0-9.93,0-14.9,0c-1.52,0-1.52-0.01-1.52-1.59C1935.19,149.37,1935.19,135.45,1935.19,121.53"/>
	<path class="st0" d="M2058.32,120.93c-2.22,0-4.45,0.03-6.67-0.02c-0.85-0.02-1.36,0.19-1.78,1.03c-1.16,2.29-3.16,3.45-5.69,3.3
		c-2.62-0.16-4.46-1.62-5.38-4.11c-1.18-3.2,0.74-6.8,4.2-7.73c0.98-0.26,1.22-0.7,1.21-1.65c-0.05-3.78-0.03-7.57,0-11.35
		c0.01-0.79-0.1-1.42-0.94-1.76c-0.27-0.11-0.57-0.37-0.66-0.63c-0.36-1.01-1.13-1.08-2.02-1.01c-3.15,0.24-6.3,0.4-9.46,0.4
		c-0.28,0-0.55,0.04-0.83,0.04c-1.02,0.02-1.55,0.41-1.8,1.54c-0.45,2.02-1.83,3.4-3.76,4.14c-0.7,0.27-0.96,0.65-0.95,1.39
		c0.03,3.26,0.04,6.53,0.01,9.79c-0.01,0.82,0.36,1.34,0.94,1.85c1.51,1.36,1.84,2.45,1.27,3.83c-0.21,0.5-0.54,0.9-0.93,1.24
		c-0.61,0.51-0.7,1.14-0.61,1.87c0.41,3.13,0.83,6.25,1.22,9.38c0.09,0.73,0.36,1.09,1.17,1.14c2.74,0.15,5.02,2.17,5.46,4.86
		c0.11,0.66,0.35,0.98,1.01,1.07c3.09,0.42,6.18,0.87,9.27,1.31c0.48,0.07,0.78-0.15,1.01-0.56c0.77-1.36,2.05-1.45,3.37-1.21
		c1.47,0.26,2.38,1.22,2.76,2.66c0.34,1.32,0.1,2.51-1.07,3.33c-0.56,0.39-0.74,0.87-0.68,1.51c0.25,2.9,0.49,5.8,0.74,8.7
		c0.03,0.38,0.1,0.76,0.09,1.14c-0.02,1.84,0.54,3.45,1.88,4.76c0.34,0.34,0.73,0.54,1.2,0.54c3.78-0.03,7.57,0.16,11.35-0.14
		c0.63-0.05,1.11-0.27,1.58-0.68c0.5-0.43,1.04-0.82,1.6-1.15c1-0.59,2.09-0.41,2.78,0.5c0.39,0.51,0.77,0.61,1.34,0.43
		c3.32-1.01,6.71-1.78,9.95-3.08c1.66-0.66,2.84-1.8,3.44-3.53c1.19-3.44,2.18-6.95,3.23-10.44c0.21-0.69,0.18-1.24-0.39-1.79
		c-0.65-0.62-0.79-1.43-0.5-2.31c0.51-1.55,1.53-2.62,3.05-3.2c1.04-0.39,2.01-0.27,2.72,0.65c0.32,0.42,0.65,0.43,1.09,0.31
		c3.52-0.95,7.05-1.88,10.48-3.11c2.19-0.79,3.73-2.28,4.41-4.52c0.9-2.99,1.75-5.99,2.59-9c0.32-1.14-0.73-2.32-1.95-2.2
		c-4.18,0.39-8.35,0.81-12.52,1.21c-0.37,0.04-0.67,0.17-0.92,0.42c-0.34,0.34-0.69,0.68-1.04,1.02c-1.35,1.3-3.11,1.39-4.28,0.24
		c-1.29-1.27-1.46-3.56-0.01-4.64c1.41-1.06,1.48-2.3,1.46-3.79c-0.04-3.92-0.02-7.84,0.02-11.76c0.01-0.83-0.21-1.47-0.84-2.01
		c-0.34-0.29-0.63-0.65-0.88-1.02c-1.07-1.58-0.94-2.94,0.36-4.09c1.13-1,2.95-0.96,4.22,0.07c1.53,1.25,2.42,4.01,0.03,5.57
		c-0.38,0.25-0.57,0.6-0.57,1.05c0.02,4.65-0.17,9.3,0.11,13.94c0.07,1.16,1.65,2.55,2.81,2.46c4.11-0.32,8.22-0.69,12.33-1.04
		c0.07-0.01,0.14-0.01,0.2-0.03c0.92-0.25,2.62-2.34,2.62-3.29c0.01-3.47,0-6.94,0.01-10.41c0-0.72-0.29-1.21-0.92-1.62
		c-1.71-1.11-2.01-2.86-0.73-4.45c0.47-0.58,0.48-1.06,0.29-1.7c-0.93-3.16-1.83-6.33-2.72-9.51c-0.18-0.65-0.47-1.2-0.99-1.66
		c-0.54-0.48-0.99-1.06-1.48-1.6c-0.72-0.79-1.01-1.65-0.45-2.66c0.18-0.33,0.07-0.67,0-1.01c-0.09-0.47,0.1-0.82,0.52-1.03
		c0.38-0.2,0.69-0.02,0.93,0.25c1.3,1.49,2.71,2.88,3.83,4.52c0.24,0.35,0.51,0.81,0.34,1.16c-0.73,1.55,0.1,2.92,0.43,4.33
		c0.56,2.4,1.28,4.76,1.92,7.14c0.2,0.76,0.55,1.35,1.2,1.87c1.68,1.33,1.81,2.57,0.54,4.3c-0.41,0.56-0.61,1.12-0.6,1.82
		c0.02,3.47,0.02,6.94,0,10.41c0,0.71,0.19,1.24,0.69,1.76c1.16,1.19,1.18,2.81-0.14,3.83c-1.21,0.93-1.65,2.13-2,3.5
		c-0.69,2.69-1.44,5.36-2.19,8.03c-0.17,0.61-0.29,1.17,0.04,1.8c0.41,0.78,0.06,1.51-0.44,2.12c-1.19,1.44-2.43,2.85-3.65,4.26
		c-0.27,0.31-0.6,0.5-1.01,0.28c-0.47-0.26-0.54-0.67-0.44-1.16c0.23-1.21,0.22-1.22-0.98-0.87c-3.3,0.97-6.61,1.88-9.88,2.96
		c-2.17,0.71-3.78,2.11-4.45,4.43c-0.99,3.43-2.06,6.84-3.11,10.26c-0.12,0.38-0.12,0.73,0,1.11c0.59,1.88-1.39,4.82-3.38,5.04
		c-0.2,0.02-0.48,0.07-0.61-0.04c-1.02-0.78-1.98-0.19-2.94,0.12c-2.74,0.89-5.47,1.82-8.3,2.4c-0.95,0.19-1.7,0.65-2.33,1.43
		c-1.21,1.51-2.74,1.62-4.12,0.3c-0.89-0.85-1.92-0.67-2.94-0.6c-3.15,0.21-6.3,0.29-9.46-0.02c-0.53-0.05-1.01-0.03-1.41,0.43
		c-1.21,1.38-2.96,1.53-4.11,0.13c-0.92-1.13-2.05-1.55-3.33-1.9c-2.74-0.76-5.47-1.57-8.21-2.36c-0.65-0.19-1.25-0.29-1.9,0.08
		c-0.62,0.35-1.21,0.03-1.75-0.31c-1.23-0.78-2.03-1.99-2.97-3.04c-0.64-0.72,0.27-2.1,1.4-2.21c1.04-0.1,1.85,0.4,2.43,1.17
		c1.08,1.44,2.55,2.21,4.22,2.7c2.6,0.76,5.18,1.57,7.85,2.06c1.29,0.24,2.4-0.66,2.29-2c-0.2-2.45-0.46-4.9-0.68-7.35
		c-0.13-1.45-0.27-2.9-0.34-4.35c-0.04-0.86-0.54-1.38-0.98-2.05c-1.37-2.1-3.54-1.87-5.52-2.22c-1.91-0.34-3.84-0.55-5.77-0.82
		c-0.71-0.1-1.29-0.13-1.76,0.66c-1.4,2.33-3.48,3.46-6.22,3.02c-2.5-0.4-4.18-1.93-4.82-4.34c-0.68-2.58,0.1-4.82,2.27-6.45
		c0.59-0.44,0.8-0.85,0.7-1.55c-0.48-3.19-0.9-6.38-1.42-9.56c-0.4-2.46-2.03-3.87-4.54-4.1c-3.38-0.32-6.78-0.43-10.14-1.03
		c-0.51-0.09-1.03-0.07-1.54,0.14c-1.28,0.53-1.53,0.96-1.16,2.29c0.88,3.1,1.81,6.19,2.68,9.3c0.26,0.92,0.74,1.62,1.51,2.17
		c0.79,0.56,1.31,1.34,1.6,2.25c0.17,0.54,0.18,1.12-0.24,1.57c-0.44,0.46-1.01,0.41-1.56,0.23c-1.44-0.45-2.58-1.33-3.44-2.57
		c-0.43-0.62-0.67-1.31-0.2-2.04c0.28-0.43,0.12-0.87,0-1.3c-0.9-3.28-1.84-6.55-2.69-9.84c-0.26-0.99-0.98-1.58-1.55-2.3
		c-1.22-1.54-1.27-2.37,0-3.83c0.39-0.45,0.41-0.93,0.41-1.45c0-2.88-0.01-5.76,0.01-8.64c0-0.73,0.05-1.45,0.11-2.18
		c0.03-0.43,0.05-0.84-0.36-1.12c-0.99-0.67-1.49-1.55-1.1-2.76c0.42-1.31,1.31-2.21,2.63-2.59c1.34-0.38,2.5,0.05,3.01,1.01
		c0.6,1.12,0.41,2.7-0.72,3.48c-1.19,0.83-1.34,1.85-1.32,3.13c0.06,3.16,0.02,6.32,0.03,9.48c0,1.29,1.46,3.09,2.74,3.23
		c3.51,0.39,7.03,0.71,10.55,1.05c0.17,0.02,0.37-0.05,0.52,0.01c1.72,0.72,2.66-0.56,3.74-1.47c0.33-0.28,0.35-0.66,0.35-1.04
		c0-3.4-0.01-6.8,0.02-10.2c0.01-0.76-0.34-1.08-1-1.36c-3.52-1.49-4.91-5.31-3.11-8.54c0.84-1.52,2.15-2.57,3.85-2.95
		c0.73-0.16,1.07-0.43,1.16-1.18c0.46-3.61,0.97-7.21,1.42-10.82c0.12-0.96-0.96-1.83-1.9-1.55c-3.43,1.01-6.85,2.04-10.28,3.08
		c-1.44,0.44-2.4,1.62-3.65,2.37c-0.35,0.21-0.68,0.51-1.05,0.66c-0.62,0.25-1.25,0.18-1.73-0.33c-0.46-0.48-0.49-1.07-0.18-1.64
		c0.97-1.8,2.5-3.13,3.89-4.58c0.25-0.26,0.64-0.28,0.98-0.09c0.34,0.18,0.43,0.5,0.41,0.88c-0.04,0.95,0.22,1.19,1.02,0.83
		c3.28-1.48,6.83-2.11,10.2-3.29c1.97-0.69,3.54-1.98,4.18-4.11c1.02-3.35,2.02-6.71,3.04-10.06c0.17-0.55,0.26-1.05-0.11-1.58
		c-0.4-0.57-0.3-1.18,0.09-1.75c0.75-1.1,1.7-2.02,2.7-2.88c0.66-0.57,1.47-0.71,2.17-0.06c0.68,0.64,0.73,1.48,0.13,2.15
		c-3.26,3.59-3.79,8.32-5.34,12.62c-0.13,0.36-0.19,0.74-0.34,1.09c-0.39,0.91-0.45,1.65,0.35,2.51c1.05,1.12,0.9,2.79-0.45,3.77
		c-1.48,1.07-1.83,2.49-2.04,4.1c-0.38,2.92-0.8,5.84-1.23,8.75c-0.11,0.74,0.03,1.24,0.77,1.6c1.05,0.5,1.87,1.32,2.46,2.33
		c0.28,0.48,0.65,0.66,1.18,0.67c2.81,0.03,5.61-0.24,8.42-0.34c1.11-0.04,2.22-0.1,3.33-0.08c0.77,0.01,1.35-0.18,1.67-0.94
		c0.15-0.36,0.41-0.68,0.76-0.83c0.96-0.41,1.12-1.18,1.15-2.12c0.1-3.25,0.24-6.51,0.4-9.76c0.03-0.72-0.22-1.12-0.88-1.45
		c-2.56-1.25-3.71-3.33-3.52-6.16c0.16-2.27,1.9-4.35,4.39-5.14c0.6-0.19,0.83-0.49,0.89-1.09c0.18-1.86,0.39-3.72,0.59-5.58
		c0.04-0.34,0.03-0.71,0.15-1.02c0.32-0.87,0.18-1.52-0.49-2.24c-0.99-1.07-0.72-2.9,0.43-4.05c1.21-1.2,2.88-1.34,4.12-0.22
		c0.55,0.5,1.1,0.62,1.79,0.61c3.05-0.02,6.11-0.02,9.17-0.01c0.59,0,1.18,0.04,1.76,0.12c0.45,0.07,0.79-0.02,1.12-0.37
		c1.17-1.22,2.82-1.36,4.1-0.39c1.43,1.08,1.87,2.6,0.82,3.99c-0.85,1.13-0.72,2.25-0.59,3.43c0.27,2.48,0.63,4.95,0.95,7.42
		c0.18,1.35,1.77,3.13,3.14,3.34c3.36,0.5,6.73,0.94,10.1,1.4c0.86,0.12,1.72,0.24,2.58,0.36c1.39,0.2,2.22-0.7,1.83-2.03
		c-0.99-3.32-2.02-6.64-2.99-9.97c-0.4-1.38-1.35-2.31-2.34-3.25c-0.64-0.61-1.02-1.31-0.85-2.23c0.24-1.33,1.54-1.92,2.66-1.17
		c1.24,0.82,2.17,1.93,2.79,3.29c0.18,0.39,0.34,0.87,0.12,1.2c-0.56,0.83-0.23,1.59,0,2.38c0.98,3.36,1.98,6.72,2.95,10.09
		c0.18,0.63,0.57,1.1,1.01,1.55c0.72,0.76,1.38,1.57,1.78,2.54c0.34,0.81,0.27,1.59-0.36,2.22c-0.64,0.64-1.45,0.83-2.3,0.45
		c-0.57-0.25-1.15-0.53-1.62-0.93c-1.45-1.22-3.07-1.86-4.98-2.06c-3.45-0.37-6.87-0.92-10.3-1.43c-0.59-0.09-0.96,0.02-1.3,0.54
		c-0.69,1.06-1.73,1.48-2.97,1.24c-1.65-0.32-2.78-1.27-3.18-2.92c-0.32-1.29,0.04-2.46,1.15-3.22c0.65-0.45,0.77-0.88,0.69-1.64
		c-0.23-2.1-0.37-4.21-0.47-6.32c-0.09-1.99-1.09-3.52-2.32-4.96c-0.26-0.3-0.66-0.36-1.05-0.39c-3.81-0.34-7.62,0.06-11.44,0.04
		c-0.79-0.01-2.69,1.72-2.85,2.5c-0.51,2.48-0.77,4.99-0.91,7.52c-0.05,0.84,0.26,1.3,1.03,1.7c2.25,1.15,3.41,3.1,3.29,5.59
		c-0.13,2.66-1.55,4.57-4.11,5.47c-0.8,0.28-1.03,0.7-1.06,1.51c-0.14,3.36-0.34,6.71-0.54,10.07c-0.03,0.51,0.12,0.83,0.55,1.12
		c2.49,1.67,2.52,4.6,0.05,6.22c-0.47,0.31-0.67,0.65-0.67,1.18c0,4.27,0,8.54-0.01,12.81c0,0.55,0.21,0.9,0.69,1.18
		c1.57,0.92,2.63,2.25,3.05,4.03c0.12,0.51,0.39,0.68,0.88,0.68c4.72,0,9.45,0.01,14.17,0.02c0.46,0,0.79-0.17,1.03-0.57
		c0.38-0.63,0.91-1.14,1.54-1.52c0.41-0.25,0.54-0.6,0.54-1.05c0-4.61-0.01-9.23,0.01-13.85c0-0.75-0.47-0.99-1-1.29
		c-4.17-2.37-4.26-8.16-0.15-10.51c2.15-1.23,4.33-1.18,6.39,0.21c2.06,1.38,2.98,3.39,2.64,5.83c-0.35,2.49-1.83,4.18-4.22,4.93
		c-0.91,0.29-1.2,0.66-1.19,1.58c0.04,4.27,0.03,8.54,0.02,12.81c0,0.58,0.11,1.04,0.62,1.44c2.24,1.72,2.23,4.37-0.05,6.01
		c-0.53,0.39-0.75,0.79-0.85,1.42c-0.26,1.69-0.18,3.39-0.29,5.08c-0.19,3.01-0.21,6.02-0.47,9.03c-0.05,0.54,0.16,0.9,0.61,1.22
		c1.44,1.03,1.79,2.29,1.12,3.79c-0.72,1.63-2.49,2.74-3.96,2.48c-1.31-0.24-2.22-1.15-2.49-2.48c-0.24-1.21,0.42-2.79,1.5-3.42
		c0.48-0.28,0.86-0.55,0.89-1.16c0.2-4.74,0.41-9.49,0.63-14.23c0.04-0.79-0.09-1.44-0.9-1.79c-0.15-0.07-0.31-0.2-0.38-0.35
		c-0.65-1.43-1.89-1.33-3.16-1.31C2062.08,120.97,2060.2,120.94,2058.32,120.93L2058.32,120.93z"/>
</g>
</svg>
